<?xml version="1.0" encoding="utf-8"?>
<!DOCTYPE svg PUBLIC "-//W3C//DTD SVG 1.1//EN" "http://www.w3.org/Graphics/SVG/1.1/DTD/svg11.dtd">
<svg version="1.1" id="Layer_1" xmlns="http://www.w3.org/2000/svg" xmlns:xlink="http://www.w3.org/1999/xlink" x="0px" y="0px"
	 width="176px" height="176px" viewBox="0 0 176 176" style="enable-background:new 0 0 176 176;" xml:space="preserve">
<g  transform="scale(0.1) " id="svg_1">
   <path fill="#d3393d" fill-rule="nonzero" d="m221.4337,111.21625c0,60.87125 -49.3462,110.21625 -110.2162,110.21625c-60.8713,0 -110.2175,-49.345 -110.2175,-110.21625c0,-60.87125 49.3462,-110.21625 110.2175,-110.21625c60.87,0 110.2162,49.345 110.2162,110.21625" id="path78"/>
   <path fill="#ffffff" fill-rule="nonzero" d="m166.4882,148.19025l-40.9725,-36.975l40.9725,-36.97375c3.9275,-3.545 4.2375,-9.6025 0.6938,-13.53125c-3.545,-3.9275 -9.6025,-4.2375 -13.5313,-0.69375l-42.4337,38.295l-42.435,-38.295c-3.9275,-3.54375 -9.985,-3.23375 -13.53,0.69375c-3.5438,3.92875 -3.2338,9.98625 0.6937,13.53125l40.9725,36.97375l-40.9725,36.975c-3.9275,3.545 -4.2375,9.6025 -0.6937,13.53c1.8925,2.09625 4.4987,3.1625 7.115,3.1625c2.2875,0 4.5837,-0.815 6.415,-2.46875l42.435,-38.29375l42.4337,38.29375c1.8325,1.65375 4.1288,2.46875 6.4163,2.46875c2.6162,0 5.2237,-1.06625 7.115,-3.1625c3.5437,-3.9275 3.2337,-9.985 -0.6938,-13.53" id="path98"/>
  </g>
</svg>
