<svg xmlns:dc="http://purl.org/dc/elements/1.1/" xmlns:cc="http://creativecommons.org/ns#" xmlns:rdf="http://www.w3.org/1999/02/22-rdf-syntax-ns#" xmlns:svg="http://www.w3.org/2000/svg" xmlns="http://www.w3.org/2000/svg" xmlns:xlink="http://www.w3.org/1999/xlink" xmlns:sodipodi="http://sodipodi.sourceforge.net/DTD/sodipodi-0.dtd" xmlns:inkscape="http://www.inkscape.org/namespaces/inkscape" xml:space="preserve" enable-background="new 0 0 1000 1000" viewBox="0 0 1000 1000" height="1000px" width="1200px" y="0px" x="0px" version="1.1" inkscape:version="0.91 r13725" sodipodi:docname="eucgeniex.svg"><metadata id="metadata213"><rdf:RDF><cc:Work rdf:about=""><dc:format>image/svg+xml</dc:format><dc:type rdf:resource="http://purl.org/dc/dcmitype/StillImage"/><dc:title/></cc:Work></rdf:RDF></metadata><defs id="defs211"><clipPath id="SVGID_10_-6"><use height="100%" width="100%" y="0" x="0" style="overflow:visible" id="use145-9" overflow="visible" xlink:href="#SVGID_9_-6"/></clipPath></defs>

	
	
 <g class="dragme" transform="translate(266,146)" id="tree">
   <path fill="#FFFFFF" stroke="#989898" stroke-miterlimit="10" d="m270.081,569.456c-3.128,-4.414 -6.694,-9.061 -6.719,-14.47c-0.009,-1.815 0.393,-3.632 0.183,-5.435c-1.464,-12.541 -19.191,-16.239 -26.743,-23.314c-1.18,-1.105 -11.397,-20.483 -12.991,-19.23c3.147,-2.477 7.456,-3.153 11.404,-2.479c3.947,0.672 7.589,2.571 10.91,4.812c-2.726,-2.857 -5.96,-5.227 -9.507,-6.964c-1.152,-0.566 -2.354,-1.069 -3.626,-1.26c-1.465,-0.22 -2.954,-0.014 -4.425,0.159c-13.327,1.556 -24.096,-3.134 -32.909,-13.291c-0.748,-0.863 -3.474,-6.687 -5.711,-12.355c-5.239,0.354 -10.423,0.054 -15.708,-1.411c-1.393,3.755 -3.744,7.118 -7.382,9.063c-2.36,1.261 -5.068,1.833 -7.284,3.33c-2.892,1.951 -4.658,5.464 -4.499,8.948c0.052,-2.653 2.514,-4.665 5.022,-5.529c2.51,-0.866 5.242,-0.985 7.706,-1.969c3.371,-1.343 3.497,-1.433 5.908,-4.145c-0.408,8.312 -2.843,14.991 -9.977,19.413c-8.927,5.532 -21.027,2.477 -30.423,7.165c-9.44,4.71 -14.558,16.455 -24.743,19.2c-2.862,0.772 -5.875,0.734 -8.803,1.19c-9.514,1.483 -15.413,8.238 -19.125,16.7c-2.817,6.417 -5.189,13.46 -10.625,17.883c-3.84,3.125 -8.786,4.556 -12.892,7.321c-5.983,4.029 -9.897,10.977 -10.246,18.182c1.835,-5.603 5.699,-10.514 10.712,-13.614c6.414,-3.969 14.875,-5.315 19.17,-11.517c1.64,-2.368 2.454,-5.19 3.328,-7.935c1.652,-5.192 3.653,-10.384 7.047,-14.643c6.042,-7.585 12.693,-6.46 21.03,-8.571c11.562,-2.925 18.053,-15.678 29.023,-20.358c9.406,-4.013 20.493,-2.339 30.264,-4.992c-0.037,0.257 -0.08,0.509 -0.128,0.756c-2.098,10.713 -14.542,12.435 -23.194,15.705c-14.681,5.549 -19.004,25.979 -33.267,29.419c-3.942,0.952 -8.08,0.981 -11.968,2.141c-3.888,1.158 -7.72,3.865 -8.502,7.846c1.92,-2.947 5.34,-4.857 8.857,-4.947c4.284,-0.108 9.204,2.122 12.482,-0.64c-3.809,3.209 -5.884,10.304 -9.975,14.083c-8.807,8.138 -15.789,17.878 -20.003,29.159c-2.55,6.832 -4.096,14.073 -7.483,20.534c-4.873,9.299 -13.565,17.121 -14.557,27.572c3.074,-10.128 13.352,-16.396 18.019,-25.896c2.007,-4.083 2.896,-8.607 4.242,-12.953c3.475,-11.228 11.487,-22.094 19.995,-30.058c1.145,9.676 1.729,19.336 3.65,28.947c3.919,-10.02 -3.333,-22.229 1.639,-31.771c2.405,-4.615 6.872,-8.077 9.866,-12.292c4.339,-6.111 6.055,-13.43 11.029,-19.234c4.995,-5.828 11.525,-10.107 18.282,-13.616c2.332,-1.211 20.353,-7.078 20.625,-8.603c-1.426,7.957 -2.51,16.126 -6.85,23.178c-3.303,6.547 -6.828,11.027 -13.624,13.955c-6.02,2.593 -14.586,1.631 -18.337,8.141c6.627,-2.361 13.847,-3.045 20.801,-1.971c-4.666,8.752 -1.755,25.769 -8.728,32.395c-3.349,3.184 -8.802,3.459 -11.917,6.871c-2.907,3.181 -2.843,7.989 -2.609,12.292c1.083,-3.598 2.393,-7.504 5.577,-9.5c1.031,-0.646 2.197,-1.043 3.349,-1.434c2.807,-0.952 5.612,-1.903 8.418,-2.856c-0.362,-0.709 -0.099,-1.677 0.575,-2.104c1.135,-0.187 1.545,1.442 1.47,2.591c-0.57,8.686 -3.622,16.493 -5.371,25.02c-2.185,11.024 -1.585,22.589 1.73,33.327c-2.187,-10.732 -1.496,-22.039 1.982,-32.427c2.038,-6.089 10.666,-18.671 8.193,-25.309c3.144,8.438 16.201,8.703 12.146,20.165c-1.035,2.925 -2.849,5.522 -3.913,8.439c-1.387,3.795 -1.423,8.068 -0.1,11.889c0.921,-5.864 3.226,-11.508 6.675,-16.338c-0.08,5.7 0.533,11.024 1.77,16.594c1.29,5.8 5.643,11.543 11.573,11.893c-5.786,-2.607 -8.054,-9.705 -8.244,-16.049c-0.192,-6.345 1.023,-12.826 -0.572,-18.97c-1.047,-4.023 -3.303,-7.726 -6.4,-10.498c-2.307,-2.068 -5.047,-3.614 -7.323,-5.718c-8.228,-7.608 -7.99,-21.805 -3.442,-31.314c3.634,-7.6 9.109,-14.181 12.659,-21.9c3.517,6.671 6.376,13.818 9.508,20.711c1.458,3.206 2.913,6.412 4.371,9.617c1.976,-10.63 -7.231,-20.378 -7.517,-31.186c-0.511,-19.363 11.697,-37.741 10.364,-38.829c9.508,7.771 19.273,18.364 16.875,31.59c-0.519,2.858 -1.544,5.599 -2.247,8.417c-2.08,8.313 -1.268,17.321 2.262,25.13c-2.599,-10.588 -0.695,-22.204 5.147,-31.409c-0.252,6.529 2.425,10.419 3.934,16.209c1.688,6.482 0.466,13.839 1.58,20.493c1.684,10.044 7.111,18.596 10.21,28.078c2.719,8.313 -1.695,18.133 2.44,25.84c1.536,2.864 4.086,5.033 6.667,7.009c-3.627,-4.462 -5.52,-10.298 -5.202,-16.038c0.356,-6.448 3.318,-13.198 0.668,-19.088c-3.72,-8.271 -8.301,-16.412 -10.717,-25.244c-1.607,-5.878 1.226,-26.248 -2.058,-30.152c4.833,5.747 16.172,2.324 21.991,7.917c2.045,1.966 3.274,4.612 4.96,6.894c4.258,5.756 11.363,9.174 16.035,14.386c-1.691,-2.412 -3.526,-4.71 -5.702,-6.688c-1.791,-1.63 -3.793,-3.026 -5.489,-4.752c-3.481,-3.547 -5.466,-8.252 -8.12,-12.449c-6.703,-10.599 -21.231,-7.37 -27.279,-18.244c-2.322,-4.173 -1.893,-8.665 -4.161,-13.027c-2.624,-5.042 -7.378,-9.336 -10.727,-13.922c-1.466,-2.014 -10.709,-22.601 -7.111,-21.765c13.516,3.136 37.77,13.227 38.554,29.659c0.152,3.187 -0.24,6.396 0.152,9.563c0.588,4.743 2.998,9.237 6.624,12.352c-3.587,-5.881 -3.161,-13.71 -1.963,-20.213c5.83,10.503 24.581,8.182 27.684,22.139c0.932,4.198 0.831,8.649 2.44,12.637c1.713,4.241 5.158,7.485 8.203,10.897s5.892,7.464 5.92,12.036c1.339,-5.246 -1.633,-10.555 -4.762,-14.966z" id="path205"/>
   <path fill="#FFFFFF" stroke="#989898" stroke-width="2" stroke-miterlimit="10" d="m292.787,135.201c-1.128,-1.001 -1.683,-1.586 -0.597,-2.945c3.29,-4.126 1.738,-7.68 -4.14,-9.009c-2.553,-0.578 -4.498,-1.238 -4.903,-3.756c0.383,-0.306 0.766,-0.611 1.149,-0.917c2.374,0.158 4.425,-0.754 4.523,-2.76c0.07,-1.483 -0.382,-3.091 -2.642,-4.366c-4.28,-2.417 -9.54,-3.466 -12.682,-7.781c-1.865,-2.562 -13.623,-0.129 -16.282,2.709c-1.618,1.725 -2.934,3.644 -5.176,4.962c-2.185,1.285 -3.961,1.979 -6.502,0.628c-3.951,-2.101 -8.131,-0.238 -12.063,0.249c-3.979,0.492 -6.389,0.047 -7.101,-3.686c-0.663,-3.473 2.455,-3.529 4.887,-4.288c0.519,-0.162 0.81,-0.885 1.206,-1.349l0,0c0.666,-2.047 3.881,-2.172 4.267,-4.429l0,0c1.685,-1.518 4.663,-1.854 5.185,-4.434c0.379,-0.319 0.758,-0.637 1.139,-0.955c4.944,2.141 7.414,-1.079 10.172,-3.671c2.389,-0.338 4.778,-0.678 7.17,-1.018c2.885,-2.728 0.852,-4.587 -1.596,-6.121c-1.696,-1.063 -3.827,-0.702 -5.847,-0.774c-2.453,-0.087 -5.495,0.644 -6.317,-2.934c-0.519,-2.246 -3.431,-1.488 -5.273,-1.87c-1.792,-0.37 -3.739,-0.15 -5.617,-0.189l0,0c1.839,-0.774 1.428,-3.475 3.984,-3.631c0.884,-0.034 2.245,-0.492 1.877,-1.027c-3.08,-4.456 3.302,-6.715 2.908,-10.439c-0.07,-0.66 -0.667,-1.479 -1.302,-1.859c-3.962,-2.37 -2.614,-4.158 0.683,-5.809l0,0c2.33,-0.414 5.785,1.143 6.819,-1.215c1.465,-3.333 -2.258,-5.074 -4.554,-7.088l-0.002,0c-1.032,-1.348 -1.765,-2.963 -4.008,-3.149c-0.614,-0.052 -1.694,-0.347 -1.723,-0.599c-0.682,-6.536 -6.978,-5.775 -11.666,-7.15c-2.039,-0.597 -4.455,-1.004 -4.506,-3.615l0,0l0,0c1.03,-3.88 -0.488,-6.43 -4.972,-7.428l0,0c-4.014,-1.921 -3.446,-5.713 -3.93,-8.708c-0.861,-5.334 -4.342,-7.976 -9.76,-8.334c-7.213,-0.479 -14.221,-1.729 -21.282,-2.923c-4.892,-0.828 -7.312,1.13 -7.506,5.466c-5.656,0.64 -10.47,2.943 -14.681,6.175c-1.634,1.252 -2.795,3.131 -4.873,3.797c-5.724,1.835 -5.635,6.53 -6.951,10.542c-0.712,2.168 -1.795,3.94 -4.667,4.208c-0.936,0.086 -1.869,0.51 -1.776,1.331c0.582,5.227 -4.414,5.354 -7.674,5.606c-4.799,0.372 -3.087,5.22 -6.551,6.054c0.568,1.833 1.723,3.176 3.656,4.159c3.352,1.704 4.374,6.467 2.258,9.646c-1.667,2.503 -1.628,2.579 2.14,4.058l0,0c0.258,0.002 0.514,0.01 0.77,0.023l0.002,0l-0.002,0c3.339,-0.022 5.607,0.622 4.651,4.393c-0.354,1.401 0.566,2.951 2.853,2.889l0,0l0.001,0c1.303,0.273 2.677,1.316 2.197,2.09c-1.123,1.803 -3.114,3.693 -5.41,3.615c-7.962,-0.27 -12.771,3.154 -15.427,9.385c-0.898,2.11 -3.848,2.169 -4.728,4.476c-0.666,1.749 -1.406,2.998 0.493,4.308l0,0c3.301,1.472 5.949,5.026 10.485,2.582c0.587,0.064 1.172,0.128 1.758,0.191l0,0c0.736,0.282 1.471,0.564 2.205,0.845c-1.155,4.319 -0.299,7.743 5.189,9.106c2.628,1.181 5.473,0.891 8.266,0.949l0,0c3.226,0.11 6.523,-0.089 9.366,1.685l0.002,0l-0.002,0c0.182,1.073 -0.504,2.035 -1.168,2.998c-0.069,-0.032 -0.133,-0.075 -0.206,-0.096c-2.154,-0.637 -4.049,0.005 -5.198,1.582c-0.317,0.139 -0.561,0.353 -0.737,0.613c-0.17,-0.053 -0.34,-0.104 -0.512,-0.15c-0.111,-0.066 -0.223,-0.129 -0.343,-0.173c-0.012,-0.387 -0.162,-0.768 -0.535,-1.077c-0.625,-0.52 -1.249,-0.944 -1.887,-1.296c-0.167,-0.454 -0.548,-0.815 -1.198,-0.92c-1.676,-0.27 -3.299,-0.416 -4.97,-0.422c-0.501,-0.207 -1.019,-0.389 -1.506,-0.574c-0.502,-0.192 -0.962,-0.063 -1.325,0.218c-0.107,-0.033 -0.214,-0.058 -0.321,-0.086c-0.023,-0.02 -0.042,-0.046 -0.065,-0.064c-1.105,-0.819 -2.488,-0.806 -3.54,-0.192c-0.659,0.114 -1.134,0.578 -1.353,1.134c-0.21,-0.107 -0.413,-0.206 -0.601,-0.286c-1.41,-0.594 -2.941,-0.438 -3.882,0.187c-0.102,0.016 -0.201,0.037 -0.298,0.057c-1.234,0.06 -2.276,0.31 -2.887,0.797c-2.632,2.108 -0.896,4.001 1.487,5.255c-0.225,0.28 -0.365,0.624 -0.334,0.998c0.203,2.463 3.239,3.437 5.742,3.301c0.769,2.021 2.848,3.775 4.46,4.882c1.893,1.296 3.92,2.744 6.074,3.799c-0.076,0.119 0,0.322 0.14,0.38c0.66,0.268 1.336,0.399 2.022,0.501c0.734,0.242 1.48,0.442 2.241,0.541c0.601,0.705 1.708,1.137 2.539,1.338c0.347,0.082 0.766,-0.052 0.939,-0.382c0,-0.002 0.001,-0.004 0.001,-0.004c0.642,0.543 1.282,1.075 1.917,1.576c3.096,2.451 6.758,4.396 10.63,5.45c-1.652,1.746 -2.577,4.215 -2.305,6.889c0.134,1.318 0.66,2.116 1.394,2.65c-0.257,1.091 0.097,2.273 1.105,3.089c1.21,0.978 3.22,1.256 4.998,0.958c1.375,1.109 3.702,1.452 5.7,0.838c0.166,0.083 0.328,0.186 0.491,0.28c0.228,0.188 0.476,0.338 0.738,0.454c3.051,2.153 1.522,5.334 2.159,8.028c-0.017,0.446 -0.036,0.895 -0.053,1.344c-0.756,-0.048 -1.513,-0.093 -2.268,-0.144c-1.627,-1.135 -3.401,-2.094 -5.167,-3.078c0.033,-0.304 -0.153,-0.626 -0.574,-0.679c-0.256,-0.034 -0.515,-0.054 -0.773,-0.081c-4.637,-2.64 -9.246,-5.421 -14.17,-7.492c-0.338,-0.646 -0.693,-1.282 -1.07,-1.903c-0.586,-0.012 -1.17,-0.024 -1.756,-0.034c-0.243,-0.415 -0.504,-0.803 -0.779,-1.173c0.295,-0.614 -0.064,-1.269 -0.627,-1.541c0.421,-1.036 0.381,-2.301 -0.584,-3.469c-0.027,-0.032 -0.054,-0.055 -0.078,-0.087c-0.521,-1.062 -1.427,-1.991 -2.769,-2.525c-0.735,-1.086 -1.877,-1.919 -3.418,-2.13c-0.245,-0.034 -0.481,-0.047 -0.713,-0.05c-0.864,-0.596 -1.918,-0.961 -3.146,-0.928c-0.461,0.016 -0.886,0.094 -1.291,0.204c-0.775,-0.12 -1.525,-0.131 -2.157,-0.023c-0.196,0.033 -0.402,0.09 -0.612,0.153c-0.43,-0.217 -0.825,-0.396 -1.152,-0.505c-0.172,-0.687 -0.481,-1.367 -0.865,-2.047c-0.47,-0.83 -1.446,-1.144 -2.292,-0.937c-0.04,-0.03 -0.084,-0.051 -0.124,-0.079c-0.549,-1.628 -1.923,-2.496 -3.672,-1.785c-1.283,-1.971 -3.66,-2.958 -5.38,-1.612c-1.384,-0.197 -2.766,-0.146 -3.794,0.168c-1.292,0.396 -2.744,1.098 -3.475,2.238c-0.823,0.087 -1.663,0.395 -2.41,0.901l-0.004,-0.056l0,0c0.218,-1.711 0.111,-3.272 -1.476,-4.602c-5.357,-4.485 -17.447,-5.92 -23.622,-2.309c-1.833,1.069 -3.079,0.817 -4.65,0.362c-3.699,-1.076 -7.333,-0.961 -11.13,-0.201c-2.706,0.542 -4.494,0.981 -3.628,3.989c0.202,0.7 0.043,1.155 -0.318,1.486c-3.145,-0.633 -6.422,-0.231 -7.979,2.943c-0.75,1.521 -1.442,4.154 -0.698,5.805c0.408,0.904 1.177,1.519 2.084,1.956c-0.207,0.387 -0.448,0.784 -0.698,1.211c-2.401,4.051 -5.162,8.311 -1.673,13.047c0.129,0.271 0.201,0.558 0.217,0.85l0,0.001l-0.001,-0.001c-1.711,1.754 -3.511,3.285 -4.712,5.565c-2.088,3.965 -0.327,5.036 3.603,5.427l0.005,0.002l0,0c0.466,0.327 0.963,0.433 1.474,0.457c0.262,0.11 0.516,0.232 0.767,0.362c-0.15,0.667 -0.077,1.4 0.26,2.071c0.429,0.855 1.164,1.552 2.049,2.081c0.142,0.545 0.391,1.048 0.853,1.445c1.823,1.568 5.865,1.473 7.81,0.221c0.736,-0.476 1.319,-1.243 1.582,-2.073c4.814,1.715 9.435,2.592 14.261,-1.484c0.734,0.37 1.676,0.343 2.48,-0.373c0.526,-0.354 1.077,-0.602 1.65,-0.751c0.078,0.531 0.281,1.064 0.654,1.57c1.376,1.868 3.679,1.538 4.948,0.206c0.055,0.211 0.117,0.415 0.199,0.604c0.587,1.401 1.929,2.513 3.387,3.005c0.574,0.707 1.289,1.291 2.05,1.617c1.842,0.796 4.012,0.303 5.354,-0.972c0.031,-0.009 0.064,-0.016 0.096,-0.027c1.707,-0.631 2.594,-1.868 2.842,-3.241c0.664,-0.283 1.259,-0.679 1.707,-1.169c0.879,-0.381 1.554,-0.81 2.011,-1.298c4.431,0.26 8.705,-0.399 12.929,-2.584c3.025,-1.563 5.808,-3.556 8.886,-5.025c3.888,-1.854 7.864,-2.484 11.909,-3.604c5.988,0.122 12.013,0.204 17.949,-0.225c0.203,0.106 0.406,0.213 0.61,0.315c3.706,1.896 7.45,3.673 10.918,5.961c-0.137,3.396 -0.272,6.795 -0.382,10.193c-0.039,1.228 0.041,2.384 -0.695,2.951c0,0.059 0.016,0.108 0.011,0.166c-0.047,0.928 -0.044,1.912 -0.031,2.922c0.147,0.292 0.263,0.618 0.305,1.013c0.286,2.697 0.022,5.44 -0.053,8.162c-0.029,1.083 -0.576,1.272 -1.26,1.253c-0.06,0.153 -0.129,0.304 -0.194,0.456c-0.972,-1.125 -1.879,-2.283 -3.078,-3.263c-1.371,-1.119 -2.963,-2.144 -4.67,-2.972c-0.454,-2.792 -1.649,-5.787 -3.725,-7.01c-1.057,-0.625 -2.086,-0.668 -2.922,-0.303c-0.209,-0.217 -0.433,-0.405 -0.675,-0.555c-0.002,-0.042 0,-0.081 -0.005,-0.124c-0.084,-0.537 -0.214,-0.99 -0.384,-1.395c-0.082,-1.785 -1.333,-3.335 -3.7,-2.315c0.443,-2.772 0.993,-5.57 -0.91,-8.446c-1.867,-2.816 -3.922,-3.662 -7.016,-3.147c-2.967,0.492 -5.84,1.408 -8.768,2.084c-3.915,0.903 -6.158,2.623 -4.435,6.53c0.76,1.727 0.045,2.577 -1.979,3.403c-4.868,1.98 -5.656,8.158 -1.665,11.56c0.745,0.634 1.573,1.097 1.779,2.097c0.938,4.507 2.689,5.68 7.369,3.693c0.417,0.471 0.932,0.896 1.462,1.267c4.514,3.154 12.075,4.307 14.863,-1.007c0.134,0.047 0.266,0.083 0.397,0.122c0.228,0.509 0.616,0.974 1.198,1.308c1.708,0.978 3.364,0.427 4.439,-0.753c1.581,0.252 3.192,0.328 4.781,0.476c2.138,0.197 4.166,0.609 6.197,1.054c0.002,0.124 0.006,0.249 0.008,0.374c0.172,0.02 0.346,0.032 0.52,0.051c0.143,0.138 0.277,0.285 0.428,0.421c0.437,0.392 1.035,0.759 1.672,1.139c0.21,1.135 0.176,2.711 0.098,4.984c-0.218,6.483 0.557,13.011 -0.949,19.444c-0.444,-0.006 -0.889,-0.012 -1.333,-0.018c-0.031,1.581 -0.157,3.174 -0.398,4.741c0.273,2.08 0.573,4.157 0.849,6.237c0.136,0.287 0.257,0.584 0.368,0.889c-0.53,-0.241 -1.074,-0.462 -1.585,-0.783c-1.589,-1 -2.417,-2.555 -3.839,-3.694c-0.859,-0.689 -1.949,-1.254 -3.162,-1.714c-0.21,-0.536 -0.482,-1.047 -0.827,-1.515c0.167,-0.444 0.321,-0.895 0.463,-1.345c0.486,-0.712 0.562,-1.503 0.368,-2.258c0.571,-0.672 0.812,-1.569 0.53,-2.675c-0.552,-2.164 -2.302,-2.336 -4.118,-2.588c-1.023,-0.753 -1.9,-1.646 -2.467,-2.832c-0.022,-0.836 0.07,-1.486 -0.7,-2.425c-1.667,-2.035 -4.145,-1.732 -6.069,-0.403c-0.376,0.262 -0.613,0.606 -0.733,0.976c-0.123,0.214 -0.221,0.433 -0.294,0.651c-1.637,-0.01 -3.257,-0.106 -4.842,-0.403c-0.787,-2.034 -3.312,-3.702 -5.665,-3.987c-0.065,-0.008 -0.128,-0.006 -0.193,-0.01c-0.198,-0.069 -0.397,-0.118 -0.596,-0.158c-2.723,-0.851 -5.378,1.003 -5.661,3.096c-0.216,-0.018 -0.432,-0.021 -0.649,-0.061c-0.298,-1.743 -1.805,-3.361 -3.479,-4.523c-0.511,-0.581 -1.248,-0.99 -2.262,-1.253c-1.045,-0.268 -1.932,0.465 -2.22,1.341c-0.678,0.276 -1.304,0.641 -1.747,0.84c-1.643,0.733 -3.633,2.575 -1.21,4.679c-1.076,2.382 -7.359,3.54 -2.222,7.383c2.098,2.455 4.4,4.624 8.267,4.595c0.381,0.279 0.763,0.559 1.144,0.838l0,0c-0.989,2.769 -3.625,1.688 -5.617,1.738c-6.325,0.162 -12.353,-1.73 -18.574,-2.305c-8.009,-0.744 -11.582,3.267 -8.55,9.676c0.659,1.395 0.278,2.173 -0.455,3.26c-1.07,1.581 -0.912,3.042 1.178,3.974l0,0l0,0c5.247,1.645 9.644,5.118 15.424,5.615l0,0c3.793,1.034 7.594,1.625 11.42,0.121l0,0c1.007,-0.069 2.014,-0.137 3.021,-0.206l0,0c1.878,0.447 3.539,-0.158 5.185,-0.833c0.411,-0.991 0.913,-1.816 1.518,-2.476c3.957,2.015 8.564,2.206 12.833,1.054c4.239,-1.142 6.718,-3.868 9.724,-6.323c4.504,-0.99 9.131,-2.759 12.721,-3.635c0.31,0.169 0.633,0.323 0.975,0.455c1.022,0.706 1.935,1.485 2.811,2.344c-0.191,2.663 -0.092,5.347 -0.022,8.153c0.119,5 -0.746,9.7 -1.344,14.631c-0.539,4.449 -0.143,8.923 -0.596,13.383c-0.468,4.594 -1.257,8.945 -0.475,13.546c0.074,0.421 0.28,0.731 0.553,0.945c-1.897,4.718 1.003,11.457 0.932,16.22c-0.137,9.527 -2.523,19.74 -0.299,29.159c0.015,0.051 0.033,0.091 0.049,0.136c-2.468,8.615 1.274,18.329 -0.473,27.151c-1.788,9.014 -2.677,18.701 -1.375,27.871c0.076,0.544 0.33,0.9 0.667,1.104c-0.12,0.57 -0.191,1.205 -0.266,1.959c-0.412,4.22 -0.112,8.6 -0.133,12.837c-0.042,8.562 -0.353,17.112 -0.455,25.669c-0.007,0.341 0.092,0.604 0.225,0.831c-2.041,6.861 -1.136,15.508 -1.266,22.451c-0.145,7.792 -0.348,15.604 1.153,23.291c0.201,1.024 1.113,1.277 1.882,1.005c1.279,0.841 3.667,0.89 8.125,0.957c1.719,0.026 3.437,-0.012 5.154,-0.043c2.433,-0.047 3.933,-1.032 3.895,-3.304c-0.165,-10.453 0.352,-20.919 -0.713,-31.355c0.731,-6.085 0.169,-12.165 -0.075,-18.248c-0.013,-2.74 -0.026,-5.479 -0.039,-8.217c-0.006,-20.984 0.303,-41.97 -0.887,-62.94l0,0l0,0c-0.03,-4.572 -0.057,-9.144 -0.087,-13.718c-0.031,-1.814 -0.064,-3.631 -0.096,-5.445l0,0l0,0c-0.007,-3.354 -0.011,-6.705 -0.018,-10.058c-0.217,-9.767 0.243,-19.543 -0.134,-29.307c0.034,-0.43 0.011,-0.87 -0.069,-1.322c-0.078,-1.705 -0.193,-3.41 -0.336,-5.113c0.004,-0.987 -0.071,-1.975 -0.265,-2.969c0.39,-5.646 0.326,-11.292 -0.136,-16.934l0,-0.002l0,0c-0.005,-0.907 -0.011,-1.814 -0.016,-2.719c0.856,-2.882 0.58,-6.854 0.542,-9.511c0.165,-0.119 0.336,-0.223 0.508,-0.313c-0.024,-1.198 -0.053,-2.396 -0.083,-3.594c-0.086,-0.022 -0.172,-0.06 -0.258,-0.086c0.412,-6.401 1.045,-13.081 0.319,-19.437c0.963,-1.188 1.97,-2.254 3.031,-3.198c5.771,-1.361 12.15,-0.232 18.222,-0.24c-0.729,2.879 2.153,5.723 5.381,5.917c1.155,0.72 2.566,0.965 4.045,0.416c4.381,2.968 10.255,4.42 15.321,3.356c1.079,1.093 2.604,1.717 4.396,1.431c1.603,-0.255 2.869,-1.217 3.902,-2.533c0.307,0.342 0.62,0.674 0.91,1.042c0.657,0.826 2.075,0.5 2.543,-0.326c0.448,-0.791 0.896,-1.582 1.345,-2.372c2.06,0.566 4.406,-0.348 4.899,-2.866c0.03,-0.161 0.04,-0.312 0.053,-0.466c1.795,-0.067 3.161,-0.916 3.787,-2.692c0.651,-0.339 1.267,-0.821 1.886,-1.466c0.704,-0.731 0.478,-1.802 -0.14,-2.388c2.708,-2.023 2.392,-4.182 -0.861,-8.168c-0.414,-0.507 -0.869,-0.993 -1.292,-1.485c1.431,-1.198 2.438,-3.095 2.15,-4.669c-0.233,-1.291 -0.991,-1.894 -1.919,-2.038c-0.702,-0.688 -1.634,-1.172 -2.593,-1.333c-0.082,-0.029 -0.148,-0.068 -0.236,-0.092c-1.484,-0.405 -2.587,0.139 -3.245,1.028c-0.473,0.241 -0.833,0.6 -0.949,1.172c-1.139,-0.543 -2.702,-0.565 -4.057,-0.047c-0.793,-2.942 -3.538,-4.217 -7.523,-4.351c-2.377,-0.079 -4.636,-0.055 -5.679,-1.998c-0.088,-0.444 -0.237,-0.873 -0.445,-1.278c-0.008,-0.04 -0.02,-0.075 -0.026,-0.117c-0.091,-0.492 -0.438,-0.962 -0.967,-1.256c-0.958,-0.964 -2.292,-1.639 -3.783,-1.82c-1.299,-0.159 -2.562,0.077 -3.649,0.603c-0.404,-0.207 -0.873,-0.281 -1.31,-0.127c-1.283,0.452 -1.8,1.345 -1.967,2.399c-1.396,0.252 -2.771,0.557 -4.096,0.979c-2.219,0.708 -4.361,0.986 -6.413,0.807c-0.739,-0.602 -2.04,-0.755 -3.224,-0.677c-0.015,-0.004 -0.031,-0.01 -0.047,-0.015c-0.018,0.008 -0.033,0.015 -0.051,0.023c-0.74,0.058 -1.422,0.198 -1.87,0.377c-1.329,0.525 -2.501,1.424 -3.246,2.655c-0.167,0.278 -0.295,0.565 -0.405,0.854c-0.936,0.622 -1.649,1.51 -1.777,2.718c-0.074,0.698 0.064,1.361 0.355,1.939c-0.123,0.338 -0.232,0.683 -0.363,1.019c0.084,0.568 0.243,1.137 0.494,1.695c0.534,0.421 1.041,0.87 1.552,1.314c-0.585,0.678 -1.116,1.405 -1.552,2.179c-0.605,1.071 -0.88,2.843 -1.462,4.157c-3.261,1.139 -6.203,2.759 -8.577,5.163c0.005,-4.051 -1.322,-8.752 -1.585,-11.915c-0.007,-0.085 -0.011,-0.171 -0.017,-0.256c0.162,-0.532 0.435,-1.031 0.907,-1.479c-0.478,-0.554 -0.772,-1.316 -0.74,-2.305c0.095,-2.856 0.494,-5.545 1.196,-8.217c-0.26,0.1 -0.521,0.198 -0.78,0.311c-1.021,-2.502 -0.367,-4.988 -0.646,-7.326c0.02,-1.316 0.034,-2.628 0.021,-3.932c-0.026,-3.466 0.01,-6.99 0.036,-10.53c0.071,-0.28 0.141,-0.562 0.218,-0.861c0.094,-0.354 0.212,-0.758 0.357,-1.168c0.107,-0.065 0.207,-0.146 0.316,-0.203l0,-0.577c0.444,-0.961 1.085,-1.817 2.035,-2.031c0.36,-0.065 0.749,-0.038 1.225,0.025c0.724,0.093 1.14,-0.521 1.182,-1.156c6.056,-0.063 13.377,-0.476 18.42,-3.438c4.008,1.402 9.895,0.411 10.296,-4.267c0,-0.002 0,-0.002 0,-0.002c0.082,-0.142 0.165,-0.283 0.236,-0.428c0.079,0 0.156,-0.012 0.234,-0.004c5.779,0.408 5.287,-2.603 4.698,-5.566c0.645,-0.305 1.181,-0.935 1.245,-1.668c0.25,-2.819 -1.252,-4.361 -3.34,-5.188c-0.756,-1.072 -2.021,-1.691 -3.447,-1.17c-0.188,-0.084 -0.398,-0.164 -0.633,-0.226c-1.896,-0.501 -1.98,0.928 -3.445,0.913c-0.382,-0.003 -0.85,0.166 -1.17,0.449c-0.547,-0.153 -1.006,-0.256 -1.306,-0.26c-0.446,0 -0.841,0.025 -1.203,0.083c-0.247,-0.129 -0.512,-0.203 -0.786,-0.198c-1.007,-1.675 -2.993,-1.88 -4.566,-0.717c-0.065,-0.042 -0.13,-0.081 -0.201,-0.123c-5.869,-3.331 -10.167,0.266 -12.766,5.223c-0.719,0.513 -0.985,1.231 -0.929,1.962c-0.074,0.193 -0.141,0.381 -0.189,0.562c-0.062,0.232 -0.058,0.476 -0.013,0.708c-0.793,0.503 -1.409,1.276 -1.574,2.321c-0.171,1.088 0.626,2.058 1.783,1.784c0.153,-0.036 0.292,-0.079 0.431,-0.123c-1.288,1.521 -2.044,3.289 -2.989,5.038c-0.626,0.357 -1.237,0.737 -1.825,1.152c-0.866,0.61 -1.615,1.279 -2.286,1.989c-0.036,-4.166 -0.164,-8.333 -0.525,-12.458c0.209,-0.039 0.424,-0.081 0.641,-0.12c0.01,-0.59 0.017,-1.181 0.026,-1.771c-0.345,-0.103 -0.635,-0.252 -0.898,-0.421c-0.297,-2.688 -0.702,-5.346 -1.253,-7.972c-0.022,-0.616 -0.046,-1.231 -0.046,-1.844c0.435,0.057 0.867,0.086 1.296,0.1c0.08,0.268 0.19,0.531 0.352,0.783c2.106,3.269 7.626,1.314 8.166,-2.126c0.926,-0.289 1.719,-0.718 2.338,-1.312c0.191,-0.051 0.373,-0.12 0.53,-0.236c0.571,-0.427 1.101,-0.896 1.52,-1.436c1.597,-1.086 2.77,-2.981 2.602,-4.713c-0.12,-1.231 -0.813,-2.254 -1.853,-2.789c0.231,-0.885 0.465,-1.766 0.675,-2.651l0,0c0.832,-0.008 1.666,-0.012 2.498,-0.017c0.234,0.217 0.536,0.383 0.927,0.454c0.737,0.134 1.697,0.464 2.603,0.559c0.361,0.895 1.115,1.664 2.176,2.018c0.368,0.122 0.738,0.187 1.098,0.205c0.481,1.211 1.629,2.029 2.973,2.438c1.123,0.535 2.252,1.044 3.497,1.159c0.729,0.064 1.471,-0.451 1.826,-1.049c0.143,-0.238 0.261,-0.488 0.369,-0.74c0.389,-0.175 0.73,-0.404 1.019,-0.688c0.222,0.042 0.404,-0.004 0.569,-0.087c0.535,0.105 1.067,0.229 1.598,0.363c1.429,0.582 2.88,1.089 4.384,1.502c0.19,0.05 0.355,0.05 0.509,0.021c1.783,0.721 3.495,1.603 5.277,2.331c0.06,0.023 0.112,0.018 0.168,0.029c0.566,0.299 1.142,0.58 1.731,0.816c3.744,1.5 7.843,1.904 11.875,2.007c0.026,0.074 0.076,0.137 0.183,0.15c7.277,1.031 16.845,2.162 23.951,-0.056c0.395,-0.125 0.448,-0.759 0,-0.854c-1.861,-0.397 -3.763,-0.459 -5.673,-0.42c2.499,-0.981 4.872,-2.229 7.202,-3.674c0.047,-0.029 0.1,-0.063 0.149,-0.091c3.579,0.842 7.137,2.431 10.808,0.099c0,0 -0.002,-0.002 -0.002,-0.004c0.002,0.002 0.002,0.004 0.002,0.004c2.562,-0.555 5.202,-0.959 6.971,-2.97c3.758,-3.568 3.955,-6.593 0.38,-9.769zm-142.87,-3.401c-0.093,-0.008 -0.172,0.016 -0.242,0.051c-0.59,-0.153 -1.191,-0.272 -1.791,-0.347c-2.26,-1.062 -4.422,-2.665 -6.413,-3.894c-1.408,-0.869 -2.869,-1.758 -3.987,-2.999c-0.543,-0.604 -0.915,-1.267 -1.223,-1.955c0.149,-0.043 0.297,-0.091 0.432,-0.145c0.174,-0.069 0.325,-0.155 0.466,-0.252c0.069,0.109 0.144,0.216 0.228,0.302c1.174,1.196 2.784,1.108 4.359,0.923c0.301,0.012 0.605,0.019 0.917,0.014c2.561,2.994 5.414,5.926 8.31,8.556c-0.354,-0.126 -0.711,-0.23 -1.056,-0.254zm8.238,3.929c0.042,0.102 0.089,0.197 0.131,0.293c-1.538,-0.938 -3.023,-2.04 -4.456,-3.357c-0.036,-0.241 -0.182,-0.453 -0.444,-0.531c-0.054,-0.017 -0.103,-0.018 -0.155,-0.028c-2.882,-2.773 -5.498,-5.88 -8.253,-8.823c0.855,-0.152 1.667,-0.4 2.384,-0.74c0.135,0.095 0.272,0.188 0.42,0.267c0.221,1.412 1.916,2.146 3.855,2.404c1.088,3.961 3.947,7.306 6.776,10.259c-0.143,-0.029 -0.325,0.095 -0.258,0.256zm12.016,1.993c-0.086,0.271 -0.104,0.561 -0.063,0.844c-1.061,0.195 -2.045,0.596 -2.917,1.159c-1.858,-0.498 -3.646,-1.1 -5.371,-1.855c-0.01,-0.053 -0.015,-0.108 -0.039,-0.154c-0.28,-0.574 -1.06,-0.816 -1.562,-1.175c-0.149,-0.109 -0.308,-0.197 -0.461,-0.292c-0.001,-0.039 0.004,-0.079 -0.019,-0.12c-1.258,-2.074 -2.692,-3.967 -4.078,-5.957c-1.038,-1.495 -1.614,-2.985 -2.196,-4.558c1.699,0.321 3.547,0.313 5.065,-0.454c0.028,-0.016 0.054,-0.033 0.08,-0.05c0.02,0.075 0.057,0.171 0.103,0.282c-0.107,0.357 -0.223,0.716 -0.376,1.084c-1.197,2.875 0.829,3.844 3.44,3.912c0.24,0.26 0.556,0.446 0.926,0.535c-0.003,0.032 -0.009,0.056 -0.014,0.087c-0.101,1.054 0.937,1.789 1.859,1.86c0.672,0.051 1.304,-0.092 1.821,-0.391c0.245,0.83 0.878,1.462 1.689,1.874c0.258,0.315 0.571,0.557 0.909,0.735c0.424,0.27 0.91,0.476 1.419,0.61c0.072,0.256 0.168,0.504 0.301,0.729c-0.2,0.436 -0.379,0.872 -0.516,1.295zm-35.644,29.523c-3.359,1.909 -6.493,4.272 -10.267,5.354c-2.276,0.653 -4.646,0.796 -7.021,0.775c0.387,-1.68 -0.97,-3.893 -4.03,-6.831c0.312,-1.859 2.601,-1.202 3.653,-2.112c6.7,1.658 14.206,3.176 20.511,1.302c-0.977,0.482 -1.929,0.993 -2.846,1.512zm3.059,-3.626c-0.097,0.025 -0.159,0.079 -0.198,0.142c-3.931,0.4 -7.793,0.654 -11.778,0.291c1.986,-2.191 4.323,-2.659 7.305,-2.842c1.846,1.125 4.073,1.674 6.471,1.902c-0.599,0.17 -1.198,0.344 -1.8,0.507zm12.718,-2.707c-3.354,-0.015 -6.736,0.097 -10.086,-0.062c-1.371,-0.065 -2.498,-0.28 -3.478,-0.608c1.329,-0.951 1.42,-2.608 -0.637,-5.014c0.696,0.018 1.393,0.062 2.087,0.118c0.817,0.992 1.996,1.726 3.277,2.258c2.575,1.078 4.869,1.113 7.011,-0.873c0.268,-0.248 0.47,-0.528 0.64,-0.814c0.595,-0.079 1.187,-0.189 1.774,-0.338c1.053,0.243 2.106,0.522 3.156,0.876c3.491,1.172 6.816,2.848 10.101,4.575c-4.612,-0.169 -9.244,-0.09 -13.845,-0.118zm17.645,34.698c0.047,-0.035 0.095,-0.067 0.139,-0.103c0.731,0.048 1.504,-0.306 1.725,-1.128c0.069,-0.256 0.136,-0.512 0.204,-0.77c0.67,0.36 1.336,0.77 1.993,1.253c0.756,0.555 1.412,1.181 2.038,1.827c-2.03,-0.409 -4.08,-0.705 -6.099,-1.079zm-13.021,49.567c-5.181,3.109 -10.581,3.163 -16.219,1.667c0.632,-0.487 1.357,-0.818 2.206,-0.952c0.596,0.02 1.198,0.014 1.802,-0.011c0.531,0.062 1.091,0.176 1.694,0.359c0.93,0.28 2.056,0.274 2.625,-0.78c1.836,-0.763 2.381,-2.108 2.019,-3.752c-0.022,-0.111 -0.027,-0.208 -0.038,-0.309c2.378,1.535 5.448,1.734 8.722,1.306c-0.908,0.946 -1.809,1.873 -2.811,2.472zm9.885,-6.344c-0.408,0.133 -0.818,0.261 -1.231,0.385c-0.012,-0.001 -0.019,-0.011 -0.032,-0.011c-0.979,-0.06 -1.841,0.224 -2.643,0.695c-1.537,0.323 -3.095,0.516 -4.653,0.477c-2.04,-0.052 -3.689,-0.646 -5.285,-1.408c0.011,-0.005 0.022,-0.01 0.033,-0.016l0,0c1.781,-2.104 4.057,-2.557 6.61,-1.554c0.14,-0.102 0.282,-0.208 0.419,-0.311c0.012,-0.008 0.023,-0.012 0.036,-0.021c0.222,-0.467 0.472,-0.907 0.742,-1.332c0.363,0.601 0.946,1.111 1.792,1.412c0.787,0.279 1.491,0.318 2.11,0.191c0.616,0.344 1.357,0.511 2.212,0.399c1.417,-0.189 2.633,-1.086 3.374,-2.278c0.757,0.559 1.51,1.011 2.339,1.459c-1.897,0.41 -3.781,1.244 -5.823,1.913zm60.595,-2.797c1.884,0.559 3.771,1.125 5.661,1.638c0.816,1.965 2.313,3.552 4.551,3.645c0.092,0.433 0.234,0.85 0.417,1.247c-1.885,0.238 -3.818,0.166 -5.735,-0.246c-2.34,-0.502 -4.436,-1.517 -6.524,-2.559c1.252,-1.114 1.702,-2.451 1.63,-3.725zm-21.26,-12.381c0.311,-0.41 0.645,-0.798 0.995,-1.169c1.223,0.301 2.44,0.616 3.643,0.976l0,0c0.373,0.886 0.805,1.702 1.291,2.451c-2.678,0.364 -5.307,0.845 -7.793,1.552c0.641,-1.307 1.105,-2.811 1.864,-3.81zm6.076,4.923c0.223,-0.018 0.449,-0.034 0.673,-0.052c0.06,1.169 0.635,2.313 1.479,3.139c0.021,0.102 0.056,0.201 0.078,0.299c-5.553,-0.084 -11.141,-0.151 -16.297,1.318c3.848,-2.761 8.395,-4.22 14.067,-4.704zm-10.816,-55.945c0.008,-0.008 0.019,-0.015 0.028,-0.022c-0.085,0.782 0.021,1.508 0.332,2.167c-1.044,0.388 -2.064,0.812 -3.062,1.269c0.787,-1.194 1.551,-2.422 2.702,-3.414zm0.703,4.51c0.439,-0.169 0.883,-0.325 1.324,-0.481c0.604,0.424 1.34,0.807 2.222,1.146l0,0l0,0c0.594,0.241 1.176,0.421 1.755,0.579c-1.105,0.26 -2.24,0.463 -3.441,0.548c-2.171,0.154 -4.417,0.045 -6.546,0.346c1.513,-0.851 3.127,-1.541 4.686,-2.138zm69.771,-34.805c-0.002,0.008 -0.002,0.018 -0.002,0.028c-2.009,0.586 -4.057,0.929 -6.114,1.306c1.903,-1.451 3.688,-3.053 5.271,-4.832c0.7,0.639 1.032,1.722 0.845,3.498zm-29.142,7.221c-2.405,-0.693 -4.688,-1.702 -6.979,-2.667c-1.142,-0.552 -2.312,-1.053 -3.488,-1.509c-0.143,-0.055 -0.287,-0.104 -0.435,-0.158c2.08,0.311 4.076,-0.474 5.97,-2.718c0.883,-1.046 1.872,-1.821 3.421,-0.798c4.248,2.806 8.361,1.638 12.461,0.155c-0.34,0.411 -0.696,0.812 -1.088,1.198c-2.694,2.671 -6.105,4.905 -9.685,6.187c-0.147,0.053 -0.19,0.188 -0.177,0.31zm8.256,1.054c-1.482,-0.052 -2.964,-0.132 -4.439,-0.287c-1.12,-0.119 -2.199,-0.339 -3.257,-0.618c4.406,-1.418 9.611,-4.365 12.886,-8.4c2.251,0.067 4.658,0.432 5.352,-2.541l0,0c1.507,-0.161 3.024,-0.273 4.521,-0.496c1.597,-0.234 2.996,-0.318 4.03,0.024c-5.278,5.531 -11.292,9.803 -19.014,12.253c-0.039,0.012 -0.053,0.043 -0.079,0.065zm20.808,-1.829c0.038,-0.093 0.085,-0.187 0.116,-0.286c0.087,-0.255 -0.252,-0.545 -0.481,-0.369c-3.158,2.38 -8.501,2.172 -12.277,2.38c-2.229,0.125 -4.472,0.183 -6.71,0.149c4.08,-1.358 8.065,-3.303 11.665,-5.784c0.104,0.135 0.252,0.238 0.443,0.253c2.301,0.185 4.879,-0.075 7.398,-0.729c0.252,1.237 0.945,2.321 2.416,2.901c-0.847,0.511 -1.703,1.007 -2.57,1.485z" id="path3"/>
   <g id="svg_1">
    <path fill="#CDCCCC" d="m173.419,476.535c-0.026,-0.004 -0.054,-0.007 -0.085,-0.013c0.028,0.006 0.054,0.013 0.075,0.02l0.01,-0.007zm40.887,8.102l1.231,0.34l-1.875,0.128c0.775,0.406 2.079,0.066 3.041,0.073c1.083,0.286 -2.492,0.36 -3.683,0.989c-1.068,0.305 -3.402,-0.088 -3.013,-0.305c-0.068,0.682 -3.462,0.364 -4.763,0.704c-3.119,0.024 -2.052,-0.883 -4.834,-0.619l0.998,0.371c-2.459,0.132 -3.618,0.191 -6.377,-0.211c-0.296,-0.493 1.272,0.211 1.923,0.006l-1.279,-0.56c0.604,0.022 1.801,-0.304 1.729,0.154c0.034,-0.223 0.993,-0.527 -0.764,-0.452c0,0 0.333,-0.069 0.666,-0.132c0.329,-0.069 0.662,-0.125 0.662,-0.125c-0.071,-0.063 -0.169,-0.113 -0.282,-0.154c0.387,0.009 0.782,-0.02 1.175,-0.025c0.49,0.16 1.387,0.18 2.137,0.527c0.054,0.139 -0.75,0.191 -1.231,0.239c1.188,0.227 2.23,0.129 2.905,0.031c-1.844,-0.098 -0.854,-0.317 -1.256,-0.706c1.135,-0.167 2.978,-0.07 3.663,-0.17c1.567,0.163 2.849,0.6 1.803,0.945c1.006,-0.183 2.055,0.003 3.123,-0.402c-1.985,0.442 -0.044,-0.961 -2.563,-0.364c-0.748,-0.632 2.127,-0.39 3.434,-0.138c-0.679,0.104 -0.106,0.313 -0.273,0.492c1.954,-0.213 1.037,-0.678 -0.358,-0.832l2.274,-0.35c-0.074,-0.002 -0.15,-0.006 -0.223,-0.012c0.779,-0.047 1.546,-0.098 2.303,-0.145c0.288,0.493 0.344,0.826 -0.293,0.703zm10.496,-1.404l0.163,0.417c3.93,0.167 6.729,-0.92 10.791,-0.706c-0.565,0.383 -2.099,0.166 -1.895,0.354c2.441,0.075 2.114,-0.98 4.508,-0.446c-3.434,0.142 2.137,0.208 -0.957,0.591c1.076,-0.166 2.17,-0.227 3.251,-0.235c0.54,-0.007 1.077,0.007 1.605,0.025c0.279,0.012 0.56,0.021 0.835,0.034c0.258,0.024 0.516,0.05 0.77,0.072c1.013,0.104 1.989,0.213 2.913,0.364c0.92,0.132 1.746,0.242 2.453,0.308c-0.685,-0.352 1.206,-0.261 1.301,-0.345c0.732,0.122 0.455,0.352 -0.146,0.304c1.427,0.399 1.634,0.78 1.354,1.087l-2.975,-0.298c0.951,0.22 1.441,0.565 2.215,0.716c0,0 0,0 0,0.004c0,-0.004 0,-0.004 0.006,-0.004c0.34,0.069 0.726,0.101 1.241,0.062c0.524,-0.074 0.43,-0.153 0.458,-0.352c0.978,-0.169 2.202,-0.349 3.729,-0.641l-0.092,0.075c0,0 0.785,0.025 1.571,0.069c0.782,0.016 1.559,-0.006 1.559,-0.006l-0.387,0.198c0,0 1.835,-0.302 1.822,-0.343c-0.031,0.455 0.56,0.185 0.465,0.502c1.19,0.805 4.074,-0.656 6.538,-0.829l-0.34,0.286c1.247,-0.695 4.672,-1.052 6.857,-1.499l-0.057,0.104c-1.269,0.507 -1.461,0.824 -0.804,0.878c-0.431,0.206 -1.128,0.445 -1.521,0.646c-0.731,0.147 -2.739,0.794 -3.01,0.411c1.527,-0.352 1.363,-0.377 0.613,-0.468c-1.398,0.726 -4.272,0.999 -4.04,1.605c-2.143,0.313 -0.673,-0.035 -2.225,-0.057c-0.223,-0.167 0.292,-0.396 0.805,-0.606c0,0 -0.39,0.066 -0.965,0.167c-0.565,0.078 -1.354,0.128 -2.13,0.21c-0.776,0.095 -1.562,0.053 -2.146,0.072c-0.588,0.019 -0.98,0.024 -0.98,0.024c-0.317,0.487 4.062,0.534 1.882,1.101c-0.276,0.072 -0.398,0.298 -0.729,0.461c-0.327,0.164 -0.887,0.321 -1.973,0.12c-0.023,-0.069 0.166,-0.101 0.386,-0.116c-1.002,0.021 -1.156,-0.167 -2.225,-0.349c-0.282,-0.494 1.354,-0.239 2.083,-0.513c-0.688,0.044 -1.479,0.186 -2.228,0.069l0.189,-0.154l-2.263,-0.135c-0.971,0.258 1.706,0.229 1.801,0.521l-1.479,0.132c-1.681,-0.094 -6.017,-0.506 -7.377,-1.244c-1.865,-0.358 -1.074,0.255 -1.558,0.516c-0.293,0.082 -0.578,0.12 -0.854,0.12c-0.142,-0.004 -0.28,-0.014 -0.418,-0.026l-0.355,-0.044c-0.549,-0.062 -1.1,-0.142 -1.665,-0.065c0.035,0.364 -1.304,0.349 -1.354,0.795l-1.848,-0.098c-1.04,0.679 2.218,0.116 2.705,0.415c0.98,0.6 -1.363,0.2 -0.729,0.556c1.421,-0.068 1.527,-0.377 2.216,-0.478c0.203,-0.019 0.383,-0.019 0.536,0.003c0.076,0.003 0.151,0.016 0.215,0.021c0.031,0.007 0.062,0.02 0.091,0.025c0.088,0 -0.12,-0.002 -0.098,-0.002l0.004,0.002l0.005,0l0.014,0.003l0.021,0.007l0.038,0.013c0.207,0.072 0.305,0.17 0.286,0.285c-0.07,-0.012 -0.139,-0.021 -0.205,-0.024l-0.094,-0.019l-0.044,-0.006l-0.025,-0.004l-0.01,0c0.048,0 -0.109,-0.003 0.107,0.004l-0.013,-0.004c-0.116,-0.006 -0.223,-0.012 -0.32,-0.016c-0.191,-0.006 -0.345,0.004 -0.472,0.02c-0.254,0.03 -0.396,0.097 -0.521,0.166c-0.261,0.139 -0.462,0.302 -1.389,0.251l-0.06,-0.139c-0.05,0.456 -2.692,0.177 -3.686,0.399c-2.02,-0.521 1.644,-0.69 1.578,-0.829l-2.47,0.142c1.078,-0.305 -0.01,-0.588 1.437,-0.881c-1.505,0.148 -1.682,-0.271 -3.123,0.023c1.637,-0.689 -2.026,-0.516 -2.202,-0.94c1.733,-0.182 4.926,0.538 4.471,0.601c-0.061,-0.142 2.016,-0.072 2.814,0.107l1.181,-0.629c-1.335,-0.025 -3.151,0.251 -2.645,-0.276l-1.816,0.271c1.873,-0.824 1.781,-0.795 3.478,-1.15c-3.487,-0.678 -6.217,0.726 -9.082,0.116l0.449,-0.065c-5.695,0.166 -7.033,-0.679 -8.249,-1.641c0.865,-0.055 1.694,-0.115 2.439,-0.168zm67.885,-1.925l-0.647,0.166c0.309,0.39 1.991,0.198 3.629,0.44c0.509,-0.107 1.599,-0.135 2.195,0.226l-0.295,0.211c0.242,0.285 1.841,0.581 3.634,0.941c-0.241,0.032 -0.499,0.069 -0.781,0.123c-0.493,0.091 -1.059,0.133 -1.712,0.066c0.367,0.028 0.798,0.119 1.354,0.36c0,0 -0.829,0.079 -1.665,0.161c-0.819,0.078 -1.652,0.169 -1.652,0.169c1.552,0.412 1.944,-0.386 3.864,0.139c-0.229,0.512 -0.17,0.789 -2.306,0.794c-1.778,-0.434 0.163,-0.291 -0.717,-0.688c-1.477,0.399 -1.665,-0.839 -3.224,-0.346c-1.73,-0.182 -1.146,-0.493 -1.664,-0.772c1.75,0.183 -0.755,-0.644 1.461,-0.478c-1.76,-0.537 -1.373,0.367 -2.85,0.025l-0.18,-0.588c-1.354,-0.311 -4.388,-0.748 -6.248,-0.258c1.593,0.305 -0.883,0.39 -0.587,0.717c0.217,-0.5 2.384,-0.223 2.349,0.003c-0.615,0.095 -1.658,0.138 -2.679,0.258c-0.516,0.069 -1.015,0.122 -1.427,0.163c-0.207,0.016 -0.392,0.031 -0.54,0.041c-0.075,0.006 -0.146,0.006 -0.204,0.009l-0.061,0c-0.012,0 0.082,-0.012 0.045,-0.006l-0.035,0c-0.025,0 -0.047,0 -0.069,0.003l2.395,0.042c-0.405,0.185 -1.349,0.489 -2.196,0.76l-0.04,0.013l-0.01,0.006l-0.007,0.007l-0.002,0l0,0.003c-0.017,0 0.146,-0.025 0.074,-0.019l-0.019,0.016l-0.072,0.021l-0.147,0.06c-0.095,0.038 -0.188,0.075 -0.276,0.116c-0.18,0.069 -0.346,0.142 -0.487,0.198c-0.276,0.115 -0.461,0.197 -0.478,0.223c-0.93,-0.094 -2.268,0.305 -2.799,0.101l1.589,-0.764c0,0 0.167,0.05 0.336,0.107c0.167,0.06 0.337,0.116 0.337,0.116l0.88,-0.616c-1.116,0.004 -3.494,0.236 -4.09,-0.021c1.3,-0.289 2.921,-0.707 4.828,-1.216c0.951,-0.21 1.997,-0.48 3.101,-0.713c1.109,-0.211 2.317,-0.487 3.581,-0.657c0,0 -0.084,0.089 -0.317,0.113c0.641,0.021 1.137,0.028 1.552,0.041c0.412,0.022 0.745,0.044 1.059,0.065c0.634,0.037 1.208,0.024 2.22,0.119zm13.021,3.027c-0.346,-0.116 -0.761,-0.223 -1.2,-0.339c0.411,0.39 0.832,0.826 1.721,1.166c1.05,-0.136 1.967,0.068 2.91,0.352c0.938,0.299 1.9,0.679 3.003,0.887c0,0 0.32,-0.023 0.641,-0.042c0.317,-0.024 0.632,-0.047 0.632,-0.047c-0.217,-0.176 -0.381,-0.33 -0.424,-0.38c-2.297,0.016 -2.702,-0.398 -3.242,-0.792c-0.535,-0.393 -1.201,-0.748 -4.041,-0.805zm-130.119,-1.426c1.697,0.446 1.731,-0.801 3.214,0.176c0.308,-0.283 -0.085,-0.493 -0.701,-0.656c0.22,-0.038 0.358,-0.092 0.396,-0.166c0.631,0.125 1.228,0.251 1.781,0.352c0.493,0.132 0.93,0.26 0.773,0.373c-0.223,0.51 -2.347,0.164 -3.054,0.525c-0.549,0.065 -3.012,-0.315 -2.409,-0.604zm-8.149,-2.28c0.357,0.021 0.71,0.06 1.056,0.078l-0.387,0.374c-0.436,-0.113 -0.555,-0.27 -0.669,-0.452zm-3.471,-0.157c0.389,-0.004 0.763,0.025 1.134,0.031c-0.066,0.01 -0.088,0.01 -0.163,0.016c-0.528,0.006 -0.817,-0.026 -0.971,-0.047zm30.767,4.036c0.076,0.035 0.225,0.061 0.399,0.082l-0.399,-0.082zm-1.176,0.223c0.543,0.025 1.099,0.054 1.652,0.082c-0.259,0.188 0.075,0.458 -1.483,0.182c0.125,-0.107 0.028,-0.191 -0.169,-0.264zm-1.889,-2.026c0.854,0.201 1.584,-0.031 2.026,0.305c0.053,0.173 -4.499,0.965 -5.938,1.103c-1.693,-0.197 -3.472,-0.527 -4.479,-0.839l0.53,0.013c3.946,0.71 5.133,0.672 4.741,0.276c-0.387,-0.396 -2.318,-1.187 -4.578,-2.133c2.602,0.531 5.304,1.14 8.008,1.558l-0.31,-0.283zm-173.977,5.388c-0.073,0.069 -0.176,0.119 -0.305,0.167c0.312,-0.035 0.226,-0.091 0.305,-0.167zm135.384,-5.683l0.731,-0.249l-0.371,0.025c0.084,-0.553 1.788,-1.118 3.861,-1.244c-0.142,-0.016 -1.226,0.022 -2.793,0.082l0.502,-0.227c2.322,-0.103 4.505,-0.197 6.544,-0.289c-0.735,0.173 -1.493,0.324 -2.406,0.361c2.195,0.336 5.509,-0.738 6.568,0.051c-1.627,0.305 -2.884,0.49 -4.097,0.578c-1.247,0.135 -2.526,0.217 -4.266,0.492c-1.841,-0.392 2.224,-0.54 2.309,-0.866l-1.998,0.031c0.295,0.305 -3.845,0.557 -2.752,1.196c4.357,-0.112 8.756,-0.597 12.328,-0.41c0,0 -0.227,0.223 -0.566,0.574c-0.336,0.346 -0.754,0.819 -1.153,1.291c-0.402,0.475 -0.775,0.949 -1.052,1.301c-0.311,0.371 -0.521,0.618 -0.521,0.618c0.003,0.052 -0.059,0.136 -0.233,0.271c0.468,-0.03 0.849,-0.081 1.078,-0.116c0.255,-0.034 0.446,-0.101 0.594,-0.163c0.299,-0.142 0.409,-0.326 0.449,-0.518c0.079,-0.378 -0.148,-0.773 0.254,-0.839c0.717,-0.061 1.423,-0.327 2.068,-0.044l-0.375,0.19c1.086,-0.062 1.269,-0.175 1.419,-0.271c0.148,-0.093 0.265,-0.159 1.241,-0.047c1.618,-0.197 -1.389,-0.19 -0.352,-0.417c1.05,0.135 1.401,-0.069 1.9,-0.229c0.5,-0.154 1.15,-0.276 2.79,0.197c-0.182,0.154 0.28,0.642 -1.664,0.469c0,0 0.458,0.151 0.92,0.305c0.458,0.167 0.917,0.32 0.917,0.32c-2.255,-0.116 -0.892,-0.006 -3.161,-0.207c-1.096,0.402 -0.88,0.772 -1.854,1.15c0.839,-0.066 0.707,-0.52 1.967,-0.35c1.505,0.305 -0.267,0.235 -0.437,0.39c2.08,-0.393 2.171,0.804 4.059,0.478c-0.267,-0.66 0.088,-0.584 -1.172,-1.153c1.326,-0.027 2.941,0.663 2.727,1.166l0.346,-0.439c0.283,0.163 1.338,0.352 1.386,0.492l0.484,-0.163c-0.911,-0.54 -1.659,-0.848 -3.35,-0.927c0.729,-0.21 -0.797,-0.961 1.386,-0.726c0.939,0.154 0.072,0.292 0.11,0.439c4.944,0.45 4.772,1.675 8.78,2.052c-1.037,0.06 -3.393,-0.679 -5.303,-0.653c1.04,0.616 2.45,0.292 3.543,0.54c-1.018,0.048 -1.212,0.192 -0.091,0.585l0.528,-0.207c0.7,0.119 1.967,0.298 2.038,0.445c0.051,-0.104 -0.248,-0.229 -0.867,-0.427c1.819,-0.104 5.185,0.245 8.414,0.737c-0.145,0.299 -1.313,0.28 -2.155,0.258c-0.833,-0.027 -1.348,-0.044 -0.207,0.353c1.356,0.021 2.484,-0.503 4.797,-0.028c-1.012,0.292 1.043,0.449 1.011,0.652c0,0 0.83,-0.166 1.659,-0.338c0.207,-0.042 0.411,-0.085 0.606,-0.126l0.138,-0.022l0.035,-0.012c-0.004,0 0.031,-0.004 -0.004,-0.004l0.017,-0.006l0.065,-0.016c0.079,-0.022 0.16,-0.038 0.23,-0.057c0.285,-0.07 0.477,-0.116 0.477,-0.116c1.477,0.075 3.182,0.123 4.543,-0.072c-0.456,0.068 -1.053,0.075 -1.787,0.037c2.086,-0.757 3.832,0.255 6.471,-0.069l-1.216,0.258c1.992,0.151 3.575,-0.081 5.164,-0.316l-0.047,0.445c0.214,-0.625 3.647,-0.763 4.414,-0.951c-4.878,0.424 -4.19,-0.493 -8.919,-0.022c1.781,-0.635 3.058,-0.748 4.985,-1.338c0.732,0.04 1.021,0.147 1.078,0.286c0.625,-0.242 0.811,-0.632 1.951,-0.808l0.343,0.248c3.241,0.261 2.934,-1.034 6.034,-0.823c0.609,0.581 -2.68,0.772 -4.58,1.124c1.464,0.534 -3.095,0.265 -1.382,1.021l0.93,-0.358c0.971,0.007 0.863,0.32 0.258,0.336c1.278,-0.119 0.97,0.003 1.447,-0.291c4.913,-0.063 -0.524,0.747 4.279,1.002c-0.54,0.163 -1.872,0.132 -1.615,0.465l-2.585,-0.139l-0.051,0.456c3.267,0.034 5.189,-0.544 6.686,-1.292c-2.95,0.446 -0.32,-0.471 -1.859,-0.681c0.577,-0.227 1.115,-0.104 1.438,0.021c0.22,-0.129 1.705,-0.211 1.512,-0.462c0.696,1.093 7.094,1.105 5.626,2.224c0.914,0.16 2.776,0.086 4.909,-0.03c1.065,-0.066 2.197,-0.129 3.309,-0.195l0.418,-0.025l0.051,-0.006l0.031,0c0.119,0.002 -0.16,-0.007 -0.129,-0.007l0.122,0l0.208,-0.003c0.273,0 0.546,-0.003 0.816,-0.003c0.527,0 1.074,-0.006 1.533,0.022l-1.068,0.257c1.068,0.261 1.646,0.424 2.171,0.428c0.515,0.021 0.854,-0.098 1.223,-0.224c0.709,-0.261 1.228,-0.713 2.422,-0.72c-2.13,0.142 1.79,0.683 2.651,1.104c1.005,-0.075 1.888,-0.198 2.918,-0.312c1.024,-0.116 2.13,-0.15 3.574,-0.119c0.598,0.443 0.648,1.244 2.599,1.175l1.279,-0.459l0.044,-0.003l0.038,0l0.131,-0.019l0.079,-0.009l0.166,-0.025c0.107,-0.02 0.221,-0.025 0.333,-0.045c0.223,-0.03 0.452,-0.069 0.685,-0.112c0.479,-0.085 0.896,-0.145 1.427,-0.271c0.999,-0.221 1.964,-0.399 2.542,-0.386l-0.233,0.084c2.015,-0.204 1.93,-0.883 0.402,-0.628l1.784,-0.676l0.095,0.119c2.328,-0.841 4.307,-2.133 7.9,-3.057c-0.857,0.645 2.885,0.224 -0.308,1.062c0.881,-0.418 -0.606,-0.312 -0.842,-0.462c-1.212,0.191 -2.161,0.914 -2.68,1.103c0.452,0.142 0.254,0.82 -0.301,1.316c1.114,-0.669 3.313,-1.226 5.253,-1.705c0.477,-0.117 0.941,-0.217 1.374,-0.317c0.215,-0.061 0.422,-0.12 0.62,-0.167c0.097,-0.025 0.191,-0.061 0.285,-0.085l0.013,-0.007l0.003,0c0.124,-0.019 -0.166,0.025 -0.138,0.022l0.021,-0.003l0.035,-0.017l0.217,-0.057c0.75,-0.197 1.266,-0.442 1.376,-0.753c0.364,-0.025 0.801,-0.098 1.144,-0.095c0.355,-0.019 0.726,-0.024 1.099,-0.044c0.381,-0.02 0.745,-0.06 1.16,-0.057c0.415,0.007 0.833,0.007 1.253,0.016c0.843,-0.016 1.713,0.063 2.569,0.139c0.855,0.065 1.713,0.214 2.526,0.377c-0.129,-0.069 -0.39,-0.21 -0.302,-0.289c0,0 0.694,0.227 1.392,0.449c0.695,0.248 1.383,0.493 1.383,0.493l-0.676,-0.01c0,0 0.452,0.17 0.914,0.343c0.449,0.166 0.915,0.352 0.915,0.352c0.16,0.221 -0.61,0.273 -1.386,0.205c-0.446,-0.007 -0.819,-0.227 -0.383,-0.224c-2.07,0.062 1.633,0.455 0.261,0.669c-0.485,-0.154 -1.128,-0.16 -1.478,-0.232c1.116,0.346 1.961,0.355 2.705,0.418c0.745,0.072 1.38,0.166 2.026,0.632c1.182,-0.17 3.551,-0.133 5.655,0.637c-0.912,0.107 2.4,0.399 1.196,0.72c0.89,-0.097 2.837,0.632 3.232,0.343c-0.33,0.065 -1.322,-0.11 -1.966,-0.353c0.942,0.038 1.118,-0.257 2.23,-0.006c0.135,0.075 0.034,0.151 0.034,0.151c1.521,-0.028 0.682,-1.009 3.265,-0.635c3.455,0.289 3.201,0.531 2.168,0.782c-0.516,0.12 -1.227,0.241 -1.75,0.352c-0.514,0.088 -0.843,0.173 -0.606,0.268c0.144,-0.104 0.992,-0.119 1.988,-0.069c0.493,0.022 1.015,0.069 1.515,0.129c0.492,0.044 0.96,0.106 1.31,0.188l-0.353,0.104c0.745,-0.069 1.813,-0.188 2.599,0.066c0.458,-0.438 1.319,-0.852 1.812,-1.145c0,0 0.201,-0.006 0.496,-0.016c0.305,-0.013 0.704,-0.056 1.103,-0.085c0.805,-0.068 1.612,-0.135 1.612,-0.135l-0.647,0.28c0.357,-0.069 0.707,-0.12 1.04,-0.164c0.343,-0.057 0.676,-0.113 1.005,-0.164c0.16,0.148 0.004,0.224 -0.289,0.306c-0.147,0.028 -0.329,0.069 -0.534,0.116c-0.147,0.025 -0.305,0.044 -0.458,0.069c-0.116,0.024 -0.242,0.04 -0.365,0.069c0.139,0.068 0.286,0.113 0.443,0.135c0.069,0.016 0.154,0.025 0.229,0.025l0.06,0l0.18,-0.022l0.109,-0.016c0.296,-0.047 0.605,-0.17 0.93,-0.387l-0.367,0.028c0.367,-0.146 1.225,-0.434 1.725,-0.666c0.544,-0.273 0.631,-0.411 -0.493,-0.305c1.655,-0.6 2.406,-0.072 3.538,-0.487c0.193,0.255 -0.881,0.561 -0.243,0.642c1.131,-0.204 1.9,-0.33 2.768,-0.679c-0.901,0.116 0.195,-0.309 -1.243,-0.147c0.518,-0.268 1.891,-0.676 1.8,-0.795c-0.437,0.166 -0.694,0.374 -1.539,0.38c1.457,-0.493 2.979,-0.896 4.501,-1.04c-0.034,0.075 -0.163,0.173 -0.32,0.277c0.911,-0.487 2.074,-0.84 3.154,-1.182c1.084,-0.346 2.073,-0.606 2.654,-1.009l-0.578,-0.012c-0.434,0.241 -1.347,0.424 -1.749,0.352c1.397,-0.415 -1.118,-0.312 0.353,-0.826c1.022,-0.305 2.038,-0.434 2.908,-0.475c0.442,-0.028 0.842,-0.069 1.206,-0.157c0.092,-0.021 0.179,-0.044 0.264,-0.069c0.126,-0.024 0.186,-0.057 0.28,-0.082c0.163,-0.068 0.311,-0.138 0.449,-0.232c-1.019,0.069 -2.228,0.151 -3.273,0.214c-1.04,0.135 -1.93,0.283 -2.31,0.494l1.298,-0.214c0,0 -0.701,0.323 -1.398,0.644c-0.694,0.353 -1.386,0.694 -1.386,0.694c-0.169,-0.265 -2.557,0.785 -2.61,0.339c0.999,-0.329 1.926,-0.553 2.705,-0.772c-0.229,-0.164 -2.742,0.54 -3.826,0.751l1.389,-0.169c-1.156,0.468 -2.523,0.886 -3.898,1.259c-0.688,0.186 -1.386,0.375 -2.046,0.55c-0.688,0.167 -1.351,0.343 -1.967,0.53c0.959,-0.36 0.314,-0.316 -0.36,-0.27c-0.68,0.041 -1.364,0.025 -0.635,-0.257c0.581,-0.318 1.661,-0.17 1.352,-0.211c0.119,-0.428 -1.513,0.211 -2.03,-0.054c-0.109,0.148 -0.772,0.34 -1.219,0.503c-0.114,0.041 -0.211,0.079 -0.283,0.119c-0.15,0.044 -0.15,0.069 -0.173,0.104c-0.019,0.028 0.013,0.063 0.086,0.085c0.034,0.01 -0.004,0.025 0.112,0.022c0.025,0.006 0.057,0.013 0.085,0.019c0.066,0.01 0.141,0.02 0.236,0.025c-0.494,-0.01 -1.1,0.053 -1.808,0.156c-0.685,0.075 -1.429,0.189 -1.991,0.025c0.346,0.468 -2.102,0.305 -2.522,0.494c-0.493,-0.058 -0.915,-0.167 -1.238,-0.306c0.521,-0.05 1.104,-0.078 1.713,-0.169c0.612,-0.098 1.26,-0.205 1.919,-0.305l-0.004,0.002c0.529,0.096 1.518,0.026 1.223,-0.065l0.013,-0.179c0.641,-0.154 1.291,-0.305 1.907,-0.445c0.649,-0.151 1.197,-0.355 1.753,-0.522c1.103,-0.311 2.02,-0.688 2.647,-0.904l-0.574,0.352c0.442,-0.235 0.908,-0.399 1.372,-0.515c0.466,-0.14 0.94,-0.242 1.414,-0.34c0.955,-0.186 1.917,-0.39 2.824,-0.839c-0.06,0.106 -0.271,0.191 0.095,0.119c2.387,-0.506 3.151,-1.529 5.174,-1.589l-0.188,0.305c0.163,-0.076 1.26,-0.506 0.977,-0.738c-1.617,0.418 -1.891,0.624 -3.355,0.876c0.531,-0.377 1.792,-0.854 2.747,-1.068l0.024,-0.468c1.172,-0.701 2.558,-0.271 3.776,-0.877c0,0 -0.387,-0.021 -0.773,-0.06c-0.398,-0.028 -0.775,-0.047 -0.775,-0.047c0.037,-0.021 0.16,-0.063 0.249,-0.082c-0.67,0.161 -1.238,0.33 -1.377,0.462c-1.1,0.314 -1.938,0.402 -2.57,0.384c-0.631,-0.022 -1.055,-0.164 -1.256,-0.239c-1.052,0.095 0.226,-0.646 0.057,-0.889c-1.621,0.48 -1.398,0.961 -2.984,1.442c-0.519,0.053 -0.242,-0.139 -0.025,-0.227l-1.106,0.54c-0.104,-0.11 -2.792,0.414 -1.287,-0.261c0.242,-0.057 0.678,-0.157 1.021,-0.232c-0.577,0.063 -1.241,0.135 -1.9,0.195c-0.653,0.053 -1.383,0.147 -1.929,0.138c-1.144,0.016 -1.957,-0.028 -1.979,-0.305c-0.632,0.021 -0.851,0.088 -1.159,0.164c-0.16,0.034 -0.336,0.069 -0.597,0.109c-0.132,0.019 -0.289,0.028 -0.471,0.053l-0.069,0.01l-0.035,0.003l-0.007,0c-0.125,0.02 0.173,-0.024 0.146,-0.021l-0.031,0c-0.048,0 -0.091,0 -0.139,0c-0.095,-0.003 -0.197,-0.003 -0.305,-0.007c-0.801,0.412 0.135,0.729 -1.835,1.104l1.574,0.072c0.163,-0.051 0.308,-0.095 0.449,-0.142c0.069,-0.025 0.151,-0.044 0.223,-0.069l0.116,-0.031l0.019,-0.004l0.011,-0.002c0.105,-0.017 -0.139,0.016 -0.116,0.016l0,-0.003l0.003,0l0.002,-0.004l0.035,-0.009l0.069,-0.026c0,0 -0.022,0.007 -0.072,0.017l-0.022,0.003l-0.012,0l-0.007,0.004c-0.025,0.003 0.214,-0.025 0.116,-0.017l-0.007,0l-0.04,0.006c-0.025,0.004 -0.069,0.004 -0.107,0.011c-0.153,0.016 -0.352,0.028 -0.556,0.05c-0.399,0.034 -0.813,0.069 -0.813,0.069c1.015,-0.233 0.823,-0.409 1.087,-0.776c0.075,-0.007 0.154,-0.009 0.224,-0.016l0.109,-0.01l0.031,0c-0.062,0.01 0.139,-0.021 -0.135,0.019l0.007,-0.002l0.021,0l0.062,-0.01c0.157,-0.02 0.305,-0.028 0.446,-0.048c0.285,-0.021 0.544,-0.031 0.785,-0.038c0.483,-0.009 0.889,0.026 1.244,0.063c0.632,0.051 1.134,0.16 1.759,0.116c-0.69,0.412 -2.017,0.591 -1.47,0.934c-0.672,-0.085 -1.062,0.047 -1.448,0.203c-0.198,0.073 -0.398,0.158 -0.657,0.205c-0.121,0.025 -0.264,0.044 -0.43,0.054c-0.038,0 -0.078,0.003 -0.12,0.003c0.035,-0.007 -0.091,0.013 0.085,-0.013l-0.016,0l-0.016,-0.003l-0.028,-0.004l-0.069,-0.009c-0.077,-0.01 -0.166,-0.021 -0.26,-0.035l0.27,-0.132c-1.178,0.409 -1.369,0.01 -2.347,0.381c0.069,-0.095 -0.066,-0.135 -0.194,-0.186c-2.181,0.188 0.682,0.268 -1.527,0.685c-1.966,-0.072 -0.615,-0.726 -1.146,-0.946c1.621,-0.275 1.596,-0.474 1.618,-0.634c0.01,-0.085 0.022,-0.167 0.254,-0.258c0.224,-0.104 0.679,-0.163 1.499,-0.352c-0.025,-0.305 -0.353,-0.428 -0.911,-0.503c-0.556,-0.088 -1.332,-0.091 -2.228,-0.051c1.176,0.255 -0.781,0.867 0.792,1.279c-0.682,0.084 -1.193,0.191 -1.627,0.301c-0.431,0.12 -0.776,0.259 -1.128,0.362c-0.704,0.235 -1.479,0.283 -3.041,-0.15l0.088,-0.076c0,0 -0.346,0.076 -0.682,0.129c-0.349,0.063 -0.691,0.116 -0.691,0.116l-1.791,-0.499c1.226,-0.453 2.567,0.072 3.49,-0.208c-2.102,-0.889 -3.024,0.221 -5.607,-0.282c-2.011,-1.081 2.692,0.069 2.762,-0.541c-0.534,0.082 -1.876,-0.474 -1.681,-0.612c2.346,0.632 1.502,-0.128 4.077,0.587c-1.3,0.022 0.167,0.221 -0.104,0.443c0.399,-0.163 2.847,0.028 4.53,0.186c0.402,-0.424 -1.445,-0.415 -2.511,-0.726c-1.049,0.119 -2.079,-0.065 -3.065,-0.305c-0.974,-0.217 -1.9,-0.446 -2.752,-0.32c-2.274,-0.337 -0.094,-0.446 -0.224,-0.519c-1.987,-0.55 -0.948,0.201 -1.617,0.179c-3.167,-0.261 -3.362,-1.185 -5.633,-1.662c-1.989,0.195 -6.657,-0.939 -10.176,-1.331c0.446,-0.163 0.003,-0.371 -0.198,-0.581c-1.102,0.307 -1.438,0.401 -1.853,0.448c-0.399,0.038 -0.88,0.054 -2.222,0.273c0,0 0.557,0.091 1.115,0.18c0.28,0.04 0.553,0.098 0.757,0.144c0.205,0.044 0.343,0.073 0.343,0.073c-0.88,-0.047 -1.709,0.132 -2.491,0.197c-0.396,0.041 -0.773,0.054 -1.178,0.045c-0.415,0.006 -0.833,-0.022 -1.275,-0.12c1.169,0.333 0.398,0.493 -0.789,0.616c-0.288,0.031 -0.65,0.047 -0.938,0.098c-0.293,0.047 -0.591,0.093 -0.877,0.138c-0.572,0.091 -1.084,0.182 -1.379,0.279l-0.16,-0.009l-0.013,0l-0.123,0.018l-0.019,0.004l-0.041,0l-0.085,0.009l-0.329,0.032c-0.221,0.021 -0.438,0.065 -0.65,0.107c-0.428,0.074 -0.833,0.182 -1.22,0.272c-0.753,0.204 -1.4,0.374 -1.919,0.251l0.224,-0.081c0,0 -0.635,0.113 -1.245,0.238c-0.612,0.126 -1.222,0.258 -1.222,0.258l0.126,-0.767c-1.76,0.142 -3.594,1.163 -2.991,1.229c-1.739,0.244 -0.756,-0.085 -1.084,-0.352c0.89,-0.446 2.815,-1.574 3.585,-1.156c-0.157,-0.019 -0.534,0.056 -0.597,0.163c2.324,-0.401 2.664,-0.697 2.695,-0.985c0.028,-0.297 -0.258,-0.588 0.918,-0.934c-0.626,0.116 -1.198,0.132 -1.76,0.191c-0.55,0.069 -1.106,0.163 -1.728,0.405c-0.601,0.157 -2.882,1.04 -3.949,1.556c1.482,-0.692 2.425,-0.613 3.76,-0.683c-1.105,0.214 -1.178,0.647 -2.158,0.656l0.271,-0.194l-1.104,0.54c-0.279,-0.352 -3.166,0.588 -1.561,-0.304c-1.505,0.445 -0.434,0.492 -1.784,0.948c0,0 0.688,-0.116 1.379,-0.224c0.707,-0.132 1.414,-0.257 1.414,-0.257l0.06,0.449c-0.959,0.553 -1.278,0.286 -2.372,0.553l0.201,0.474c0,0 -0.515,0.008 -1.027,0.013c-0.478,-0.021 -0.955,-0.044 -0.955,-0.044c0.142,0.145 -0.145,0.248 -0.515,0.333c-0.183,0.038 -0.391,0.082 -0.572,0.116c-0.204,0.028 -0.393,0.061 -0.499,0.085c-0.591,-0.022 -0.727,-0.258 -0.949,-0.396c-0.11,-0.069 -0.245,-0.116 -0.472,-0.104c-0.116,0.009 -0.251,0.024 -0.417,0.068l-0.031,0.014l-0.01,0.003l-0.003,0c0.27,-0.025 0.075,-0.013 0.135,-0.02l-0.003,0l-0.016,0.003l-0.061,0.02c-0.037,0.009 -0.078,0.021 -0.125,0.025c-0.085,0.025 -0.183,0.053 -0.289,0.078l0.129,0.047c-0.98,0.201 -1.549,0.399 -3.025,0.201c0.078,-0.084 0.483,-0.145 0.682,-0.166c-0.509,-0.072 -1.096,-0.091 -1.706,-0.076c-0.631,-0.015 -1.281,-0.024 -1.897,-0.037c-1.25,-0.038 -2.394,-0.176 -2.843,-0.588c0.227,-0.377 1.1,-0.053 1.197,-0.493c1.648,0.493 2.195,0.309 2.849,0.154c0.657,-0.15 1.329,-0.38 3.098,-0.183c0.085,0.503 0.823,0.314 1.596,0.133l0.293,-0.07l0.027,-0.009l0.007,0c-0.336,0.032 -0.092,0.009 -0.166,0.019l0.006,0l0.044,-0.016l0.085,-0.021l0.173,-0.045c0.229,-0.056 0.452,-0.103 0.663,-0.121c0.42,-0.045 0.781,-0.007 1.008,0.217c-0.405,0.021 -0.839,0.084 -1.254,0.179c-0.21,0.047 -0.415,0.101 -0.608,0.157l-0.035,0.016l-0.027,0.009l-0.007,0.003c-0.035,0.004 0.292,-0.03 0.153,-0.021l-0.062,0.021l-0.119,0.025c-0.079,0.021 -0.154,0.045 -0.227,0.069c-0.587,0.176 -0.98,0.38 -0.854,0.428c0.32,-0.026 0.672,-0.058 1.034,-0.082l0.135,-0.01l0.103,-0.009l0.035,0c-0.282,0.021 -0.078,0.009 -0.141,0.012l0.317,-0.041c0.21,-0.021 0.423,-0.056 0.631,-0.081c0.419,-0.05 0.82,-0.098 1.182,-0.125c0.357,-0.035 0.597,-0.077 0.832,-0.089c-0.82,-0.186 -0.628,-0.789 -0.154,-1.237c-0.248,0.075 -0.465,0.16 -0.813,0.21c-0.352,0.054 -0.731,0.094 -1.134,0.133c-0.201,0.019 -0.402,0.03 -0.612,0.05l-0.317,0.024l-0.041,0.004l-0.021,0.003l-0.017,0c0.354,-0.038 0.101,-0.013 0.177,-0.022l-0.069,-0.003l-0.136,-0.006c-0.354,-0.02 -0.725,-0.031 -1.099,-0.048c-1.496,-0.068 -3.183,-0.364 -4.72,-0.54l0.293,0.635c-2.758,0.191 0.405,-0.519 -1.74,-0.776l-1.006,0.349l-0.132,-0.072c0,0 -0.104,0.025 -0.258,0.063c-0.163,0.025 -0.38,0.069 -0.594,0.116c-0.434,0.084 -0.87,0.17 -0.87,0.17c1.172,0.112 0.714,-0.38 1.938,0.012c1.084,0.314 -0.097,0.446 -0.456,0.761c-0.76,-0.267 -3.584,-0.493 -1.803,-0.682l-3.229,0.242c0.047,-0.217 0.754,-0.245 1.094,-0.321c0,0 -0.582,-0.04 -1.16,-0.074c-0.627,-0.026 -1.256,-0.061 -1.256,-0.061l0.1,-0.072c-0.512,0.025 -1.07,0.025 -1.645,0.025c-0.516,0.022 -1.054,0.041 -1.571,0.065c-0.258,0.016 -0.513,0.022 -0.761,0.042l-0.185,0.012l-0.047,0.007l-0.038,0l-0.151,-0.003l-0.007,0.003l-0.09,0.012c-0.119,0.022 -0.236,0.028 -0.353,0.044c-0.459,0.072 -0.876,0.147 -1.226,0.259c3.079,0.438 -1.47,0.515 -1.205,0.848c-1.109,-0.061 -1.439,-1.125 0.91,-1.549c0.317,0.172 0.88,0.151 1.512,0.069l0.238,-0.022l0.123,-0.021l0.059,-0.01l0.031,-0.007l0.189,0l0.493,-0.046c0.33,-0.023 0.653,-0.048 0.951,-0.045c-0.38,-0.068 -0.694,-0.104 -0.974,-0.116c-0.142,-0.01 -0.271,-0.01 -0.393,-0.01l-0.258,0l-0.091,0.01l-0.176,0.017c-0.459,0.05 -0.877,0.132 -1.477,0.146c0.849,-0.272 -1.597,-0.354 -1.568,-0.588c0.164,-0.175 0.667,-0.693 2.206,-0.477c2.299,0.025 0.238,0.559 0.914,0.455c0.037,0.034 0.085,0.069 0.139,0.095l0.041,0.021l0.009,0.006l0.007,0.004l0.176,0.003l0.003,0l0.004,0.003l0.021,0.014c0.029,0.016 0.063,0.024 0.096,0.03c0.128,0.045 0.285,0.07 0.461,0.089c0.349,0.031 0.776,0.024 1.229,0.002c0.223,-0.016 0.455,-0.021 0.685,-0.034c0.262,0 0.525,0.004 0.779,0.004c0.513,0.015 0.992,0.041 1.386,0.119c0.163,0.069 -0.365,0.085 -0.619,0.1c0.647,0.045 1.655,0.117 2.525,0.174c0.832,0.041 1.549,0.021 1.655,-0.166l-3.144,-0.051c-0.727,-0.191 1.086,-0.262 0.047,-0.588c-0.786,0.028 -1.756,-0.01 -2.727,-0.166c0,0 0.17,-0.163 0.179,-0.163c-0.459,-0.107 -0.971,-0.174 -1.527,-0.227c-0.276,-0.024 -0.562,-0.051 -0.854,-0.072l-0.11,-0.003l-0.317,-0.01l-0.223,-0.003l-0.446,0c-1.2,0.013 -2.435,0.078 -3.484,0.166c-0.472,0.886 -1.571,1.423 -2.494,2.372c-3.12,0.025 -6.39,-0.019 -9.713,-0.195c0.787,-0.414 2.883,-0.581 5.187,-0.546l-0.99,0.223c1.851,0.098 2.555,-0.229 3.317,-0.418c-0.088,0.088 0.057,0.142 0.343,0.249c1.646,-0.098 2.516,-0.591 1.668,-0.915l-0.544,0.157l-1.14,-0.43c-0.438,0.826 -3.796,0.354 -5.643,0.726c1.27,-0.358 2.362,-1.125 3.99,-0.625l-0.17,-0.421c1.413,-0.066 2.56,0.36 3.345,-0.051l-1.646,0.098l0.028,-0.229c-1.169,0.024 -2.657,0.383 -3.735,0.132c-0.952,0.279 -1.844,0.726 -4.379,0.625l0.085,-0.085c-1.719,0.776 -4.782,-0.483 -6.079,-0.135c-0.757,0.775 2.783,0.33 3.638,0.644c-1.071,0.309 -2.215,-0.115 -1.297,0.349c-2.498,0.368 -1.486,-0.678 -3.55,-0.141l1.165,0.201c-0.928,0.354 -2.466,0.141 -3.402,0.499c-0.129,0.537 1.568,-0.01 3.333,0.17l-0.792,0.411l3.541,-0.446c1.046,-0.678 0.075,-0.678 2.287,-1.152c1.144,0.427 1.807,1.15 1.304,1.665c-0.939,-0.229 -2.677,-0.047 -2.62,-0.503c-1.012,0.446 -3.88,0.798 -3.333,1.241c-0.116,0.009 -0.258,0.024 -0.383,0.024c-1.2,-0.492 -3.014,-0.869 -6.277,-0.971c-0.635,-0.009 -0.729,0.296 -0.587,0.729c-0.686,-0.132 -1.333,-0.255 -1.989,-0.265c0.5,-0.201 0.826,-0.455 1.791,-0.483l-5.071,-0.157l0.394,-0.207l-1.999,0.298c1.129,-0.116 2.872,0.014 2.442,0.459c-2.272,0.333 -3.551,-0.145 -5.479,0.438c0.016,-0.82 -0.638,-0.946 0.007,-1.414c0.132,0.013 0.194,0.021 0.229,0.041c0.724,-0.446 2.263,-0.925 3.452,-1.034c-4.212,-0.267 -3.115,0.025 -6.828,-0.182c-0.303,-0.465 3.404,-0.496 2.554,-0.82l3.471,0.229c-0.587,0.029 -0.666,0.143 -0.945,0.215c2.395,-0.346 3.261,0.088 5.058,-0.45c1.141,0.214 -1.771,0.355 -0.524,0.447c-1.059,0.084 -2.099,0.618 -2.607,0.985c2.733,0.191 1.555,-0.6 3.88,-0.798l1.737,0.412c1.049,-0.079 -0.346,-0.248 -0.402,-0.387c1.278,-0.116 1.76,0.183 2.729,0.191c-0.285,-0.112 -0.936,-0.232 -0.772,-0.404c1.6,0.354 3.183,0.119 4.669,0.795c-0.858,-0.321 0.983,-0.818 1.664,-0.915l-3.053,-0.665c-3.887,0.213 -6.306,-0.104 -10.503,0.217l0.249,-0.259c-3.299,-0.398 -4.672,-0.082 -5.926,0.333c-0.608,0.211 -1.269,0.446 -1.954,0.606c-0.716,0.17 -1.618,0.298 -2.918,0.201c-0.088,-0.631 -2.416,-0.116 -2.161,-0.726c1.567,0.198 1.266,-0.072 0.849,-0.421c-0.921,0.129 -1.564,0.556 -3.318,0.078c0.694,-0.244 -0.82,-0.716 0.924,-0.618c-1.182,-0.211 -2.114,-0.367 -2.919,-0.428c-0.798,-0.044 -1.479,-0.003 -2.161,0.167c-2.058,-0.066 -2.365,-0.305 -2.623,-0.557c-0.271,-0.258 -0.521,-0.537 -2.626,-0.738l0.65,-0.132l-2.626,-0.364l0.811,0.461l-3.198,-0.144c-2.001,0.041 0.729,0.527 0.434,0.744l0.729,-0.354c1.244,0.32 3.082,0.226 3.273,0.6c-2.039,-0.285 -1.627,0.163 -2.466,0.211l1.977,0.147l0.565,0.459c1.91,0.352 3.336,0.682 4.511,0.477c-0.732,-0.302 -1.316,0.123 -1.963,-0.257c1.03,-0.418 3.352,-0.062 5.558,0.06c0.038,0.147 0.728,0.289 0.418,0.364c-0.054,0.044 -0.438,-0.022 -0.645,-0.072c0.122,0.279 -1.124,0.273 0.917,0.729c-0.788,0.31 -2.463,0.743 -2.428,0.897c-1.244,-0.078 -2.988,-0.332 -3.965,-0.652l0.094,-0.073c-1.058,-0.248 -3.458,-0.241 -3.568,-0.682c-0.691,-0.021 -2.585,-0.21 -0.723,0.352c0,0 -0.794,-0.072 -1.589,-0.15c-0.801,-0.072 -1.605,-0.135 -1.605,-0.135c0.65,-0.656 -2.337,-1.288 0.927,-1.386c-0.119,0.01 -1.275,-0.119 -3.198,-0.241c0.031,-0.022 0.06,-0.041 0.101,-0.063c0.116,-0.019 0.21,-0.047 0.267,-0.098c0.384,0.072 0.622,0.072 0.663,0.221c1.216,-0.365 -0.437,-0.738 -2.221,-1.024l-0.481,0.37c-0.766,-0.203 -1.373,-0.434 -2.054,-0.603c-0.695,-0.157 -1.461,-0.268 -2.529,-0.258c0,0 -1.27,0.349 -2.535,0.688c-1.292,0.402 -2.585,0.813 -2.585,0.813c-0.488,0.043 -0.908,0.116 -1.366,0.163c-0.158,-0.051 -0.399,-0.069 -0.661,-0.075c-0.132,-0.003 -0.267,-0.013 -0.402,-0.016c-0.069,0 -0.135,-0.004 -0.198,-0.004l-0.024,0l-0.129,0.01l-0.138,0c-0.49,-0.003 -0.801,-0.051 -0.424,-0.333c-0.113,-0.082 0,-0.166 0.254,-0.232c0.063,-0.02 0.135,-0.024 0.214,-0.038c0.116,-0.016 0.244,-0.021 0.379,-0.031c0.186,-0.013 0.394,-0.013 0.616,0c0.138,0.045 -0.079,0.088 0.066,0.136c0.236,-0.276 0.32,-0.591 -0.772,-0.823c1.103,-0.007 1.247,0.037 2,-0.192l-1.109,0.007c0.409,-0.05 0.87,-0.126 1.333,-0.235c0.518,-0.082 1.08,-0.182 1.563,-0.296c0.98,-0.217 1.712,-0.445 1.678,-0.628c-0.562,0.493 -1.841,0.01 -2.909,-0.072c0.805,-0.116 2.557,-0.412 1.21,-0.462c-0.116,0.054 -0.433,0.116 -0.801,0.179c-0.359,0.069 -0.799,0.13 -1.035,0.211c-0.524,0.16 -0.738,0.295 0.339,0.336c-0.452,0.092 -0.97,0.22 -1.514,0.314c-0.27,0.044 -0.547,0.082 -0.817,0.106c-0.191,0.016 -0.38,0.025 -0.565,0.041c-0.132,0.007 -0.264,0.007 -0.399,-0.003c0.298,-0.091 0.468,-0.167 0.565,-0.232c0.022,-0.022 0.043,-0.032 0.057,-0.051l0.013,-0.016l0.006,-0.006l0,-0.003l0.003,0l0.167,-0.016l0,-0.003l0.019,-0.025c0.016,-0.025 0.019,-0.062 0.016,-0.088c-0.012,-0.117 -0.135,-0.245 0.026,-0.428l-0.051,0.021l-0.025,0.01l-0.01,0.007l-0.01,0l-0.185,0.016l-0.006,0.003l-0.088,0.037c-0.06,0.026 -0.113,0.054 -0.163,0.072c-0.101,0.047 -0.183,0.098 -0.255,0.145c-0.141,0.095 -0.239,0.183 -0.305,0.258c-0.132,0.166 -0.157,0.306 -0.232,0.399c-3.112,-0.154 -4.445,-0.965 -7.872,-0.286c-0.449,0.11 2.085,-0.352 1.787,0.025c-2.472,0.822 -3.355,-0.327 -5.51,0.145l0.672,0.515c-0.672,0.163 -2.309,0.425 -3.12,0.55c-0.223,-0.17 -2.595,-0.339 -0.882,-0.685c-3.78,0.031 -3.196,1.562 -7.487,1.806c1.995,-0.047 2.221,-0.103 3.773,-0.264c-1.628,0.49 -0.227,0.283 -0.374,0.701c-1.031,-0.271 -4.211,0.377 -2.072,-0.312c-1.328,0.11 -3.986,0.317 -4.58,0.622l1.184,0.082c-1.919,0.177 -3.776,0.729 -4.514,1.207c2.368,-0.287 2.224,-1.012 5.252,-1.244c3.321,0.068 -0.739,0.493 1.47,0.841l2.292,-0.65l-1.106,0.051c0.3,-0.606 3.623,-0.308 3.262,-0.968c2.434,0.305 3.109,-0.097 5.774,0.151c0.597,-0.306 -0.364,-0.214 -1.106,-0.176c1.329,-0.11 1.335,-0.789 3.113,-0.55c0.892,0.002 0.229,-0.516 -1.331,-0.352c1.337,-0.107 2.597,-0.353 4.083,-0.399l-1.552,-0.305l1.562,-0.153l-1.339,-0.133c2.979,-0.346 6.406,-0.565 8.033,-0.126c-2.539,0.688 -6.852,0.908 -8.271,1.784c0.59,0.157 2.014,-0.722 2.823,-0.163l0.748,-0.486c0.895,-0.217 2.979,-0.575 3.201,-0.17c-2.459,0.537 -3.075,0.962 -4.3,1.433c-0.003,0.088 -0.226,0.156 -0.584,0.21c-0.019,0.007 -0.025,0.01 -0.042,0.017l0.026,-0.017c-0.735,0.11 -1.945,0.173 -2.62,0.352c-0.883,-0.006 -0.305,-0.305 -0.221,-0.398c-3.031,-0.226 -4.97,1.323 -8.152,1.285c-0.069,-0.358 -2.51,-0.204 -1.771,-0.465c-1.844,0.081 -2.812,0.634 -3.993,1.008c-0.295,-0.304 -2.808,0.176 -1.923,-0.272l-1.624,0.713c-1.182,-0.073 -3.548,0.421 -3.984,0.075c-1.256,0.232 -0.304,0.603 -2.077,0.584c0.076,-0.094 -0.068,-0.129 0.301,-0.147c-0.81,-0.104 -2.735,0.069 -3.543,0.417c1.247,-0.005 0.295,0.077 1.769,0.023c-0.009,0.223 -1.63,0.706 -3.323,0.587c2.22,-0.764 -1.838,-0.396 -0.801,-0.795c-3.607,0.242 -5.611,1.166 -8.58,1.944c-3.541,0.308 -7.964,0.396 -10.713,1.03l0.367,0.004l-1.636,0.396c-0.958,0.038 -0.044,-0.588 -1.521,-0.377c0.478,-0.547 2.577,-0.188 4.069,-0.657c-2.629,-0.345 2.378,-0.659 0.631,-0.96c-0.943,1.143 -5.504,0.411 -7.737,1.089c-2.19,-0.024 0.986,-0.492 -0.104,-0.496l-0.685,0.353c-0.87,-0.06 -1.157,-0.151 -1.141,-0.377c-2.319,-0.063 -5.046,0.106 -7.009,0.59c2.551,-0.267 -0.858,0.515 1.668,0.476c-0.763,0.2 -2.406,0.316 -3.965,0.352c1.499,-0.17 -2.016,-0.717 1.313,-0.588c-0.475,-0.519 -1.643,0.119 -3.126,0.072c0.758,-0.204 2.432,-0.547 2.281,-0.598c-0.552,0.183 -1.281,0.258 -2.069,0.265c-0.179,0 -0.365,0.003 -0.553,0.003c-0.208,-0.003 -0.415,-0.01 -0.629,-0.013c-0.417,-0.019 -0.841,-0.031 -1.252,-0.054c-1.65,-0.085 -3.13,-0.201 -3.566,0.066c-1.627,0.531 -4.153,0.914 -6.106,1.482c-1.995,-0.254 -4.169,0.135 -6.397,0.164l0.38,-0.229c-1.256,-0.035 -3.223,0.305 -5.039,0.326l-0.43,-0.361c-1.247,0.198 -3.591,0.402 -5.503,0.519c-0.013,0.227 1.753,0.069 0.929,0.399c0.952,-0.057 1.759,-0.163 1.408,-0.38c0.952,-0.061 1.009,0.304 1.807,0.439l-3.685,0.493c-0.302,-0.013 -0.409,-0.028 -0.424,-0.069l-0.257,0.437c-0.965,0.061 -1.245,-0.021 -1.087,-0.21c-1.037,0.157 -1.74,0.352 -2.46,0.519c-0.72,0.166 -1.452,0.298 -2.561,0.267c0.927,-0.39 1.54,-0.645 3.101,-0.7l-2.529,0.075c0.572,-0.214 1.955,-0.333 3.098,-0.474c1.131,-0.164 2.02,-0.365 1.637,-0.657c-1.354,0.244 -3.066,0.437 -4.725,0.678c-1.658,0.246 -3.273,0.514 -4.482,0.805c-0.651,-0.217 -1.452,-0.17 -2.357,-0.082c-0.115,0.013 -0.229,0.023 -0.346,0.032l-0.088,0.013l-0.009,0c0.097,-0.003 0.029,0 0.05,0l-0.041,0l-0.044,0.002l-0.172,0.011c-0.239,0.009 -0.484,0.019 -0.729,0.021c-0.493,0.01 -1.009,-0.009 -1.54,-0.069c-0.286,-0.113 -0.929,-0.251 -0.537,-0.446l0.588,-0.006c-1.396,-0.075 -2.894,-0.056 -4.354,0.028c-1.458,0.091 -2.884,0.229 -4.138,0.346l-1.256,-0.537c-4.27,-0.387 0.772,0.813 -3.619,0.731c-1.024,-0.562 -5.389,-0.493 -5.558,-0.923c-0.83,0.009 -1.204,-0.025 -1.32,0.282c0.742,0.069 2.394,0.057 1.445,0.371c-1.515,0.071 -2.221,-0.224 -3.415,-0.258c0.081,-0.075 0.948,-0.312 0.486,-0.264c-2.953,0.022 -8.372,-0.082 -11.152,0.712c1.05,-0.059 1.166,-0.37 2.561,-0.172c-0.029,0.226 -0.77,0.17 -1.077,0.286c0.167,0.427 1.445,-0.258 2.896,0.079l-2.45,0.454l1.367,0.422l-5.563,1.002c4.57,0.399 6.704,-1.172 10.42,-0.48c-0.588,0.104 -0.02,0.244 0.125,0.352c1.187,-0.154 2.601,-0.081 3.336,-0.327l1.885,0.101c-0.029,0.223 -0.776,0.748 -2.699,0.645c3.355,0.175 6.337,0.04 9.346,-0.044c3,-0.091 5.991,-0.101 9.399,0.142c0.283,0.119 -0.911,0.119 -0.402,0.2c0.917,-0.116 2.428,-0.229 2.369,-0.37c-0.085,0.081 -0.258,0.258 -0.855,0.258c1.765,-0.069 3.113,0.068 4.308,0.197c1.238,0.113 2.236,0.136 3.374,-0.06c0.132,0.28 -1.726,0.235 -1.436,0.333c3.475,0.126 5.252,-0.785 8.75,-0.889c-1.147,0.445 0.778,0.387 1.736,0.54c2.862,-0.54 8.973,-1.015 13.27,-1.568c-1.077,1.056 4.816,-0.279 5.219,0.541c0.96,-0.069 2.444,-0.224 2.538,-0.553c-0.524,0.17 -1.841,-0.047 -1.678,-0.221c1.404,-0.104 3.553,-0.185 3.732,-0.587l1.753,0.358c0.101,-0.311 0.646,-0.716 1.614,-0.729c2.155,0.735 -0.242,-0.554 2.833,-0.211c-0.697,0.349 -1.316,0.605 -1.564,0.87c1.477,0.038 1.266,-0.157 2.325,-0.257c0.352,0.237 -1.053,0.693 -2.161,0.901l1.916,0.188c1.831,-0.53 5.011,-1.271 7.973,-1.161c-0.475,0.305 -1.438,0.31 -0.657,0.703c1.273,-0.129 2.959,-0.703 4.649,-0.521c-0.232,0.044 -0.088,0.091 -0.314,0.135c2.947,-0.565 2.231,0.022 4.913,-0.047c-0.041,0.047 -0.046,0.104 -0.122,0.156l1.621,-0.367c3.393,-0.87 3.846,0.251 5.922,0.415l-0.449,0.101c1.323,0.396 5.428,-0.339 6.619,-0.227c-1.477,-0.201 -0.509,-0.26 -1.615,-0.7c-1.272,0.201 -0.838,0.778 -2.994,0.726c0.245,-0.506 2.932,-0.86 3.456,-1.275c1.19,-0.107 2.058,0.585 2.198,0.86c2.976,-0.317 4.669,-0.188 8.312,-0.662c1.269,-0.459 2.171,-1.593 5.275,-1.216l-0.151,0.188c0.073,-0.32 1.48,-0.063 2.077,-0.354c-1.102,-0.409 1.264,-0.459 -0.066,-0.82c1.775,-0.214 2.141,0.461 2.36,0.863c1.191,-0.819 3.55,0.022 6.223,-0.646c-0.455,0.343 -3.408,0.703 -2.154,0.914l3.404,-1.156l-1.548,0.163c2.591,-0.804 3.396,-0.251 4.95,-0.182c0.321,0.179 -0.674,0.352 -1.429,0.421c0.817,-0.051 2.104,-0.268 3.147,-0.537c0.779,-0.306 3.531,-0.854 4.612,-1.342c0.15,0 0.301,0 0.449,0c-0.038,0.044 -0.104,0.088 -0.192,0.113c0.22,-0.032 0.402,-0.069 0.569,-0.117c0.472,-0.009 0.942,-0.021 1.415,-0.024l-0.271,0.123c0.182,-0.044 0.361,-0.089 0.534,-0.13c0.464,-0.119 0.953,-0.129 1.441,-0.138z" id="path207"/>
   </g>
  </g>




<g id="g4323" class="dragme" transform="translate(126,329)">
    <text x="-90" y="-529" id="text57" transform="matrix(1,0,0,1,39.5,777.5) ">
     <tspan id="tspan61" class="st7 st10 st9" fill="#808285"  y="-529" x="-120.8">Phytopthora <tspan font-style="italic">cinnamomi</tspan> S inoculated</tspan>
    </text>
    <path id="path115" fill="#939598" stroke="#939598"  d="m62.5,146.8c-0.3,-9.2 -0.3,-18.4 -0.3,-27.7c0,-6 -0.1,-12 0,-17.9c0.1,-4.5 0.6,-9 0.9,-13.4c0.1,-1.8 0.3,-3.6 0.4,-5.4c0.2,-4.3 1.2,-8.5 1.9,-12.8c1.5,-8.9 2.6,-17.9 4.2,-26.8c1.4,-7.4 3.4,-14.7 5,-22.1c0.8,-3.6 1.2,-7.3 1.8,-11c0.1,-0.5 -0.1,-1.5 0.7,-1.4c0.7,0 0.9,0.9 0.8,1.6c-0.6,4.1 -1.1,8.2 -1.9,12.2c-1.5,7.1 -4,14.1 -5.1,21.3c-1.2,8.4 -3.1,16.6 -4,25c-0.5,4.8 -1.9,9.4 -2.2,14.2c-0.6,10.2 -1.9,20.4 -1.2,30.7c0.3,4.1 0,8.1 0,12.2c0.1,7.2 0.2,14.5 0.3,21.7c0.1,5.6 0.5,11.2 0.9,16.8c0.9,11.7 2,23.3 4.9,34.7c2.1,8.3 5.4,16.1 8.4,24.1c0.2,0.5 1,1.1 0.2,1.5c-0.9,0.5 -1.2,-0.5 -1.5,-1.1c-1.7,-4.3 -3.5,-8.5 -4.9,-12.9c-1,-3.1 -2.4,-6.1 -3.3,-9.3c-0.9,-3.2 -1.4,-6.4 -2,-9.7c-1.7,-9.1 -2.4,-18.4 -3.1,-27.6c-0.4,-5.6 -0.8,-11.3 -0.9,-16.9z" class="st0"/>
    <path id="path117" fill="#939598" stroke="#939598" d="m27.1,4.6c0.5,2.3 0.8,4.7 0.9,7c0.1,3.7 -0.7,7.3 -1.1,10.9c-0.6,6.2 -0.6,12.4 -0.8,18.7c-0.3,7 -0.6,14 -1.5,21c-0.1,0.7 -0.2,1.3 -0.2,2c0,4.2 0,8.5 -0.9,12.7c-0.9,4.3 -0.9,8.7 -1.2,13c-0.4,5.2 -0.7,10.4 -1.2,15.6c-1.2,12.3 -2.4,24.7 -3.2,37c-0.3,5.4 -0.5,10.9 -0.4,16.3c0.2,8.4 -0.6,16.7 -1.3,25.1c-0.8,9.2 -2.7,18.2 -4.7,27.2c-0.9,3.9 -2,7.8 -3,11.7c-0.1,0.5 -0.2,1.4 -1,1.2c-0.9,-0.2 -0.5,-1.1 -0.3,-1.7c1.7,-6.2 3.6,-12.4 4.9,-18.8c1.6,-8 2.8,-16 3.5,-24.2c0.5,-6.5 1,-13 1,-19.6c0,-6.5 -0.1,-13.1 0.5,-19.5c0.8,-8.9 1.1,-17.9 2.4,-26.8c0.8,-5.4 0.9,-11 1.4,-16.5c0.8,-8.1 0.9,-16.2 2.3,-24.3c0.7,-4.2 0.6,-8.6 0.9,-12.9c0.5,-7.1 1,-14.2 1.4,-21.3c0.2,-3.6 0,-7.2 0.2,-10.8c0.3,-5.7 1.6,-11.4 1.3,-17.2c-0.1,-2 -0.2,-3.9 -0.3,-5.9c0.1,0.1 0.3,0.1 0.4,0.1z" class="st1"/>
    <path id="InfBR"  fill="none" stroke="#CCCCCC" d="m40.2,133.7c0.1,-2.6 -0.3,-5.2 -0.5,-7.9c-0.3,-3.6 0,-7.2 0.3,-10.9c0.1,-1.1 0.1,-2.3 0.2,-3.4c0.1,-1.1 -0.2,-1.9 -1.4,-2.1c-1.1,-0.2 -1.9,-0.9 -2.7,-1.7c-2.6,-2.5 -4,-5.8 -5.3,-9c-0.8,-2.1 -0.5,-4.2 0.2,-6.5c1,-3.1 2.6,-5.9 4.6,-8.4c1.1,-1.4 2.8,-2.2 4.2,-3.3c0.8,-0.6 1.5,-1.2 1.4,-2.3c-0.3,-5.3 0.9,-10.4 1.9,-15.5c1,-5.1 1.4,-10.3 1.6,-15.5c0,-1.3 0.7,-2.5 0.5,-3.9c-0.1,-0.7 0.5,-0.7 1,-0.4c1,0.5 1.2,1.3 1.1,2.3c-0.2,6.2 0.8,12.4 0.6,18.7c-0.1,3.3 0.3,6.7 0.3,10c0,1.5 -0.4,3 -0.8,4.4c-0.5,1.8 -0.2,2.9 1.3,4.3c4.5,4.3 6.7,9.7 5.6,16.1c-0.5,2.9 -1,5.7 -3.1,8.1c-1.4,1.6 -2.8,3.1 -4.9,3.7c-1.3,0.4 -1.7,1.3 -1.6,2.5c0.3,2.4 -0.2,4.7 -0.4,7c-0.4,6.3 -2.1,12.4 -1.4,18.8c0.1,1.1 -1.2,1.3 -1.3,2.4c0,0.3 -1,-0.4 -1,-1c-0.2,-1.7 -0.3,-3.5 -0.5,-5.2c0.1,-0.5 0.1,-0.9 0.1,-1.3z" class="st2"/>
   </g>

<g id="g4314" class="dragme" transform="translate(582,331)">
   <text x="-323" y="-529" id="text65" transform="matrix(1,0,0,1,326.5,777.5) ">
    <tspan id="tspan67" class="st7 st8 st9" fill="#808285" y="-529" x="-340">Phytopthora <tspan font-style="italic">cinnamomi</tspan> S mock inoculated</tspan>

   </text>
   <path id="ConBR" fill="none" stroke="#CCCCCC" d="m75.7,90.5c-0.7,7.5 5.2,12.7 9.8,14.2c2.8,0.9 4.9,-0.5 7,-1.9c0.7,-0.5 1.2,-1.2 1.4,-2.2c0.1,-0.5 0.4,-1 0.6,-1.5c1.5,-2.9 2.3,-5.9 3.1,-9c0.2,-0.8 0.5,-1.6 0.4,-2.3c-0.3,-3.2 -1.8,-5.9 -3.9,-8.3c-3.2,-3.9 -9.8,-3.6 -13.2,-1.5c-2.3,1.4 -4.1,3.4 -4.5,6.1c-0.4,2.2 -1,4.4 -0.7,6.4z" class="st6"/>
   <path id="path123" fill="#939598" stroke="#939598" d="m106.7,146.3c-0.3,-9.2 -0.3,-18.4 -0.3,-27.7c0,-6 -0.1,-12 0,-17.9c0.1,-4.5 0.6,-9 0.9,-13.4c0.1,-1.8 0.3,-3.6 0.4,-5.4c0.2,-4.3 1.2,-8.5 1.9,-12.8c1.5,-8.9 2.6,-17.9 4.2,-26.8c1.4,-7.4 3.4,-14.7 5,-22.1c0.8,-3.6 1.2,-7.3 1.8,-11c0.1,-0.5 -0.1,-1.5 0.7,-1.4c0.7,0 0.9,0.9 0.8,1.6c-0.6,4.1 -1.1,8.2 -1.9,12.2c-1.5,7.1 -4,14.1 -5.1,21.3c-1.2,8.4 -3.1,16.6 -4,25c-0.5,4.8 -1.9,9.4 -2.2,14.2c-0.6,10.2 -1.9,20.4 -1.2,30.7c0.3,4.1 0,8.1 0,12.2c0.1,7.2 0.2,14.5 0.3,21.7c0.1,5.6 0.5,11.2 0.9,16.8c0.9,11.7 2,23.3 4.9,34.7c2.1,8.3 5.4,16.1 8.4,24.1c0.2,0.5 1,1.1 0.2,1.5c-0.9,0.5 -1.2,-0.5 -1.5,-1.1c-1.7,-4.3 -3.5,-8.5 -4.9,-12.9c-1,-3.1 -2.4,-6.1 -3.3,-9.3c-0.9,-3.2 -1.4,-6.4 -2,-9.7c-1.7,-9.1 -2.4,-18.4 -3.1,-27.6c-0.4,-5.6 -0.8,-11.3 -0.9,-16.9z" class="st0"/>
   <path id="path125" fill="#939598" stroke="#939598"  d="m71.3,4.1c0.5,2.3 0.8,4.7 0.9,7c0.1,3.7 -0.7,7.3 -1.1,10.9c-0.6,6.2 -0.6,12.4 -0.8,18.7c-0.3,7 -0.6,14 -1.5,21c-0.1,0.7 -0.2,1.3 -0.2,2c0,4.2 0,8.5 -0.9,12.7c-0.9,4.3 -0.9,8.7 -1.2,13c-0.4,5.2 -0.7,10.4 -1.2,15.6c-1.2,12.3 -2.4,24.7 -3.2,37c-0.3,5.4 -0.5,10.9 -0.4,16.3c0.2,8.4 -0.6,16.7 -1.3,25.1c-0.8,9.2 -2.7,18.2 -4.7,27.2c-0.9,3.9 -2,7.8 -3,11.7c-0.1,0.5 -0.2,1.4 -1,1.2c-0.9,-0.2 -0.5,-1.1 -0.3,-1.7c1.7,-6.2 3.6,-12.4 4.9,-18.8c1.6,-8 2.8,-16 3.5,-24.2c0.5,-6.5 1,-13 1,-19.6c0,-6.5 -0.1,-13.1 0.5,-19.5c0.8,-8.9 1.1,-17.9 2.4,-26.8c0.8,-5.4 0.9,-11 1.4,-16.5c0.8,-8.1 0.9,-16.2 2.3,-24.3c0.7,-4.2 0.6,-8.6 0.9,-12.9c0.5,-7.1 1,-14.2 1.4,-21.3c0.2,-3.6 0,-7.2 0.2,-10.8c0.3,-5.7 1.6,-11.4 1.3,-17.2c-0.1,-2 -0.2,-3.9 -0.3,-5.9c0,0.1 0.2,0.1 0.4,0.1z" class="st1"/>
  </g>
	
	
	



	 </svg>