<?xml version="1.0" encoding="utf-8"?>
<!-- Generator: Adobe Illustrator 21.0.0, SVG Export Plug-In . SVG Version: 6.00 Build 0)  -->
<svg version="1.1"
	 id="Layer_1" inkscape:version="0.91 r13725" sodipodi:docname="biotic_stress.svg" xmlns:cc="http://creativecommons.org/ns#" xmlns:dc="http://purl.org/dc/elements/1.1/" xmlns:inkscape="http://www.inkscape.org/namespaces/inkscape" xmlns:rdf="http://www.w3.org/1999/02/22-rdf-syntax-ns#" xmlns:sodipodi="http://sodipodi.sourceforge.net/DTD/sodipodi-0.dtd" xmlns:svg="http://www.w3.org/2000/svg"
	 xmlns="http://www.w3.org/2000/svg" xmlns:xlink="http://www.w3.org/1999/xlink" x="0px" y="0px" viewBox="0 0 1033 1000"
	 style="enable-background:new 0 0 1033 1000;" xml:space="preserve">
<style type="text/css">
	.st0{fill:none;stroke:#666666;stroke-width:0.25;stroke-miterlimit:10;}
	.st1{fill:#666666;}
	.st2{font-family:'MyriadPro-Regular';}
	.st3{font-size:10.1743px;}
	.st4{stroke:#989898;stroke-miterlimit:10;}
	.st5{stroke:#989898;stroke-width:0.75;stroke-miterlimit:10;}
	.st6{fill:none;stroke:#989898;stroke-width:0.5;stroke-miterlimit:10;}
	.st7{fill:none;stroke:#989898;stroke-miterlimit:10;}
	.st8{fill:#CDCCCC;}
	.st9{stroke:#666666;stroke-width:0.25;stroke-miterlimit:10;}
	.st10{font-family:'OpenSans-Italic';}
	.st11{font-size:12.0529px;}
	.st12{font-family:'OpenSans';}
	.st13{fill:#939598;stroke:#939598;stroke-width:0.25;stroke-miterlimit:10;}
	.st14{fill:#939598;stroke:#939598;}
	.st15{stroke:#CCCCCC;}
	.st16{stroke:#CCCCCC;stroke-miterlimit:10;}
	.st17{fill:none;stroke:#989798;stroke-miterlimit:10;}
	.st18{font-size:13.115px;}
	.st19{fill:#808285;}
	.st20{opacity:0.46;enable-background:new    ;}
	.st21{fill:#A7A9AC;stroke:#939598;stroke-width:0.25;stroke-miterlimit:10;}
	.st22{fill:#939598;stroke:#939598;stroke-miterlimit:10;}
	.st23{font-size:11.3054px;}
	.st24{font-size:11.3051px;}
	.st25{fill:none;stroke:#666666;stroke-miterlimit:10;stroke-dasharray:12.0621,12.0621;}
	.st26{fill:none;stroke:#666666;stroke-miterlimit:10;stroke-dasharray:12.0641,12.0641;}
	.st27{fill:none;stroke:#666666;stroke-miterlimit:10;stroke-dasharray:12.0868,12.0868;}
	.st28{fill:#0000FF;}
	.st29{font-size:12px;}
	.st30{font-family:'OpenSans-BoldItalic';}
	.st31{font-size:14px;}
	.st32{font-family:'OpenSans-Bold';}
</style>
<symbol  id="Info" viewBox="-32 -32 63.9 64">
	<path d="M22.6,22.6C16.4,28.9,8.2,32,0,32s-16.4-3.1-22.6-9.4c-12.5-12.5-12.5-32.8,0-45.3C-16.4-28.9-8.2-32,0-32
		s16.4,3.1,22.6,9.4C35.1-10.1,35.1,10.1,22.6,22.6z M19.1-19.1C14-24.2,7.2-27,0-27s-14,2.8-19.1,7.9c-10.5,10.5-10.5,27.7,0,38.2
		C-14,24.2-7.2,27,0,27s14-2.8,19.1-7.9l0,0C24.2,14,27,7.2,27,0S24.2-14,19.1-19.1z"/>
	<circle cx="0" cy="12.3" r="4.7"/>
	<rect x="-4.3" y="-17" width="8.5" height="21.1"/>
</symbol>
<sodipodi:namedview  bordercolor="#666666" borderopacity="1" gridtolerance="10" guidetolerance="10" id="namedview6975" inkscape:current-layer="svg2" inkscape:cx="645.69572" inkscape:cy="470.12758" inkscape:pageopacity="0" inkscape:pageshadow="2" inkscape:window-height="1396" inkscape:window-maximized="0" inkscape:window-width="2387" inkscape:window-x="0" inkscape:window-y="0" inkscape:zoom="0.91333333" objecttolerance="10" pagecolor="#ffffff" showgrid="false">
	</sodipodi:namedview>
<defs>
	
	<clippath  id="SVGID_10_-6">
		<use  height="100%" id="use145-9" overflow="visible" style="overflow:visible" width="100%" x="0" y="0"></use>
	</clippath>
</defs>
<g id="g4960" transform="matrix(1.1339619,0,0,1.1339619,-142.93722,-13.827904)">
	<g id="g4726">
		<g id="g4728">
			<line id="line4730" class="st0" x1="346.7" y1="193.4" x2="328.6" y2="200"/>
			<g id="g4732">
				<path id="path4734" inkscape:connector-curvature="0" class="st1" d="M327.5,200.4c0.4-0.4,0.9-0.9,1.2-1.4v1l0.6,0.7
					C328.8,200.5,328.1,200.4,327.5,200.4z"/>
			</g>
		</g>
	</g>
	<path id="exatlas_youngleaf" inkscape:connector-curvature="0" d="M364.7,151.5L364.7,151.5c-0.7-0.6-1-1-0.4-1.8
		c1.9-2.5,1-4.6-2.5-5.4c-1.5-0.4-2.7-0.7-2.9-2.2c0.2-0.1,0.4-0.4,0.7-0.5c1.4,0.1,2.6-0.4,2.7-1.6c0.1-0.9-0.2-1.9-1.6-2.6
		c-2.5-1.4-5.7-2.1-7.6-4.6c-1.1-1.5-8.1-0.1-9.7,1.6c-1,1-1.7,2.2-3.1,3c-1.3,0.7-2.4,1.2-3.9,0.4c-2.4-1.3-4.9-0.1-7.3,0.1
		c-2.4,0.3-3.8,0-4.3-2.2c-0.4-2.1,1.5-2.1,2.9-2.5c0.3-0.1,0.4-0.5,0.7-0.8c0.4-1.2,2.3-1.3,2.5-2.6c1-0.9,2.8-1.1,3.1-2.6
		c0.2-0.2,0.4-0.4,0.7-0.6c3,1.3,4.4-0.7,6.1-2.2c1.4-0.2,2.8-0.4,4.3-0.6c1.7-1.6,0.5-2.8-1-3.7c-1-0.7-2.3-0.4-3.5-0.4
		c-1.5-0.1-3.3,0.4-3.8-1.7c-0.3-1.3-2-0.9-3.1-1.1c-1-0.2-2.2-0.1-3.4-0.1c1.1-0.4,0.8-2.1,2.4-2.2c0.5,0,1.3-0.3,1.1-0.6
		c-1.9-2.7,1.9-4,1.7-6.3c-0.1-0.4-0.4-0.9-0.7-1.1c-2.4-1.4-1.6-2.5,0.4-3.4c1.4-0.2,3.4,0.7,4.1-0.7c0.9-2-1.3-3.1-2.7-4.3l0,0
		c-0.6-0.8-1-1.8-2.4-1.9c-0.4,0-1-0.2-1-0.4c-0.4-3.9-4.2-3.4-7-4.3c-1.2-0.4-2.7-0.6-2.7-2.2c0.6-2.3-0.3-3.8-3-4.4
		c-2.4-1.1-2.1-3.4-2.3-5.2c-0.5-3.2-2.6-4.8-5.8-5c-4.3-0.3-8.5-1-12.7-1.7c-2.9-0.5-4.3,0.7-4.5,3.3c-3.4,0.4-6.3,1.8-8.7,3.7
		c-1,0.7-1.6,1.9-2.9,2.2c-3.4,1.1-3.4,3.9-4.2,6.3c-0.4,1.3-1,2.4-2.8,2.5c-0.5,0.1-1.1,0.3-1,0.8c0.4,3.1-2.6,3.2-4.6,3.4
		c-2.8,0.2-1.9,3.1-3.9,3.6c0.4,1.1,1,1.9,2.2,2.5c2,1,2.6,3.9,1.3,5.8c-1,1.5-1,1.6,1.3,2.4c0.1,0,0.3,0,0.4,0c2,0,3.4,0.4,2.8,2.6
		c-0.2,0.8,0.4,1.8,1.7,1.7l0,0c0.7,0.1,1.6,0.8,1.3,1.3c-0.7,1-1.9,2.2-3.2,2.2c-4.8-0.1-7.6,1.9-9.2,5.6c-0.5,1.3-2.3,1.3-2.8,2.7
		c-0.4,1-0.8,1.8,0.3,2.5c1.9,0.9,3.6,3,6.3,1.6c0.4,0.1,0.7,0.1,1,0.1c0.4,0.1,0.9,0.4,1.3,0.5c-0.7,2.6-0.1,4.6,3.1,5.5
		c1.6,0.7,3.3,0.5,4.9,0.6c1.9,0.1,3.9-0.1,5.6,1c0.1,0.7-0.3,1.2-0.7,1.8c-0.1,0-0.1-0.1-0.1-0.1c-1.3-0.4-2.4,0-3.1,1
		c-0.2,0.1-0.3,0.2-0.4,0.4c-0.1,0-0.2-0.1-0.3-0.1c-0.1-0.1-0.1-0.1-0.2-0.1c0-0.2-0.1-0.4-0.3-0.7c-0.4-0.3-0.7-0.6-1.1-0.7
		c-0.1-0.3-0.3-0.5-0.7-0.5c-1-0.1-1.9-0.2-3-0.2c-0.3-0.1-0.6-0.2-0.9-0.4c-0.3-0.1-0.6-0.1-0.8,0.1c-0.1,0-0.1,0-0.2-0.1
		c0,0,0,0-0.1-0.1c-0.7-0.5-1.5-0.4-2.1-0.1c-0.4,0.1-0.7,0.4-0.8,0.7c-0.1-0.1-0.2-0.1-0.4-0.1c-0.8-0.4-1.8-0.3-2.3,0.1
		c-0.1,0-0.1,0-0.1,0c-0.7,0-1.3,0.1-1.7,0.4c-1.6,1.3-0.5,2.4,0.9,3.1c-0.1,0.1-0.2,0.4-0.2,0.6c0.1,1.5,1.9,2,3.4,1.9
		c0.4,1.2,1.7,2.2,2.7,2.9c1.1,0.7,2.3,1.6,3.7,2.2c-0.1,0.1,0,0.2,0.1,0.2c0.4,0.1,0.8,0.2,1.2,0.3c0.4,0.1,0.9,0.3,1.3,0.3
		c0.4,0.4,1,0.7,1.5,0.8c0.2,0.1,0.4,0,0.6-0.2l0,0c0.4,0.3,0.7,0.7,1.1,1c1.9,1.5,4,2.6,6.4,3.3c-1,1-1.6,2.5-1.3,4.1
		c0.1,0.8,0.4,1.3,0.8,1.6c-0.1,0.7,0.1,1.3,0.7,1.9c0.6,0.4,1.5,0.7,2.3,0.6c0.3-1.5,2.8,0.9,4.8,0.9l7-0.1c3.2,1.6,5-2.4,5.4-0.9
		c0.4-0.1,0.8-0.4,1.1-0.7c0.1,0,0.2-0.1,0.3-0.1c0.4-0.2,0.7-0.5,0.9-0.8c1-0.7,1.6-1.8,1.6-2.8c-0.1-0.7-0.5-1.3-1.1-1.6
		c0.1-0.5,0.3-1,0.4-1.6c0.5,0,1,0,1.5,0c0.1,0.1,0.3,0.2,0.5,0.3c0.4,0.1,1,0.3,1.6,0.3c0.2,0.5,0.7,1,1.3,1.2
		c0.2,0.1,0.4,0.1,0.7,0.1c0.3,0.7,1,1.2,1.8,1.5c0.7,0.3,1.3,0.6,2.1,0.7c0.4,0.1,0.9-0.3,1.1-0.6c0.1-0.1,0.1-0.3,0.2-0.4
		c0.2-0.1,0.4-0.2,0.6-0.4c0.1,0,0.2,0,0.4-0.1c0.3,0.1,0.7,0.1,1,0.2c0.8,0.4,1.7,0.7,2.6,0.9c0.1,0,0.2,0,0.3,0
		c1,0.4,2.1,1,3.1,1.4h0.1c0.4,0.1,0.7,0.4,1,0.5c2.2,0.9,4.7,1.1,7.1,1.2c0,0.1,0.1,0.1,0.1,0.1c4.3,0.6,10.1,1.3,14.4,0
		c0.2-0.1,0.3-0.4,0-0.5c-1.1-0.2-2.2-0.3-3.4-0.2c1.5-0.6,2.9-1.3,4.3-2.2l0.1-0.1c2.2,0.5,4.3,1.4,6.4,0.1
		c1.5-0.3,3.1-0.6,4.2-1.8C366.7,155.2,366.9,153.4,364.7,151.5L364.7,151.5z M279.2,149.5L279.2,149.5c-0.1,0-0.1,0-0.1,0
		c-0.4-0.1-0.7-0.1-1-0.2c-1.3-0.6-2.6-1.6-3.8-2.3c-0.8-0.5-1.7-1-2.4-1.8c-0.3-0.4-0.5-0.7-0.7-1.2c0.1,0,0.1-0.1,0.2-0.1
		c0.1-0.1,0.2-0.1,0.3-0.1c0.1,0.1,0.1,0.1,0.1,0.1c0.7,0.7,1.6,0.7,2.6,0.5c0.1,0,0.4,0,0.5,0c1.5,1.8,3.2,3.5,4.9,5.1
		C279.7,149.5,279.5,149.5,279.2,149.5L279.2,149.5z M284.2,151.9L284.2,151.9c0,0.1,0.1,0.1,0.1,0.1c-0.9-0.6-1.8-1.2-2.7-2
		c0-0.1-0.1-0.3-0.3-0.3h-0.1c-1.7-1.6-3.3-3.5-4.9-5.3c0.5-0.1,1-0.2,1.4-0.4c0.1,0.1,0.1,0.1,0.2,0.1c0.1,0.8,1.1,1.3,2.3,1.4
		c0.7,2.4,2.4,4.3,4,6.1C284.2,151.6,284.1,151.7,284.2,151.9L284.2,151.9z M291.3,153.1c-0.1,0.1-0.1,0.3-0.1,0.5
		c-0.6,0.1-1.2,0.4-1.7,0.7c-1.1-0.3-2.2-0.7-3.2-1.1v-0.1c-0.1-0.4-0.6-0.5-0.9-0.7c-0.1-0.1-0.1-0.1-0.3-0.1v-0.1
		c-0.7-1.3-1.6-2.4-2.5-3.6c-0.6-0.9-1-1.8-1.3-2.7c1,0.2,2.1,0.2,3.1-0.3c0,0,0,0,0.1,0c0,0.1,0,0.1,0.1,0.1
		c-0.1,0.2-0.1,0.4-0.2,0.7c-0.7,1.7,0.5,2.3,2.1,2.3c0.1,0.1,0.3,0.3,0.5,0.3c0,0,0,0,0,0.1c-0.1,0.6,0.5,1,1.1,1.1
		c0.4,0,0.7-0.1,1.1-0.2c0.1,0.5,0.5,0.9,1,1.1c0.1,0.2,0.4,0.3,0.5,0.4c0.2,0.1,0.5,0.3,0.8,0.4c0.1,0.1,0.1,0.3,0.1,0.4
		C291.6,152.5,291.4,152.8,291.3,153.1L291.3,153.1z M351,155.8L351,155.8L351,155.8c-1.2,0.4-2.4,0.6-3.7,0.8
		c1.1-0.9,2.2-1.8,3.1-2.9C350.9,154.1,351.1,154.7,351,155.8L351,155.8z M333.6,160.1c-1.4-0.4-2.8-1-4.2-1.6
		c-0.7-0.3-1.3-0.6-2.1-0.9c-0.1,0-0.1-0.1-0.2-0.1c1.3,0.1,2.5-0.3,3.6-1.6c0.5-0.6,1.1-1.1,2-0.4c2.5,1.6,5,1,7.5,0.1
		c-0.2,0.2-0.4,0.4-0.7,0.7c-1.6,1.6-3.7,2.9-5.8,3.7C333.6,159.9,333.6,160,333.6,160.1L333.6,160.1z M338.5,160.8
		c-0.9,0-1.8-0.1-2.7-0.1c-0.7-0.1-1.3-0.2-1.9-0.4c2.6-0.8,5.8-2.6,7.7-5c1.3,0.1,2.8,0.2,3.2-1.5c0.9-0.1,1.8-0.1,2.7-0.3
		c1-0.1,1.8-0.2,2.4,0C346.8,156.7,343.2,159.3,338.5,160.8C338.5,160.7,338.5,160.7,338.5,160.8L338.5,160.8z M350.9,159.6
		c0-0.1,0.1-0.1,0.1-0.1c0.1-0.1-0.1-0.3-0.3-0.2c-1.9,1.4-5.1,1.3-7.3,1.4c-1.3,0.1-2.7,0.1-4,0.1c2.5-0.8,4.9-1.9,7-3.4
		c0.1,0.1,0.1,0.1,0.3,0.1c1.3,0.1,2.9-0.1,4.4-0.4c0.1,0.7,0.6,1.4,1.4,1.7C352,159,351.5,159.3,350.9,159.6z"/>
	<text id="text4739" transform="matrix(0.8819 0 0 0.8819 309.6218 294.5212)" class="st2 st3">Phloem/Xylem</text>
	<text id="text4741" transform="matrix(0.8819 0 0 0.8819 352.238 397.3242)" class="st2 st3">Roots</text>
	<text id="text4743" transform="matrix(0.8819 0 0 0.8819 187.004 156.5767)" class="st2 st3">Flowers</text>
	<text id="text4745" transform="matrix(0.8819 0 0 0.8819 350.743 193.3489)" class="st2 st3">Mature Leaves</text>
	<text id="text4747" transform="matrix(0.8819 0 0 0.8819 332.4934 81.7449)" class="st2 st3">Shoot tips</text>
	<text id="text4749" transform="matrix(0.8819 0 0 0.8819 350.743 121.4365)" class="st2 st3">Young Leaves</text>
	<path id="exatlas_wood" inkscape:connector-curvature="0" class="st4" d="M304.4,338.5c0.4-3.7,0.1-7.3-0.1-10.9v-4.9
		c0-12.6,0.1-25.1-0.5-37.7c0-2.8,0-5.5-0.1-8.2c0-1.1-0.1-2.2-0.1-3.3c0-2,0-4,0-6c-0.1-5.8,0.1-11.7-0.1-17.5c0-0.2,0-0.5-0.1-0.8
		c-0.1-1-0.1-2-0.2-3.1c0-0.6-0.1-1.2-0.1-1.8c0.2-3.4,0.2-6.7-0.1-10.1l0,0c0-0.5,0-1.1,0-1.6c0.5-1.7,0.4-4.1,0.3-5.7
		c0.1-0.1,0.2-0.1,0.3-0.2c0-0.7,0-1.4-0.1-2.2c-0.1,0-0.1,0-0.1-0.1c0.2-3.8,0.6-7.9,0.2-11.6c0.3-0.4,0.6-0.7,1-1
		c0.1-0.8,0.1-1.6,0.1-2.5c-0.2,0.2-0.5,0.4-0.7,0.7c0-2.4-0.8-5.2-1-7.1c0-0.1,0-0.1,0-0.1c0.1-0.3,0.2-0.6,0.5-0.9
		c-0.3-0.3-0.4-0.8-0.4-1.3c0.1-1.7,0.3-3.3,0.7-4.9c-0.1,0.1-0.3,0.1-0.4,0.1c-0.6-1.5-0.2-3-0.4-4.4c0-0.8,0-1.6,0-2.3
		c0-2.1,0-4.2,0-6.3c0.1-0.1,0.1-0.3,0.1-0.5c0.1-0.2,0.1-0.4,0.2-0.7l0,0c-0.2-0.7-0.2-1.3,0-2c0.1-0.4,0.2-0.8,0.4-1.2
		c0.1-0.2,0.1-0.4,0.1-0.4c0-0.1,0-0.1,0-0.2c-0.3,0.2-0.6,0.5-0.8,0.7c0-2.5-0.1-5-0.3-7.5c0.1,0,0.2-0.1,0.4-0.1c0-0.4,0-0.7,0-1
		c-0.2-0.1-0.4-0.1-0.5-0.2c-0.1-1.6-0.4-3.2-0.7-4.8c0-0.1,0-0.4,0-0.5c-0.1-0.1-0.4-0.1-0.4-0.1c-0.8-0.3-1.6-0.4-2.5-0.5
		c-1.3-0.1-2.8-0.2-3.9-0.1c0.1,0,0.1,0.1,0.2,0.1c0.1,0.1,0.3,0.2,0.4,0.3c1.8,1.3,0.9,3.2,1.3,4.8c0,0.3,0,0.5,0,0.8
		c-0.4,0-0.9-0.1-1.3-0.1c-0.4-0.2-0.7-0.4-1-0.7c-0.1,0.5-0.2,1-0.5,1.4c1,0.5,1.9,1,2.8,1.6c-0.1,2-0.1,4-0.2,6.1
		c0,0.7,0,1.4-0.4,1.8v0.1c0,0.5,0,1.1,0,1.7c0.1,0.1,0.1,0.4,0.1,0.6c0.1,1.6,0,3.3,0,4.9c0,0.7-0.4,0.7-0.7,0.7
		c0,0.1-0.1,0.1-0.1,0.3c-0.4-0.5-0.9-1.1-1.4-1.6c-0.1,0.2-0.1,0.4-0.2,0.7c0.1,0.7,0,1.4-0.3,2.1c0.4,0.1,0.7,0.1,1.1,0.2
		c0,0.1,0,0.1,0,0.2c0.1,0,0.2,0,0.3,0c0.1,0.1,0.1,0.1,0.2,0.2c0.2,0.2,0.6,0.4,1,0.7c0.1,0.7,0.1,1.6,0.1,3
		c-0.1,3.9,0.3,7.8-0.6,11.7h-1.2c0,1-0.1,1.9-0.2,2.8c0.1,1.3,0.4,2.5,0.5,3.7c0.1,0.1,0.1,0.4,0.2,0.5c-0.3-0.1-0.7-0.3-1-0.4
		c-0.5-0.3-0.9-0.7-1.3-1.1c-0.2,0.8-0.4,1.7-0.5,2.5c0.1,0,0.2-0.1,0.3-0.1c0.1,0.1,0.4,0.2,0.6,0.3c0.6,0.4,1.1,0.9,1.6,1.4
		c-0.1,1.6-0.1,3.2,0,4.9c0.1,3-0.4,5.8-0.8,8.7c-0.3,2.7-0.1,5.3-0.4,8c-0.3,2.8-0.7,5.4-0.3,8.1c0.1,0.2,0.1,0.4,0.3,0.6
		c-1.1,2.8,0.6,6.9,0.5,9.7c-0.1,5.7-1.5,11.8-0.1,17.4v0.1c-1.5,5.2,0.7,11-0.3,16.2c-1,5.4-1.6,11.2-0.8,16.7
		c0.1,0.3,0.2,0.5,0.4,0.7c-0.1,0.4-0.1,0.7-0.1,1.2c-0.2,2.5-0.1,5.2-0.1,7.7c0,5.1-0.2,10.2-0.3,15.3c0,0.2,0.1,0.4,0.1,0.5
		c-1.2,4.1-0.7,9.3-0.7,13.5c-0.1,4.6-0.2,9.3,0.7,13.9c0.1,0.6,0.7,0.7,1.1,0.6c0.7,0.5,2.2,0.5,4.9,0.6c1,0,2,0,3.1,0
		c1.4,0,2.3-0.6,2.3-1.9C304.7,351,305,344.7,304.4,338.5L304.4,338.5z"/>
	<path id="path4753" inkscape:connector-curvature="0" class="st4" d="M294.3,163c2,0.5,4,1.1,6,1.6c0.7,0.2,1.9,0.1,1.9-0.6"/>
	<path id="exatlas_matureleaf1" inkscape:connector-curvature="0" d="M291.4,212.4c-1,0.2-2.1,0.7-3.3,1l0,0
		c-0.2,0.1-0.5,0.1-0.7,0.2l0,0c-0.6,0-1.1,0.1-1.6,0.4c-0.9,0.2-1.9,0.3-2.8,0.3c-1.2,0-2.2-0.4-3.1-0.8l0,0c1-1.3,2.4-1.5,4-0.9
		c0.1-0.1,0.1-0.1,0.2-0.1l0,0c0.1-0.3,0.3-0.5,0.4-0.8c0.2,0.4,0.6,0.7,1,0.8s0.9,0.2,1.3,0.1c0.4,0.2,0.8,0.3,1.3,0.2
		c0.8-0.1,1.6-0.7,2-1.3C290.6,211.9,291,212.1,291.4,212.4c0-1,0.3-1.9,0.9-2.5c-0.5-0.4-1.1-0.7-1.8-1c-0.1-0.3-0.3-0.6-0.5-0.9
		c0.1-0.3,0.2-0.5,0.3-0.8c0.3-0.4,0.3-0.9,0.2-1.3c0.4-0.4,0.4-1,0.3-1.6c-0.3-1.3-1.3-1.4-2.5-1.6c-0.6-0.4-1.1-1-1.5-1.7
		c0-0.5,0.1-0.9-0.4-1.4c-1-1.2-2.5-1-3.7-0.2c-0.2,0.1-0.4,0.4-0.4,0.6c-0.1,0.1-0.1,0.2-0.1,0.4c-1,0-1.9-0.1-2.9-0.2
		c-0.4-1.2-1.9-2.2-3.4-2.4c-0.1,0-0.1,0-0.1,0c-0.1-0.1-0.2-0.1-0.4-0.1c-1.6-0.5-3.2,0.6-3.4,1.9c-0.1,0-0.2,0-0.4,0
		c-0.1-1-1-2-2.1-2.7c-0.3-0.4-0.7-0.6-1.3-0.7c-0.6-0.1-1.1,0.3-1.3,0.8c-0.4,0.1-0.7,0.4-1,0.5c-1,0.4-2.2,1.6-0.7,2.8
		c-0.7,1.4-4.4,2.1-1.3,4.4c1.3,1.5,2.6,2.8,4.9,2.8c0.2,0.1,0.4,0.3,0.7,0.5c-0.6,1.6-2.2,1-3.4,1c-3.8,0.1-7.4-1-11.1-1.3
		c-4.8-0.4-7,1.9-5.1,5.8c0.4,0.8,0.1,1.3-0.3,1.9c-0.7,1-0.5,1.8,0.7,2.4c3.1,1,5.8,3.1,9.2,3.4c2.2,0.6,4.6,1,6.8,0.1
		c0.6-0.1,1.2-0.1,1.8-0.1c1.1,0.3,2.1-0.1,3.1-0.5c0.2-0.6,0.5-1.1,0.9-1.5c2.4,1.2,5.2,1.3,7.7,0.6s4-2.3,5.8-3.8
		c2.1-0.4,4.2-1.2,6.1-1.7C291.5,213.3,291.4,212.9,291.4,212.4L291.4,212.4z M282.2,217.3c-3.1,1.9-6.4,1.9-9.7,1
		c0.4-0.3,0.8-0.5,1.3-0.6c0.4,0,0.7,0,1,0s0.7,0.1,1,0.2c0.5,0.1,1.2,0.1,1.6-0.4c1.1-0.4,1.4-1.3,1.2-2.2c0-0.1,0-0.1,0-0.1
		c1.4,0.9,3.3,1,5.2,0.7C283.3,216.4,282.8,216.9,282.2,217.3L282.2,217.3z"/>
	<path id="exatlas_matureleaf2" inkscape:connector-curvature="0" d="M327.5,170.1c0.1-1.7-0.7-2.6-2-3.1c-0.4-0.7-1.2-1-2.1-0.7
		c-0.1-0.1-0.2-0.1-0.4-0.1c-1.1-0.3-1.2,0.5-2.1,0.5c-0.2,0-0.5,0.1-0.7,0.3c-0.3-0.1-0.6-0.1-0.7-0.1c-0.3,0-0.5,0-0.7,0.1
		c-0.1-0.1-0.3-0.1-0.4-0.1c-0.6-1-1.8-1.1-2.8-0.4c-0.1,0-0.1-0.1-0.1-0.1c-3.5-2-6.1,0.1-7.6,3.1c-0.4,0.3-0.6,0.7-0.5,1.2
		c-0.1,0.1-0.1,0.2-0.1,0.3s0,0.3,0,0.4c-0.4,0.3-0.8,0.7-1,1.4c-0.1,0.7,0.4,1.2,1,1c0.1,0,0.1-0.1,0.2-0.1c-0.7,0.7-1,1.6-1.5,2.5
		c0.4,0.4,0.6,1,0.7,1.6c0.8-0.4,1.6-0.8,2.5-1.1l0,0c0.3-0.1,0.5-0.2,0.8-0.3c0.4,0.2,0.8,0.4,1.3,0.7c0.4,0.1,0.7,0.2,1,0.4
		c-0.7,0.1-1.3,0.3-2.1,0.3c-1.2,0.1-2.4,0.1-3.6,0.1c0.1,0.4,0.1,1,0,1.4c3.6-0.1,7.8-0.3,10.7-2c2.4,0.8,5.9,0.2,6.1-2.5l0,0
		c0.1-0.1,0.1-0.1,0.1-0.2c0.1,0,0.1,0,0.1,0c3.4,0.2,3.1-1.6,2.8-3.4C327.2,170.9,327.5,170.6,327.5,170.1L327.5,170.1z
		 M307.2,175.9c0.4-0.7,0.9-1.4,1.6-2l0,0c-0.1,0.4,0,0.9,0.2,1.3C308.5,175.4,307.8,175.6,307.2,175.9z"/>
	<path id="exatlas_matureleaf3" inkscape:connector-curvature="0" d="M270.4,177.7c-2.9,1.2-3.4,4.9-1,6.9c0.4,0.4,1,0.7,1,1.3
		c0.6,2.7,1.6,3.4,4.4,2.2c0.2,0.3,0.5,0.5,0.9,0.7c2.7,1.9,7.3,2.5,8.9-0.6c0.1,0,0.1,0.1,0.2,0.1c0.1,0.3,0.4,0.6,0.7,0.7
		c1,0.6,2,0.2,2.7-0.4c1,0.1,1.9,0.2,2.8,0.3c0.4,0,0.7,0.1,1,0.1c0-0.4,0.1-0.7,0.1-1c-0.7-0.1-1.5-0.2-2.2-0.4l0.1-0.1
		c0.4,0,0.9-0.1,1-0.7c0.1-0.1,0.1-0.3,0.1-0.4c0.4,0.2,0.8,0.4,1.2,0.7l0.1,0.1c0.2-0.4,0.6-0.9,1-1.3c-0.7-0.6-1.6-1.1-2.5-1.6
		c-0.3-1.6-1-3.4-2.2-4.2c-0.6-0.4-1.3-0.4-1.7-0.1c-0.1-0.1-0.2-0.2-0.4-0.3v-0.1c-0.1-0.3-0.1-0.6-0.2-0.8c-0.1-1-0.8-2-2.2-1.4
		c0.3-1.6,0.6-3.4-0.5-5.1c-1.1-1.7-2.3-2.2-4.2-1.9c-1.8,0.3-3.5,0.8-5.2,1.3c-2.3,0.5-3.7,1.6-2.6,3.9
		C272.1,176.8,271.6,177.3,270.4,177.7L270.4,177.7z"/>
	<path id="exatlas_matureleaf4" inkscape:connector-curvature="0" d="M344.3,203.5c0.8-0.7,1.5-1.9,1.3-2.8
		c-0.1-0.7-0.6-1.1-1.1-1.2c-0.4-0.4-1-0.7-1.6-0.8c-0.1,0-0.1-0.1-0.1-0.1c-0.9-0.2-1.6,0.1-1.9,0.6c-0.3,0.1-0.5,0.4-0.6,0.7
		c-0.7-0.3-1.6-0.4-2.4,0c-0.4-1.8-2.1-2.5-4.5-2.6c-1.4-0.1-2.8,0-3.4-1.2c-0.1-0.3-0.1-0.5-0.3-0.7v-0.1c-0.1-0.3-0.3-0.6-0.6-0.7
		c-0.6-0.6-1.3-1-2.2-1.1c-0.7-0.1-1.5,0.1-2.2,0.4c-0.2-0.1-0.5-0.1-0.7-0.1c-0.7,0.3-1,0.8-1.2,1.4c-0.8,0.1-1.6,0.3-2.5,0.6
		c-1.3,0.4-2.6,0.6-3.8,0.4c-0.4-0.4-1.2-0.4-1.9-0.4l0,0l0,0c-0.4,0-0.8,0.1-1.1,0.2c-0.8,0.3-1.5,0.8-1.9,1.6
		c-0.1,0.1-0.1,0.4-0.2,0.5c-0.5,0.4-1,0.9-1,1.6c-0.1,0.4,0.1,0.8,0.2,1.2c-0.1,0.2-0.1,0.4-0.2,0.6c0.1,0.4,0.1,0.7,0.3,1
		c0.3,0.2,0.6,0.5,0.9,0.8c-0.4,0.4-0.7,0.8-0.9,1.3c-0.4,0.7-0.5,1.7-0.9,2.5c-1.8,0.6-3.4,1.5-4.7,2.7c-0.1,0.7,0,1.5,0.1,2.2
		c0.3-0.3,0.6-0.7,1-0.9c3.4-0.8,7.3-0.1,10.9-0.1c-0.4,1.7,1.3,3.4,3.2,3.5c0.7,0.4,1.6,0.6,2.4,0.2c2.6,1.8,6.1,2.6,9.2,2
		c0.7,0.7,1.6,1,2.6,0.8c1-0.1,1.7-0.7,2.3-1.5c0.1,0.2,0.4,0.4,0.5,0.6c0.4,0.5,1.3,0.3,1.5-0.2c0.3-0.4,0.5-1,0.8-1.4
		c1.2,0.4,2.6-0.2,2.9-1.7c0-0.1,0-0.1,0-0.3c1-0.1,1.9-0.5,2.2-1.6c0.4-0.2,0.7-0.5,1.1-0.9s0.3-1-0.1-1.4c1.6-1.2,1.4-2.5-0.5-4.9
		C344.8,204,344.5,203.8,344.3,203.5L344.3,203.5z M311.7,204.4c0.1-0.2,0.4-0.4,0.6-0.7c0.7,0.1,1.5,0.4,2.2,0.6
		c0.2,0.5,0.4,1,0.7,1.5c-1.6,0.2-3.1,0.5-4.6,0.9C310.9,205.9,311.2,205,311.7,204.4L311.7,204.4z M306.9,210.2
		c2.3-1.6,5-2.5,8.4-2.8c0.1,0,0.3,0,0.4,0c0,0.7,0.4,1.4,0.9,1.9c0,0.1,0,0.1,0.1,0.1C313.3,209.4,310,209.3,306.9,210.2
		L306.9,210.2z M327.3,215.6c-1.4-0.3-2.6-0.9-3.9-1.5c0.7-0.7,1-1.5,1-2.2c1.1,0.3,2.2,0.7,3.4,1c0.5,1.2,1.4,2.1,2.7,2.2
		c0.1,0.2,0.1,0.5,0.2,0.7C329.6,215.9,328.4,215.9,327.3,215.6L327.3,215.6z"/>
	<path id="exatlas_matureleaf5" inkscape:connector-curvature="0" d="M250.9,178.1c0.4,0.4,0.7,0.7,1.2,1c1.1,0.4,2.4,0.1,3.2-0.6
		h0.1c1-0.4,1.6-1.1,1.7-1.9c0.4-0.1,0.7-0.4,1-0.7c0.5-0.2,0.9-0.4,1.2-0.7c2.6,0.1,5.2-0.2,7.7-1.6c1.8-1,3.4-2.1,5.3-3
		c2.3-1.1,4.7-1.5,7.1-2.2c3.6,0.1,7.2,0.1,10.8-0.1c0.1,0.1,0.2,0.1,0.4,0.2c1,0.5,2.1,1,3.1,1.6c0.1-0.5,0.3-1,0.6-1.4
		c-0.5-0.3-1-0.6-1.6-0.9c0-0.1-0.1-0.4-0.4-0.4c-0.1,0-0.3,0-0.4-0.1c-2.8-1.6-5.5-3.2-8.4-4.5c-0.2-0.4-0.4-0.7-0.7-1.1
		c-0.4,0-0.7,0-1,0c-0.1-0.2-0.3-0.4-0.4-0.7c0.1-0.4-0.1-0.7-0.4-0.9c0.2-0.6,0.2-1.3-0.4-2.1c0,0,0,0-0.1-0.1
		c-0.3-0.6-0.8-1.2-1.6-1.5c-0.4-0.7-1.1-1.1-2-1.3c-0.1,0-0.3,0-0.4,0c-0.5-0.4-1.1-0.6-1.9-0.5c-0.3,0-0.5,0.1-0.7,0.1
		c-0.4-0.1-0.9-0.1-1.3,0c-0.1,0-0.2,0.1-0.4,0.1c-0.2-0.1-0.5-0.2-0.7-0.3c-0.1-0.4-0.3-0.8-0.5-1.2c-0.3-0.5-0.9-0.7-1.3-0.5
		c0,0-0.1,0-0.1-0.1c-0.3-1-1.1-1.5-2.2-1c-0.7-1.2-2.2-1.8-3.2-1c-0.8-0.1-1.6-0.1-2.2,0.1c-0.7,0.2-1.6,0.7-2.1,1.3
		c-0.5,0.1-1,0.2-1.4,0.5l0,0c0.1-1,0.1-1.9-0.9-2.8c-3.2-2.7-10.5-3.5-14.1-1.3c-1.1,0.7-1.9,0.5-2.8,0.2c-2.2-0.7-4.4-0.6-6.7-0.1
		c-1.6,0.3-2.7,0.6-2.2,2.4c0.1,0.4,0,0.7-0.2,0.9c-1.9-0.4-3.8-0.1-4.8,1.8c-0.4,0.9-0.9,2.5-0.4,3.4c0.2,0.5,0.7,0.9,1.3,1.2
		c-0.1,0.2-0.3,0.4-0.4,0.7c-1.4,2.4-3.1,4.9-1,7.8c0.1,0.1,0.1,0.3,0.1,0.5l0,0l0,0c-1,1-2.1,1.9-2.8,3.4c-1.3,2.4-0.2,3,2.2,3.2
		l0,0c0.3,0.2,0.6,0.2,0.9,0.3c0.1,0.1,0.3,0.1,0.4,0.2c-0.1,0.4-0.1,0.8,0.1,1.3s0.7,0.9,1.2,1.3c0.1,0.3,0.2,0.6,0.5,0.9
		c1.1,1,3.5,0.9,4.6,0.1c0.4-0.3,0.8-0.7,1-1.3c2.9,1,5.6,1.6,8.5-0.9c0.4,0.2,1,0.2,1.5-0.2c0.3-0.2,0.7-0.4,1-0.4
		c0.1,0.3,0.1,0.7,0.4,1c0.8,1.1,2.2,0.9,3,0.1c0,0.1,0.1,0.2,0.1,0.4C249.2,177.1,250,177.8,250.9,178.1L250.9,178.1z M272.2,163.6
		c0.5,0.6,1.2,1,1.9,1.3c1.6,0.7,2.9,0.7,4.2-0.5c0.1-0.1,0.3-0.3,0.4-0.5c0.4-0.1,0.7-0.1,1-0.2c0.6,0.1,1.3,0.3,1.9,0.5
		c2.1,0.7,4.1,1.7,6.1,2.8c-2.8-0.1-5.5-0.1-8.3-0.1l0,0c-2,0-4,0.1-6.1,0c-0.8-0.1-1.5-0.1-2.1-0.4c0.8-0.6,0.8-1.6-0.4-3
		C271.4,163.5,271.8,163.5,272.2,163.6z M269.1,167c1.1,0.7,2.5,1,3.9,1.1c-0.4,0.1-0.7,0.2-1,0.3c-0.1,0-0.1,0.1-0.1,0.1
		c-2.3,0.2-4.6,0.4-7,0.1C265.9,167.5,267.3,167.2,269.1,167L269.1,167z M259.5,169c4,1,8.5,1.9,12.3,0.7c-0.6,0.3-1.1,0.6-1.7,0.9
		c-2,1.1-3.9,2.5-6.1,3.2c-1.3,0.4-2.8,0.4-4.2,0.4c0.2-1-0.6-2.3-2.4-4.1C257.5,169.1,258.8,169.5,259.5,169L259.5,169z"/>
	<path id="exatlas_flowers" inkscape:connector-curvature="0" d="M244.8,175.7c0.1-9.2,0.4-18.5,0.6-27.7c-0.7,0.2-1.4,0.4-2,0.8
		c-1.1,0.7-1.9,0.5-2.8,0.2c-2.2-0.7-4.4-0.6-6.7-0.1c-1.6,0.3-2.7,0.6-2.2,2.4c0.1,0.4,0,0.7-0.2,0.9c-1.9-0.4-3.8-0.1-4.8,1.8
		c-0.4,0.9-0.9,2.5-0.4,3.4c0.2,0.5,0.7,0.9,1.3,1.2c-0.1,0.2-0.3,0.4-0.4,0.7c-1.4,2.4-3.1,4.9-1,7.8c0.1,0.1,0.1,0.3,0.1,0.5l0,0
		l0,0c-1,1-2.1,1.9-2.8,3.4c-1.3,2.4-0.2,3,2.2,3.2l0,0c0.3,0.2,0.6,0.2,0.9,0.3c0.1,0.1,0.3,0.1,0.4,0.2c-0.1,0.4-0.1,0.8,0.1,1.3
		s0.7,0.9,1.2,1.3c0.1,0.3,0.2,0.6,0.5,0.9c1.1,1,3.5,0.9,4.6,0.1c0.4-0.3,0.8-0.7,1-1.3c2.9,1,5.6,1.6,8.5-0.9
		c0.4,0.2,1,0.2,1.5-0.2C244.6,175.8,244.7,175.8,244.8,175.7L244.8,175.7z"/>
	<path id="exatlas_roots" inkscape:connector-curvature="0" class="st5" d="M351.1,411.2c-1.9-2.6-4-5.4-4-8.7
		c0-1.1,0.2-2.2,0.1-3.2c-0.9-7.5-11.5-9.7-16-14c-0.7-0.7-6.8-12.3-7.8-11.5c1.9-1.5,4.5-1.9,6.8-1.5c2.4,0.4,4.6,1.6,6.5,2.8
		c-1.6-1.7-3.6-3.1-5.7-4.2c-0.7-0.4-1.4-0.7-2.2-0.7c-0.9-0.1-1.8,0-2.6,0.1c-8,0.9-14.4-1.9-19.7-7.9c-0.4-0.5-2.1-4-3.4-7.4
		c-3.1,0.2-6.2,0-9.4-0.8c-0.8,2.2-2.2,4.3-4.4,5.5c-1.4,0.7-3.1,1.1-4.3,2c-1.7,1.2-2.8,3.3-2.7,5.4c0-1.6,1.5-2.8,3-3.3
		s3.1-0.6,4.6-1.2c2-0.8,2.1-0.8,3.5-2.5c-0.2,4.9-1.7,9-6,11.6c-5.3,3.3-12.6,1.5-18.2,4.3c-5.7,2.8-8.7,9.9-14.8,11.5
		c-1.7,0.4-3.5,0.4-5.2,0.7c-5.7,0.9-9.2,4.9-11.4,10c-1.7,3.8-3.1,8.1-6.4,10.7c-2.3,1.9-5.2,2.7-7.7,4.4
		c-3.6,2.4-5.9,6.6-6.1,10.8c1.1-3.4,3.4-6.3,6.4-8.1c3.8-2.4,8.9-3.2,11.4-6.9c1-1.4,1.5-3.1,2-4.7c1-3.1,2.2-6.2,4.2-8.7
		c3.6-4.6,7.6-3.9,12.6-5.2c6.9-1.7,10.8-9.3,17.3-12.2c5.6-2.4,12.3-1.4,18.1-3c0,0.1-0.1,0.3-0.1,0.4c-1.3,6.4-8.7,7.4-13.9,9.4
		c-8.7,3.3-11.4,15.6-19.9,17.6c-2.4,0.6-4.9,0.6-7.2,1.3s-4.6,2.3-5.1,4.7c1.1-1.8,3.2-2.9,5.3-3c2.5-0.1,5.5,1.3,7.5-0.4
		c-2.2,1.9-3.5,6.1-6,8.4c-5.2,4.9-9.4,10.7-12,17.4c-1.5,4.1-2.5,8.4-4.5,12.3c-2.9,5.5-8.1,10.2-8.7,16.5c1.9-6.1,8-9.8,10.8-15.5
		c1.2-2.5,1.7-5.2,2.5-7.8c2.1-6.7,6.9-13.2,12-17.9c0.7,5.8,1,11.6,2.2,17.3c2.3-6-2-13.3,1-19c1.4-2.8,4.1-4.9,5.9-7.3
		c2.6-3.7,3.6-8,6.6-11.5s6.9-6.1,10.9-8.1c1.4-0.7,12.2-4.3,12.3-5.2c-0.8,4.8-1.5,9.6-4.1,13.8c-1.9,3.9-4.1,6.6-8.1,8.4
		c-3.6,1.6-8.7,1-11,4.9c4-1.4,8.3-1.8,12.4-1.2c-2.8,5.2-1,15.4-5.2,19.4c-2,1.9-5.2,2.1-7.1,4.1c-1.7,1.9-1.7,4.8-1.6,7.3
		c0.7-2.2,1.4-4.5,3.4-5.7c0.6-0.4,1.3-0.6,2-0.8c1.6-0.6,3.4-1.1,5-1.7c-0.2-0.4-0.1-1,0.4-1.3c0.7-0.1,0.9,0.9,0.9,1.6
		c-0.4,5.2-2.2,9.9-3.2,15c-1.3,6.6-1,13.5,1,20c-1.3-6.4-0.9-13.2,1.2-19.4c1.2-3.7,6.4-11.1,4.9-15.1c1.9,5.1,9.7,5.2,7.3,12
		c-0.6,1.7-1.7,3.3-2.3,5.1c-0.8,2.2-0.8,4.9-0.1,7.1c0.5-3.5,1.9-6.9,4-9.8c-0.1,3.4,0.3,6.6,1,9.9c0.7,3.4,3.4,6.9,7,7.1
		c-3.4-1.6-4.8-5.8-4.9-9.6c-0.1-3.8,0.6-7.7-0.4-11.4c-0.6-2.4-1.9-4.6-3.8-6.3c-1.3-1.3-3-2.2-4.4-3.4c-4.9-4.6-4.8-13-2.1-18.8
		c2.2-4.6,5.5-8.4,7.6-13.1c2.1,4,3.8,8.3,5.7,12.4c0.9,1.9,1.7,3.8,2.6,5.8c1.2-6.4-4.3-12.2-4.5-18.6c-0.3-11.6,7-22.6,6.2-23.3
		c5.7,4.6,11.5,11,10.1,18.9c-0.3,1.7-0.9,3.4-1.3,5c-1.3,5-0.7,10.4,1.3,15c-1.6-6.4-0.4-13.3,3.1-18.8c-0.1,3.9,1.4,6.2,2.3,9.7
		c1,3.9,0.3,8.3,1,12.3c1,6,4.3,11.1,6.1,16.8c1.6,5-1,10.8,1.5,15.5c0.9,1.7,2.5,3,4,4.2c-2.2-2.7-3.3-6.1-3.1-9.6
		c0.2-3.9,2-7.9,0.4-11.4c-2.2-4.9-4.9-9.8-6.4-15.1c-1-3.5,0.7-15.7-1.2-18c2.9,3.4,9.6,1.4,13.2,4.7c1.2,1.2,1.9,2.8,3,4.1
		c2.5,3.4,6.8,5.5,9.6,8.6c-1-1.4-2.1-2.8-3.4-4c-1-1-2.2-1.8-3.3-2.8c-2.1-2.1-3.3-4.9-4.9-7.5c-4-6.4-12.7-4.4-16.3-10.9
		c-1.4-2.5-1.1-5.2-2.5-7.8c-1.6-3-4.4-5.6-6.4-8.3c-0.9-1.2-6.4-13.5-4.3-13c8.1,1.9,22.6,7.9,23,17.7c0.1,1.9-0.1,3.8,0.1,5.8
		c0.4,2.8,1.8,5.5,4,7.4c-2.2-3.5-1.9-8.2-1.2-12.1c3.5,6.3,14.7,4.9,16.5,13.2c0.5,2.5,0.5,5.2,1.5,7.6c1,2.5,3.1,4.5,4.9,6.5
		c1.9,2,3.5,4.5,3.5,7.2C354.8,417.1,353,413.9,351.1,411.2L351.1,411.2L351.1,411.2z"/>
	
		<path id="path3_2_" inkscape:connector-curvature="0" sodipodi:nodetypes="cccccccccccccccccccccccccccccccccccccccccccccccccccccccccccccccccccccccccccccccccccccccccccccccccccccccccccccccccccccccccccccccccccccccccccccccccccccccccccccccccccccccccccccccccccccccccccccccccccccccccccccccccccccccccccccccccccccccccccccccccccccccccccccccccccccccccccccccccccccccccccccccccccccccccccccccccccccccccccccccccccccccccccccccccccccccccccccccccccccccccccccccccccccccccccccccccccccccccccccccccccccccccccccccccccccccccccccccccccccccccccccccccccccccccccccccccccccccccccccccccccccccccccccccccccccccccccccccccccccccccccccccccccccccccccccccccccccccccccccccccccccccccccccccccccccccccccccccccccccccccccccccccccccccccccccccccccccccccccccccccccccc" class="st6" d="
		M364.7,151.5c-0.7-0.6-1-1-0.4-1.8c1.9-2.5,1-4.6-2.5-5.4c-1.5-0.4-2.7-0.7-2.9-2.2c0.2-0.1,0.4-0.4,0.7-0.5
		c1.4,0.1,2.6-0.4,2.7-1.6c0.1-0.9-0.2-1.9-1.6-2.6c-2.5-1.4-5.7-2.1-7.6-4.6c-1.1-1.5-8.1-0.1-9.7,1.6c-1,1-1.7,2.2-3.1,3
		c-1.3,0.7-2.4,1.2-3.9,0.4c-2.4-1.3-4.9-0.1-7.3,0.1c-2.4,0.3-3.8,0-4.3-2.2c-0.4-2.1,1.5-2.1,2.9-2.5c0.3-0.1,0.4-0.5,0.7-0.8l0,0
		c0.4-1.2,2.3-1.3,2.5-2.6l0,0c1-0.9,2.8-1.1,3.1-2.6c0.2-0.2,0.4-0.4,0.7-0.6c3,1.3,4.4-0.7,6.1-2.2c1.4-0.2,2.8-0.4,4.3-0.6
		c1.7-1.6,0.5-2.8-1-3.7c-1-0.7-2.3-0.4-3.5-0.4c-1.5-0.1-3.3,0.4-3.8-1.7c-0.3-1.3-2-0.9-3.1-1.1c-1-0.2-2.2-0.1-3.4-0.1l0,0
		c1.1-0.4,0.8-2.1,2.4-2.2c0.5,0,1.3-0.3,1.1-0.6c-1.9-2.7,1.9-4,1.7-6.3c-0.1-0.4-0.4-0.9-0.7-1.1c-2.4-1.4-1.6-2.5,0.4-3.4l0,0
		c1.4-0.2,3.4,0.7,4.1-0.7c0.9-2-1.3-3.1-2.7-4.3l0,0c-0.6-0.8-1-1.8-2.4-1.9c-0.4,0-1-0.2-1-0.4c-0.4-3.9-4.2-3.4-7-4.3
		c-1.2-0.4-2.7-0.6-2.7-2.2l0,0l0,0c0.6-2.3-0.3-3.8-3-4.4l0,0c-2.4-1.1-2.1-3.4-2.3-5.2c-0.5-3.2-2.6-4.8-5.8-5
		c-4.3-0.3-8.5-1-12.7-1.7c-2.9-0.5-4.3,0.7-4.5,3.3c-3.4,0.4-6.3,1.8-8.7,3.7c-1,0.7-1.6,1.9-2.9,2.2c-3.4,1.1-3.4,3.9-4.2,6.3
		c-0.4,1.3-1,2.4-2.8,2.5c-0.5,0.1-1.1,0.3-1,0.8c0.4,3.1-2.6,3.2-4.6,3.4c-2.8,0.2-1.9,3.1-3.9,3.6c0.4,1.1,1,1.9,2.2,2.5
		c2,1,2.6,3.9,1.3,5.8c-1,1.5-1,1.6,1.3,2.4l0,0c0.1,0,0.3,0,0.4,0l0,0l0,0c2,0,3.4,0.4,2.8,2.6c-0.2,0.8,0.4,1.8,1.7,1.7l0,0l0,0
		c0.7,0.1,1.6,0.8,1.3,1.3c-0.7,1-1.9,2.2-3.2,2.2c-4.8-0.1-7.6,1.9-9.2,5.6c-0.5,1.3-2.3,1.3-2.8,2.7c-0.4,1-0.8,1.8,0.3,2.5l0,0
		c1.9,0.9,3.6,3,6.3,1.6c0.4,0.1,0.7,0.1,1,0.1l0,0c0.4,0.1,0.9,0.4,1.3,0.5c-0.7,2.6-0.1,4.6,3.1,5.5c1.6,0.7,3.3,0.5,4.9,0.6l0,0
		c1.9,0.1,3.9-0.1,5.6,1l0,0l0,0c0.1,0.7-0.3,1.2-0.7,1.8c-0.1,0-0.1-0.1-0.1-0.1c-1.3-0.4-2.4,0-3.1,1c-0.2,0.1-0.3,0.2-0.4,0.4
		c-0.1,0-0.2-0.1-0.3-0.1c-0.1-0.1-0.1-0.1-0.2-0.1c0-0.2-0.1-0.4-0.3-0.7c-0.4-0.3-0.7-0.6-1.1-0.7c-0.1-0.3-0.3-0.5-0.7-0.5
		c-1-0.1-1.9-0.2-3-0.2c-0.3-0.1-0.6-0.2-0.9-0.4c-0.3-0.1-0.6-0.1-0.8,0.1c-0.1,0-0.1,0-0.2-0.1c0,0,0,0-0.1-0.1
		c-0.7-0.5-1.5-0.4-2.1-0.1c-0.4,0.1-0.7,0.4-0.8,0.7c-0.1-0.1-0.2-0.1-0.4-0.1c-0.8-0.4-1.8-0.3-2.3,0.1c-0.1,0-0.1,0-0.1,0
		c-0.7,0-1.3,0.1-1.7,0.4c-1.6,1.3-0.5,2.4,0.9,3.1c-0.1,0.1-0.2,0.4-0.2,0.6c0.1,1.5,1.9,2,3.4,1.9c0.4,1.2,1.7,2.2,2.7,2.9
		c1.1,0.7,2.3,1.6,3.7,2.2c-0.1,0.1,0,0.2,0.1,0.2c0.4,0.1,0.8,0.2,1.2,0.3c0.4,0.1,0.9,0.3,1.3,0.3c0.4,0.4,1,0.7,1.5,0.8
		c0.2,0.1,0.4,0,0.6-0.2l0,0c0.4,0.3,0.7,0.7,1.1,1c1.9,1.5,4,2.6,6.4,3.3c-1,1-1.6,2.5-1.3,4.1c0.1,0.8,0.4,1.3,0.8,1.6
		c-0.1,0.7,0.1,1.3,0.7,1.9c0.7,0.6,1.9,0.7,3,0.6c0.8,0.7,2.2,0.9,3.4,0.5c0.1,0.1,0.2,0.1,0.3,0.1c0.1,0.1,0.3,0.2,0.4,0.3
		c1.8,1.3,0.9,3.2,1.3,4.8c0,0.3,0,0.5,0,0.8c-0.4,0-0.9-0.1-1.3-0.1c-1-0.7-2-1.3-3.1-1.9c0-0.1-0.1-0.4-0.4-0.4
		c-0.1,0-0.3,0-0.4-0.1c-2.8-1.6-5.5-3.2-8.4-4.5c-0.2-0.4-0.4-0.7-0.7-1.1c-0.4,0-0.7,0-1,0c-0.1-0.2-0.3-0.4-0.4-0.7
		c0.1-0.4-0.1-0.7-0.4-0.9c0.2-0.6,0.2-1.3-0.4-2.1c0,0,0,0-0.1-0.1c-0.3-0.6-0.8-1.2-1.6-1.5c-0.4-0.7-1.1-1.1-2-1.3
		c-0.1,0-0.3,0-0.4,0c-0.5-0.4-1.1-0.6-1.9-0.5c-0.3,0-0.5,0.1-0.7,0.1c-0.4-0.1-0.9-0.1-1.3,0c-0.1,0-0.2,0.1-0.4,0.1
		c-0.2-0.1-0.5-0.2-0.7-0.3c-0.1-0.4-0.3-0.8-0.5-1.2c-0.3-0.5-0.9-0.7-1.3-0.5c0,0-0.1,0-0.1-0.1c-0.3-1-1.1-1.5-2.2-1
		c-0.7-1.2-2.2-1.8-3.2-1c-0.8-0.1-1.6-0.1-2.2,0.1c-0.7,0.2-1.6,0.7-2.1,1.3c-0.5,0.1-1,0.2-1.4,0.5l0,0l0,0c0.1-1,0.1-1.9-0.9-2.8
		c-3.2-2.7-10.5-3.5-14.1-1.3c-1.1,0.7-1.9,0.5-2.8,0.2c-2.2-0.7-4.4-0.6-6.7-0.1c-1.6,0.3-2.7,0.6-2.2,2.4c0.1,0.4,0,0.7-0.2,0.9
		c-1.9-0.4-3.8-0.1-4.8,1.8c-0.4,0.9-0.9,2.5-0.4,3.4c0.2,0.5,0.7,0.9,1.3,1.2c-0.1,0.2-0.3,0.4-0.4,0.7c-1.4,2.4-3.1,4.9-1,7.8
		c0.1,0.1,0.1,0.3,0.1,0.5l0,0l0,0c-1,1-2.1,1.9-2.8,3.4c-1.3,2.4-0.2,3,2.2,3.2l0,0l0,0c0.3,0.2,0.6,0.2,0.9,0.3
		c0.1,0.1,0.3,0.1,0.4,0.2c-0.1,0.4-0.1,0.8,0.1,1.3s0.7,0.9,1.2,1.3c0.1,0.3,0.2,0.6,0.5,0.9c1.1,1,3.5,0.9,4.6,0.1
		c0.4-0.3,0.8-0.7,1-1.3c2.9,1,5.6,1.6,8.5-0.9c0.4,0.2,1,0.2,1.5-0.2c0.3-0.2,0.7-0.4,1-0.4c0.1,0.3,0.1,0.7,0.4,1
		c0.8,1.1,2.2,0.9,3,0.1c0,0.1,0.1,0.2,0.1,0.4c0.4,0.8,1.1,1.5,2,1.8c0.4,0.4,0.7,0.7,1.2,1c1.1,0.4,2.4,0.1,3.2-0.6h0.1
		c1-0.4,1.6-1.1,1.7-1.9c0.4-0.1,0.7-0.4,1-0.7c0.5-0.2,0.9-0.4,1.2-0.7c2.6,0.1,5.2-0.2,7.7-1.6c1.8-1,3.4-2.1,5.3-3
		c2.3-1.1,4.7-1.5,7.1-2.2c3.6,0.1,7.2,0.1,10.8-0.1c0.1,0.1,0.2,0.1,0.4,0.2c2.2,1.1,4.5,2.2,6.5,3.6c-0.1,2-0.1,4-0.2,6.1
		c0,0.7,0,1.4-0.4,1.8v0.1c0,0.5,0,1.1,0,1.7c0.1,0.1,0.1,0.4,0.1,0.6c0.1,1.6,0,3.3,0,4.9c0,0.7-0.4,0.7-0.7,0.7
		c0,0.1-0.1,0.1-0.1,0.3c-0.6-0.7-1.1-1.3-1.9-1.9c-0.8-0.7-1.8-1.3-2.8-1.8c-0.3-1.6-1-3.4-2.2-4.2c-0.6-0.4-1.3-0.4-1.7-0.1
		c-0.1-0.1-0.2-0.2-0.4-0.3v-0.1c-0.1-0.3-0.1-0.6-0.2-0.8c-0.1-1-0.8-2-2.2-1.4c0.3-1.6,0.6-3.4-0.5-5.1s-2.3-2.2-4.2-1.9
		c-1.8,0.3-3.5,0.8-5.2,1.3c-2.3,0.5-3.7,1.6-2.6,3.9c0.4,1,0,1.6-1.2,2c-2.9,1.2-3.4,4.9-1,6.9c0.4,0.4,1,0.7,1,1.3
		c0.6,2.7,1.6,3.4,4.4,2.2c0.2,0.3,0.5,0.5,0.9,0.7c2.7,1.9,7.3,2.5,8.9-0.6c0.1,0,0.1,0.1,0.2,0.1c0.1,0.3,0.4,0.6,0.7,0.7
		c1,0.6,2,0.2,2.7-0.4c1,0.1,1.9,0.2,2.8,0.3c1.3,0.1,2.5,0.4,3.7,0.6c0,0.1,0,0.1,0,0.2c0.1,0,0.2,0,0.3,0c0.1,0.1,0.1,0.1,0.2,0.2
		c0.2,0.2,0.6,0.4,1,0.7c0.1,0.7,0.1,1.6,0.1,3c-0.1,3.9,0.3,7.8-0.6,11.7h-0.8c0,1-0.1,1.9-0.2,2.8c0.1,1.3,0.4,2.5,0.5,3.7
		c0.1,0.1,0.1,0.4,0.2,0.5c-0.3-0.1-0.7-0.3-1-0.4c-1-0.6-1.4-1.5-2.3-2.2c-0.5-0.4-1.2-0.7-1.9-1c-0.1-0.3-0.3-0.6-0.5-0.9
		c0.1-0.3,0.2-0.5,0.3-0.8c0.3-0.4,0.3-0.9,0.2-1.3c0.4-0.4,0.4-1,0.3-1.6c-0.3-1.3-1.3-1.4-2.5-1.6c-0.6-0.4-1.1-1-1.5-1.7
		c0-0.5,0.1-0.9-0.4-1.4c-1-1.2-2.5-1-3.7-0.2c-0.2,0.1-0.4,0.4-0.4,0.6c-0.1,0.1-0.1,0.2-0.1,0.4c-1,0-1.9-0.1-2.9-0.2
		c-0.4-1.2-1.9-2.2-3.4-2.4c-0.1,0-0.1,0-0.1,0c-0.1-0.1-0.2-0.1-0.4-0.1c-1.6-0.5-3.2,0.6-3.4,1.9c-0.1,0-0.2,0-0.4,0
		c-0.1-1-1-2-2.1-2.7c-0.3-0.4-0.7-0.6-1.3-0.7c-0.6-0.1-1.1,0.3-1.3,0.8c-0.4,0.1-0.7,0.4-1,0.5c-1,0.4-2.2,1.6-0.7,2.8
		c-0.7,1.4-4.4,2.1-1.3,4.4c1.3,1.5,2.6,2.8,4.9,2.8c0.2,0.1,0.4,0.3,0.7,0.5l0,0c-0.6,1.6-2.2,1-3.4,1c-3.8,0.1-7.4-1-11.1-1.3
		c-4.8-0.4-7,1.9-5.1,5.8c0.4,0.8,0.1,1.3-0.3,1.9c-0.7,1-0.5,1.8,0.7,2.4l0,0l0,0c3.1,1,5.8,3.1,9.2,3.4l0,0c2.2,0.6,4.6,1,6.8,0.1
		l0,0c0.6-0.1,1.2-0.1,1.8-0.1l0,0c1.1,0.3,2.1-0.1,3.1-0.5c0.2-0.6,0.5-1.1,0.9-1.5c2.4,1.2,5.2,1.3,7.7,0.6s4-2.3,5.8-3.8
		c2.7-0.6,5.5-1.6,7.6-2.2c0.1,0.1,0.4,0.2,0.6,0.3c0.6,0.4,1.1,0.9,1.6,1.4c-0.1,1.6-0.1,3.2,0,4.9c0.1,3-0.4,5.8-0.8,8.7
		c-0.3,2.7-0.1,5.3-0.4,8c-0.3,2.8-0.7,5.4-0.3,8.1c0.1,0.2,0.1,0.4,0.3,0.6c-1.1,2.8,0.6,6.9,0.5,9.7c-0.1,5.7-1.5,11.8-0.1,17.4
		v0.1c-1.5,5.2,0.7,11-0.3,16.2c-1,5.4-1.6,11.2-0.8,16.7c0.1,0.3,0.2,0.5,0.4,0.7c-0.1,0.4-0.1,0.7-0.1,1.2
		c-0.2,2.5-0.1,5.2-0.1,7.7c0,5.1-0.2,10.2-0.3,15.3c0,0.2,0.1,0.4,0.1,0.5c-1.2,4.1-0.7,9.3-0.7,13.5c-0.1,4.6-0.2,9.3,0.7,13.9
		c0.1,0.6,0.7,0.7,1.1,0.6c0.7,0.5,2.2,0.5,4.9,0.6c1,0,2,0,3.1,0c1.4,0,2.3-0.6,2.3-1.9c-0.1-6.3,0.2-12.5-0.4-18.8
		c0.4-3.7,0.1-7.3-0.1-10.9v-4.9c0-12.6,0.1-25.1-0.5-37.7l0,0l0,0c0-2.8,0-5.5-0.1-8.2c0-1.1-0.1-2.2-0.1-3.3l0,0l0,0c0-2,0-4,0-6
		c-0.1-5.8,0.1-11.7-0.1-17.5c0-0.2,0-0.5-0.1-0.8c-0.1-1-0.1-2-0.2-3.1c0-0.6-0.1-1.2-0.1-1.8c0.2-3.4,0.2-6.7-0.1-10.1l0,0l0,0
		c0-0.5,0-1.1,0-1.6c0.5-1.7,0.4-4.1,0.3-5.7c0.1-0.1,0.2-0.1,0.3-0.2c0-0.7,0-1.4-0.1-2.2c-0.1,0-0.1,0-0.1-0.1
		c0.2-3.8,0.6-7.9,0.2-11.6c0.6-0.7,1.2-1.3,1.8-1.9c3.4-0.8,7.3-0.1,10.9-0.1c-0.4,1.7,1.3,3.4,3.2,3.5c0.7,0.4,1.6,0.6,2.4,0.2
		c2.6,1.8,6.1,2.6,9.2,2c0.7,0.7,1.6,1,2.6,0.8c1-0.1,1.7-0.7,2.3-1.5c0.1,0.2,0.4,0.4,0.5,0.6c0.4,0.5,1.3,0.3,1.5-0.2
		c0.3-0.4,0.5-1,0.8-1.4c1.2,0.4,2.6-0.2,2.9-1.7c0-0.1,0-0.1,0-0.3c1-0.1,1.9-0.5,2.2-1.6c0.4-0.2,0.7-0.5,1.1-0.9s0.3-1-0.1-1.4
		c1.6-1.2,1.4-2.5-0.5-4.9c-0.2-0.3-0.5-0.6-0.7-0.9c0.8-0.7,1.5-1.9,1.3-2.8c-0.1-0.7-0.6-1.1-1.1-1.2c-0.4-0.4-1-0.7-1.6-0.8
		c-0.1,0-0.1-0.1-0.1-0.1c-0.9-0.2-1.6,0.1-1.9,0.6c-0.3,0.1-0.5,0.4-0.6,0.7c-0.7-0.3-1.6-0.4-2.4,0c-0.4-1.8-2.1-2.5-4.5-2.6
		c-1.4-0.1-2.8,0-3.4-1.2c-0.1-0.3-0.1-0.5-0.3-0.7v-0.1c-0.1-0.3-0.3-0.6-0.6-0.7c-0.6-0.6-1.3-1-2.2-1.1c-0.7-0.1-1.5,0.1-2.2,0.4
		c-0.2-0.1-0.5-0.1-0.7-0.1c-0.7,0.3-1,0.8-1.2,1.4c-0.8,0.1-1.6,0.3-2.5,0.6c-1.3,0.4-2.6,0.6-3.8,0.4c-0.4-0.4-1.2-0.4-1.9-0.4
		l0,0l0,0c-0.4,0-0.8,0.1-1.1,0.2c-0.8,0.3-1.5,0.8-1.9,1.6c-0.1,0.1-0.1,0.4-0.2,0.5c-0.5,0.4-1,0.9-1,1.6
		c-0.1,0.4,0.1,0.8,0.2,1.2c-0.1,0.2-0.1,0.4-0.2,0.6c0.1,0.4,0.1,0.7,0.3,1c0.3,0.2,0.6,0.5,0.9,0.8c-0.4,0.4-0.7,0.8-0.9,1.3
		c-0.4,0.7-0.5,1.7-0.9,2.5c-1.9,0.7-3.7,1.6-5.2,3.1c0-2.4-0.8-5.2-1-7.1c0-0.1,0-0.1,0-0.1c0.1-0.3,0.2-0.6,0.5-0.9
		c-0.3-0.3-0.4-0.8-0.4-1.3c0.1-1.7,0.3-3.3,0.7-4.9c-0.1,0.1-0.3,0.1-0.4,0.1c-0.6-1.5-0.2-3-0.4-4.4c0-0.8,0-1.6,0-2.3
		c0-2.1,0-4.2,0-6.3c0.1-0.1,0.1-0.3,0.1-0.5c0.1-0.2,0.1-0.4,0.2-0.7c0.1-0.1,0.1-0.1,0.2-0.1v-0.4c0.3-0.6,0.7-1.1,1.2-1.2
		c0.2-0.1,0.4,0,0.7,0c0.4,0.1,0.7-0.3,0.7-0.7c3.6-0.1,8-0.3,11-2.1c2.4,0.8,5.9,0.2,6.1-2.5l0,0c0.1-0.1,0.1-0.1,0.1-0.2
		c0.1,0,0.1,0,0.1,0c3.4,0.2,3.1-1.6,2.8-3.4c0.4-0.1,0.7-0.5,0.7-1c0.1-1.7-0.7-2.6-2-3.1c-0.4-0.7-1.2-1-2.1-0.7
		c-0.1-0.1-0.2-0.1-0.4-0.1c-1.1-0.3-1.2,0.5-2.1,0.5c-0.2,0-0.5,0.1-0.7,0.3c-0.3-0.1-0.6-0.1-0.7-0.1c-0.3,0-0.5,0-0.7,0.1
		c-0.1-0.1-0.3-0.1-0.4-0.1c-0.6-1-1.8-1.1-2.8-0.4c-0.1,0-0.1-0.1-0.1-0.1c-3.5-2-6.1,0.1-7.6,3.1c-0.4,0.3-0.6,0.7-0.5,1.2
		c-0.1,0.1-0.1,0.2-0.1,0.3s0,0.3,0,0.4c-0.4,0.3-0.8,0.7-1,1.4c-0.1,0.7,0.4,1.2,1,1c0.1,0,0.1-0.1,0.2-0.1c-0.7,0.9-1.2,1.9-1.8,3
		c-0.4,0.2-0.7,0.4-1.1,0.7c-0.5,0.4-1,0.7-1.3,1.2c0-2.5-0.1-5-0.3-7.5c0.1,0,0.2-0.1,0.4-0.1c0-0.4,0-0.7,0-1
		c-0.2-0.1-0.4-0.1-0.5-0.2c-0.1-1.6-0.4-3.2-0.7-4.8c0-0.4,0-0.7,0-1.1c0.2,0,0.5,0.1,0.7,0.1c0.1,0.1,0.1,0.3,0.2,0.4
		c1.3,1.9,4.6,0.8,4.9-1.3c0.5-0.1,1-0.4,1.4-0.7c0.1,0,0.2-0.1,0.3-0.1c0.4-0.2,0.7-0.5,0.9-0.8c1-0.7,1.6-1.8,1.6-2.8
		c-0.1-0.7-0.5-1.3-1.1-1.6c0.1-0.5,0.3-1,0.4-1.6l0,0c0.5,0,1,0,1.5,0c0.1,0.1,0.3,0.2,0.5,0.3c0.4,0.1,1,0.3,1.6,0.3
		c0.2,0.5,0.7,1,1.3,1.2c0.2,0.1,0.4,0.1,0.7,0.1c0.3,0.7,1,1.2,1.8,1.5c0.7,0.3,1.3,0.6,2.1,0.7c0.4,0.1,0.9-0.3,1.1-0.6
		c0.1-0.1,0.1-0.3,0.2-0.4c0.2-0.1,0.4-0.2,0.6-0.4c0.1,0,0.2,0,0.4-0.1c0.3,0.1,0.7,0.1,1,0.2c0.8,0.4,1.7,0.7,2.6,0.9
		c0.1,0,0.2,0,0.3,0c1,0.4,2.1,1,3.1,1.4h0.1c0.4,0.1,0.7,0.4,1,0.5c2.2,0.9,4.7,1.1,7.1,1.2c0,0.1,0.1,0.1,0.1,0.1
		c4.3,0.6,10.1,1.3,14.4,0c0.2-0.1,0.3-0.4,0-0.5c-1.1-0.2-2.2-0.3-3.4-0.2c1.5-0.6,2.9-1.3,4.3-2.2l0.1-0.1
		c2.2,0.5,4.3,1.4,6.4,0.1l0,0l0,0c1.5-0.3,3.1-0.6,4.2-1.8C366.7,155.2,366.9,153.4,364.7,151.5L364.7,151.5L364.7,151.5z
		 M279.2,149.5c-0.1,0-0.1,0-0.1,0c-0.4-0.1-0.7-0.1-1-0.2c-1.3-0.6-2.6-1.6-3.8-2.3c-0.8-0.5-1.7-1-2.4-1.8
		c-0.3-0.4-0.5-0.7-0.7-1.2c0.1,0,0.1-0.1,0.2-0.1c0.1-0.1,0.2-0.1,0.3-0.1c0.1,0.1,0.1,0.1,0.1,0.1c0.7,0.7,1.6,0.7,2.6,0.5
		c0.1,0,0.4,0,0.5,0c1.5,1.8,3.2,3.5,4.9,5.1C279.7,149.5,279.5,149.5,279.2,149.5L279.2,149.5L279.2,149.5z M284.2,151.9
		c0,0.1,0.1,0.1,0.1,0.1c-0.9-0.6-1.8-1.2-2.7-2c0-0.1-0.1-0.3-0.3-0.3h-0.1c-1.7-1.6-3.3-3.5-4.9-5.3c0.5-0.1,1-0.2,1.4-0.4
		c0.1,0.1,0.1,0.1,0.2,0.1c0.1,0.8,1.1,1.3,2.3,1.4c0.7,2.4,2.4,4.3,4,6.1C284.2,151.6,284.1,151.7,284.2,151.9L284.2,151.9
		L284.2,151.9z M291.3,153.1c-0.1,0.1-0.1,0.3-0.1,0.5c-0.6,0.1-1.2,0.4-1.7,0.7c-1.1-0.3-2.2-0.7-3.2-1.1v-0.1
		c-0.1-0.4-0.6-0.5-0.9-0.7c-0.1-0.1-0.1-0.1-0.3-0.1v-0.1c-0.7-1.3-1.6-2.4-2.5-3.6c-0.6-0.9-1-1.8-1.3-2.7c1,0.2,2.1,0.2,3.1-0.3
		c0,0,0,0,0.1,0c0,0.1,0,0.1,0.1,0.1c-0.1,0.2-0.1,0.4-0.2,0.7c-0.7,1.7,0.5,2.3,2.1,2.3c0.1,0.1,0.3,0.3,0.5,0.3c0,0,0,0,0,0.1
		c-0.1,0.6,0.5,1,1.1,1.1c0.4,0,0.7-0.1,1.1-0.2c0.1,0.5,0.5,0.9,1,1.1c0.1,0.2,0.4,0.3,0.5,0.4c0.2,0.1,0.5,0.3,0.8,0.4
		c0.1,0.1,0.1,0.3,0.1,0.4C291.6,152.5,291.4,152.8,291.3,153.1L291.3,153.1L291.3,153.1z M270,170.7c-2,1.1-3.9,2.5-6.1,3.2
		c-1.3,0.4-2.8,0.4-4.2,0.4c0.2-1-0.6-2.3-2.4-4.1c0.1-1.1,1.6-0.7,2.2-1.3c4,1,8.5,1.9,12.3,0.7C271.2,170,270.6,170.4,270,170.7
		L270,170.7z M271.8,168.5c-0.1,0-0.1,0.1-0.1,0.1c-2.3,0.2-4.6,0.4-7,0.1c1.2-1.3,2.6-1.6,4.3-1.7c1.1,0.7,2.5,1,3.9,1.1
		C272.6,168.3,272.2,168.4,271.8,168.5L271.8,168.5L271.8,168.5z M279.5,166.9c-2,0-4,0.1-6.1,0c-0.8-0.1-1.5-0.1-2.1-0.4
		c0.8-0.6,0.8-1.6-0.4-3c0.4,0,0.8,0,1.3,0.1c0.5,0.6,1.2,1,1.9,1.3c1.6,0.7,2.9,0.7,4.2-0.5c0.1-0.1,0.3-0.3,0.4-0.5
		c0.4-0.1,0.7-0.1,1-0.2c0.6,0.1,1.3,0.3,1.9,0.5c2.1,0.7,4.1,1.7,6.1,2.8C285,166.9,282.2,166.9,279.5,166.9L279.5,166.9z
		 M290,187.7L290,187.7c0.5-0.1,1-0.2,1.1-0.7c0.1-0.1,0.1-0.3,0.1-0.4c0.4,0.2,0.8,0.4,1.2,0.7c0.4,0.3,0.8,0.7,1.2,1.1
		C292.5,188.1,291.2,187.9,290,187.7L290,187.7L290,187.7z M282.2,217.3c-3.1,1.9-6.4,1.9-9.7,1c0.4-0.3,0.8-0.5,1.3-0.6
		c0.4,0,0.7,0,1,0s0.7,0.1,1,0.2c0.5,0.1,1.2,0.1,1.6-0.4c1.1-0.4,1.4-1.3,1.2-2.2c0-0.1,0-0.1,0-0.1c1.4,0.9,3.3,1,5.2,0.7
		C283.3,216.4,282.8,216.9,282.2,217.3L282.2,217.3L282.2,217.3z M288.1,213.5c-0.2,0.1-0.5,0.1-0.7,0.2l0,0c-0.6,0-1.1,0.1-1.6,0.4
		c-0.9,0.2-1.9,0.3-2.8,0.3c-1.2,0-2.2-0.4-3.1-0.8l0,0l0,0c1-1.3,2.4-1.5,4-0.9c0.1-0.1,0.1-0.1,0.2-0.1l0,0
		c0.1-0.3,0.3-0.5,0.4-0.8c0.2,0.4,0.6,0.7,1,0.8s0.9,0.2,1.3,0.1c0.4,0.2,0.8,0.3,1.3,0.2c0.8-0.1,1.6-0.7,2-1.3
		c0.4,0.3,0.9,0.6,1.4,0.9C290.5,212.6,289.4,213.1,288.1,213.5L288.1,213.5L288.1,213.5z M324.4,211.8c1.1,0.3,2.2,0.7,3.4,1
		c0.5,1.2,1.4,2.1,2.7,2.2c0.1,0.2,0.1,0.5,0.2,0.7c-1.1,0.1-2.3,0.1-3.4-0.1c-1.4-0.3-2.6-0.9-3.9-1.5
		C324.2,213.4,324.5,212.6,324.4,211.8L324.4,211.8L324.4,211.8z M311.7,204.4c0.1-0.2,0.4-0.4,0.6-0.7c0.7,0.1,1.5,0.4,2.2,0.6l0,0
		c0.2,0.5,0.4,1,0.7,1.5c-1.6,0.2-3.1,0.5-4.6,0.9C310.9,205.9,311.2,205,311.7,204.4L311.7,204.4z M315.3,207.3c0.1,0,0.3,0,0.4,0
		c0,0.7,0.4,1.4,0.9,1.9c0,0.1,0,0.1,0.1,0.1c-3.3-0.1-6.7-0.1-9.7,0.8C309.2,208.5,311.9,207.6,315.3,207.3L315.3,207.3z
		 M308.8,173.9L308.8,173.9c0,0.4,0,0.9,0.2,1.3c-0.6,0.2-1.3,0.4-1.8,0.7C307.7,175.3,308.2,174.5,308.8,173.9z M309.3,176.6
		c0.3-0.1,0.5-0.2,0.8-0.3c0.4,0.2,0.8,0.4,1.3,0.7l0,0l0,0c0.4,0.1,0.7,0.2,1,0.4c-0.7,0.1-1.3,0.3-2.1,0.3c-1.3,0.1-2.6,0-3.9,0.2
		C307.3,177.4,308.3,177,309.3,176.6L309.3,176.6L309.3,176.6z M351,155.8L351,155.8c-1.2,0.4-2.4,0.6-3.7,0.8
		c1.1-0.9,2.2-1.8,3.1-2.9C350.9,154.1,351.1,154.7,351,155.8L351,155.8L351,155.8z M333.6,160.1c-1.4-0.4-2.8-1-4.2-1.6
		c-0.7-0.3-1.3-0.6-2.1-0.9c-0.1,0-0.1-0.1-0.2-0.1c1.3,0.1,2.5-0.3,3.6-1.6c0.5-0.6,1.1-1.1,2-0.4c2.5,1.6,5,1,7.5,0.1
		c-0.2,0.2-0.4,0.4-0.7,0.7c-1.6,1.6-3.7,2.9-5.8,3.7C333.6,159.9,333.6,160,333.6,160.1L333.6,160.1L333.6,160.1z M338.5,160.8
		c-0.9,0-1.8-0.1-2.7-0.1c-0.7-0.1-1.3-0.2-1.9-0.4c2.6-0.8,5.8-2.6,7.7-5c1.3,0.1,2.8,0.2,3.2-1.5l0,0c0.9-0.1,1.8-0.1,2.7-0.3
		c1-0.1,1.8-0.2,2.4,0C346.8,156.7,343.2,159.3,338.5,160.8C338.5,160.7,338.5,160.7,338.5,160.8L338.5,160.8L338.5,160.8z
		 M350.9,159.6c0-0.1,0.1-0.1,0.1-0.1c0.1-0.1-0.1-0.3-0.3-0.2c-1.9,1.4-5.1,1.3-7.3,1.4c-1.3,0.1-2.7,0.1-4,0.1
		c2.5-0.8,4.9-1.9,7-3.4c0.1,0.1,0.1,0.1,0.3,0.1c1.3,0.1,2.9-0.1,4.4-0.4c0.1,0.7,0.6,1.4,1.4,1.7C352,159,351.5,159.3,350.9,159.6
		L350.9,159.6z M303.9,213l0.1-5.1"/>
	<line id="line4771" class="st7" x1="303.9" y1="213" x2="304.1" y2="207.9"/>
	<g id="svg_1_2_" transform="translate(186.35897,183.32928)">
		<path id="path207_2_" inkscape:connector-curvature="0" class="st8" d="M112.7,172.1C112.6,172.1,112.6,172.1,112.7,172.1
			C112.6,172.1,112.6,172.1,112.7,172.1L112.7,172.1L112.7,172.1z M137.1,176.9l0.7,0.2l-1.1,0.1c0.4,0.2,1.3,0.1,1.8,0.1
			c0.7,0.1-1.5,0.2-2.2,0.6c-0.7,0.1-2-0.1-1.8-0.1c-0.1,0.4-2.1,0.2-2.8,0.4c-1.9,0-1.2-0.5-2.9-0.4l0.6,0.2
			c-1.5,0.1-2.2,0.1-3.8-0.1c-0.1-0.3,0.7,0.1,1.1,0l-0.7-0.3c0.4,0,1-0.1,1,0.1c0-0.1,0.6-0.3-0.4-0.3c0,0,0.2-0.1,0.4-0.1
			c0.2-0.1,0.4-0.1,0.4-0.1c-0.1-0.1-0.1-0.1-0.1-0.1c0.2,0,0.4,0,0.7,0c0.3,0.1,0.8,0.1,1.3,0.3c0,0.1-0.4,0.1-0.7,0.1
			c0.7,0.1,1.3,0.1,1.7,0c-1.1-0.1-0.5-0.2-0.7-0.4c0.7-0.1,1.8-0.1,2.2-0.1c1,0.1,1.7,0.4,1,0.6c0.6-0.1,1.2,0,1.9-0.2
			c-1.2,0.3,0-0.6-1.6-0.2c-0.4-0.4,1.3-0.2,2-0.1c-0.4,0.1-0.1,0.2-0.1,0.3c1.2-0.1,0.6-0.4-0.2-0.5l1.3-0.2c-0.1,0-0.1,0-0.1,0
			c0.4,0,0.9-0.1,1.3-0.1C137.4,176.8,137.5,176.9,137.1,176.9L137.1,176.9L137.1,176.9z M143.4,176l0.1,0.2c2.3,0.1,4-0.5,6.4-0.4
			c-0.4,0.2-1.3,0.1-1.1,0.2c1.5,0.1,1.3-0.6,2.7-0.3c-2,0.1,1.3,0.1-0.6,0.4c0.7-0.1,1.3-0.1,1.9-0.1c0.3,0,0.7,0,1,0
			c0.1,0,0.3,0,0.5,0c0.1,0,0.3,0,0.4,0.1c0.6,0.1,1.2,0.1,1.7,0.2c0.5,0.1,1,0.1,1.5,0.1c-0.4-0.2,0.7-0.1,0.7-0.2
			c0.4,0.1,0.3,0.2-0.1,0.1c0.8,0.2,1,0.4,0.8,0.7l-1.8-0.1c0.6,0.1,0.9,0.4,1.3,0.4l0,0l0,0c0.2,0.1,0.4,0.1,0.7,0
			c0.3-0.1,0.2-0.1,0.3-0.2c0.6-0.1,1.3-0.2,2.2-0.4l-0.1,0.1c0,0,0.4,0,1,0.1c0.4,0,0.9,0,0.9,0l-0.2,0.1c0,0,1.1-0.1,1.1-0.2
			c0,0.3,0.3,0.1,0.3,0.3c0.7,0.4,2.5-0.4,3.9-0.5l-0.2,0.1c0.7-0.4,2.8-0.6,4.1-0.9v0.1c-0.7,0.3-0.9,0.5-0.4,0.5
			c-0.2,0.1-0.7,0.3-0.9,0.4c-0.4,0.1-1.6,0.4-1.8,0.2c0.9-0.2,0.8-0.2,0.4-0.3c-0.8,0.4-2.5,0.6-2.4,1c-1.3,0.2-0.4,0-1.3,0
			c-0.1-0.1,0.1-0.2,0.4-0.4c0,0-0.2,0.1-0.6,0.1c-0.4,0.1-0.8,0.1-1.3,0.1c-0.4,0.1-0.9,0-1.3,0.1c-0.4,0-0.6,0-0.6,0
			c-0.2,0.3,2.4,0.3,1.1,0.7c-0.1,0.1-0.2,0.1-0.4,0.3c-0.2,0.1-0.5,0.2-1.2,0.1c0-0.1,0.1-0.1,0.2-0.1c-0.6,0-0.7-0.1-1.3-0.2
			c-0.1-0.3,0.8-0.1,1.3-0.3c-0.4,0-0.9,0.1-1.3,0.1l0.1-0.1l-1.3-0.1c-0.6,0.1,1,0.1,1,0.3l-0.9,0.1c-1-0.1-3.6-0.3-4.4-0.7
			c-1.1-0.2-0.7,0.1-0.9,0.3c-0.1,0.1-0.4,0.1-0.5,0.1s-0.1,0-0.2,0h-0.2c-0.3,0-0.7-0.1-1-0.1c0,0.2-0.7,0.2-0.8,0.4l-1.1-0.1
			c-0.6,0.4,1.3,0.1,1.6,0.2c0.6,0.4-0.8,0.1-0.4,0.3c0.8-0.1,0.9-0.2,1.3-0.3c0.1,0,0.2,0,0.3,0s0.1,0,0.1,0s0,0,0.1,0
			s-0.1,0-0.1,0l0,0l0,0l0,0l0,0l0,0c0.1,0.1,0.1,0.1,0.1,0.1c-0.1,0-0.1,0-0.1,0H154l0,0l0,0l0,0c0,0-0.1,0,0.1,0l0,0
			c-0.1,0-0.1,0-0.2,0s-0.2,0-0.3,0c-0.1,0-0.2,0.1-0.3,0.1c-0.1,0.1-0.3,0.1-0.8,0.1v-0.1c0,0.3-1.6,0.1-2.2,0.2
			c-1.2-0.3,1-0.4,1-0.5l-1.5,0.1c0.7-0.1,0-0.4,0.8-0.5c-0.9,0.1-1-0.1-1.9,0c1-0.4-1.2-0.3-1.3-0.6c1-0.1,2.9,0.3,2.7,0.4
			c0-0.1,1.2-0.1,1.7,0.1l0.7-0.4c-0.8,0-1.9,0.1-1.6-0.1l-1.1,0.1c1.1-0.5,1-0.4,2.1-0.7c-2.1-0.4-3.7,0.4-5.5,0.1l0.3-0.1
			c-3.4,0.1-4.2-0.4-4.9-1C142.4,176.1,142.9,176.1,143.4,176L143.4,176L143.4,176z M184,174.9l-0.4,0.1c0.1,0.2,1.2,0.1,2.2,0.3
			c0.3-0.1,1-0.1,1.3,0.1l-0.1,0.1c0.1,0.1,1.1,0.4,2.2,0.6c-0.1,0-0.3,0.1-0.4,0.1c-0.3,0.1-0.6,0.1-1,0.1c0.2,0,0.4,0.1,0.8,0.2
			c0,0-0.5,0.1-1,0.1c-0.5,0.1-1,0.1-1,0.1c0.9,0.2,1.2-0.2,2.3,0.1c-0.1,0.3-0.1,0.4-1.3,0.4c-1-0.2,0.1-0.1-0.4-0.4
			c-0.9,0.2-1-0.5-1.9-0.2c-1-0.1-0.7-0.3-1-0.4c1,0.1-0.4-0.4,0.9-0.3c-1-0.3-0.8,0.2-1.7,0l-0.1-0.4c-0.8-0.1-2.6-0.4-3.7-0.1
			c1,0.1-0.5,0.2-0.4,0.4c0.1-0.3,1.4-0.1,1.4,0c-0.4,0.1-1,0.1-1.6,0.1c-0.3,0.1-0.6,0.1-0.8,0.1c-0.1,0-0.2,0-0.3,0s-0.1,0-0.1,0
			l0,0c0,0,0.1,0,0,0l0,0c0,0,0,0-0.1,0h1.4c-0.2,0.1-0.8,0.3-1.3,0.4l0,0l0,0l0,0l0,0l0,0h0.1l0,0h-0.3h-0.1
			c-0.1,0-0.1,0.1-0.1,0.1c-0.1,0.1-0.2,0.1-0.3,0.1c-0.1,0.1-0.3,0.1-0.3,0.1c-0.5-0.1-1.3,0.1-1.6,0.1l1-0.4c0,0,0.1,0,0.2,0.1
			c0.1,0,0.2,0.1,0.2,0.1l0.5-0.4c-0.7,0-2.1,0.1-2.5,0c0.7-0.1,1.7-0.4,2.9-0.7c0.6-0.1,1.2-0.3,1.9-0.4c0.7-0.1,1.4-0.3,2.2-0.4
			c0,0-0.1,0.1-0.2,0.1c0.4,0,0.7,0,0.9,0s0.4,0,0.6,0.1C183,174.8,183.4,174.8,184,174.9L184,174.9L184,174.9z M191.8,176.7
			c-0.2-0.1-0.4-0.1-0.7-0.2c0.2,0.2,0.5,0.5,1,0.7c0.6-0.1,1.2,0.1,1.7,0.2c0.6,0.1,1.1,0.4,1.8,0.5c0,0,0.2,0,0.4,0
			c0.2,0,0.4,0,0.4,0c-0.1-0.1-0.2-0.2-0.2-0.2c-1.3,0-1.6-0.2-1.9-0.4C193.9,176.9,193.5,176.7,191.8,176.7L191.8,176.7
			L191.8,176.7z M113.9,175.9c1,0.3,1-0.4,1.9,0.1c0.1-0.1-0.1-0.3-0.4-0.4c0.1,0,0.2-0.1,0.2-0.1c0.4,0.1,0.7,0.1,1,0.2
			c0.3,0.1,0.5,0.1,0.4,0.2c-0.1,0.3-1.4,0.1-1.8,0.3C115.1,176.3,113.6,176,113.9,175.9L113.9,175.9L113.9,175.9z M109.1,174.5
			c0.2,0,0.4,0,0.6,0.1l-0.2,0.2C109.2,174.7,109.1,174.6,109.1,174.5z M107,174.4c0.2,0,0.4,0,0.7,0c-0.1,0-0.1,0-0.1,0
			C107.3,174.5,107.1,174.4,107,174.4L107,174.4z M125.4,176.8c0.1,0,0.1,0,0.2,0.1L125.4,176.8z M124.7,176.9c0.3,0,0.7,0,1,0.1
			c-0.1,0.1,0.1,0.3-0.9,0.1C124.8,177,124.8,177,124.7,176.9L124.7,176.9z M123.6,175.7c0.5,0.1,1,0,1.2,0.1c0,0.1-2.7,0.6-3.6,0.7
			c-1-0.1-2.1-0.3-2.7-0.5h0.3c2.4,0.4,3.1,0.4,2.8,0.1s-1.4-0.7-2.8-1.3C120.4,175.2,122,175.6,123.6,175.7L123.6,175.7
			L123.6,175.7z M19.5,179c-0.1,0.1-0.1,0.1-0.1,0.1C19.5,179,19.4,179,19.5,179z M100.5,175.6l0.4-0.1h-0.2c0.1-0.3,1-0.7,2.3-0.7
			c-0.1,0-0.7,0-1.6,0.1l0.3-0.1c1.4-0.1,2.7-0.1,3.9-0.1c-0.4,0.1-0.9,0.2-1.4,0.2c1.3,0.2,3.3-0.4,4,0c-1,0.1-1.7,0.3-2.5,0.4
			s-1.5,0.1-2.5,0.3c-1.1-0.2,1.3-0.3,1.3-0.5h-1.2c0.1,0.1-2.3,0.3-1.6,0.7c2.6-0.1,5.2-0.4,7.4-0.2c0,0-0.1,0.1-0.4,0.4
			s-0.4,0.5-0.7,0.7c-0.2,0.3-0.4,0.6-0.6,0.7c-0.1,0.2-0.3,0.4-0.3,0.4s0,0.1-0.1,0.1c0.3,0,0.5-0.1,0.7-0.1s0.3-0.1,0.4-0.1
			c0.1-0.1,0.2-0.2,0.3-0.3c0.1-0.2-0.1-0.4,0.1-0.5c0.4,0,0.8-0.2,1.3,0l-0.2,0.1c0.7,0,0.7-0.1,0.8-0.1s0.1-0.1,0.7,0
			c1-0.1-0.8-0.1-0.2-0.2c0.6,0.1,0.8-0.1,1.1-0.1c0.3-0.1,0.7-0.1,1.6,0.1c-0.1,0.1,0.1,0.4-1,0.3c0,0,0.3,0.1,0.5,0.1
			c0.3,0.1,0.5,0.2,0.5,0.2c-1.3-0.1-0.5,0-1.9-0.1c-0.7,0.2-0.5,0.4-1.1,0.7c0.5-0.1,0.4-0.3,1.2-0.2c0.9,0.1-0.1,0.1-0.2,0.2
			c1.3-0.2,1.3,0.4,2.4,0.3c-0.1-0.4,0.1-0.4-0.7-0.7c0.8,0,1.8,0.4,1.6,0.7l0.2-0.3c0.1,0.1,0.8,0.2,0.8,0.3l0.3-0.1
			c-0.5-0.3-1-0.5-2-0.5c0.4-0.1-0.4-0.6,0.8-0.4c0.6,0.1,0.1,0.1,0.1,0.3c3,0.3,2.8,1,5.2,1.2c-0.6,0-2-0.4-3.1-0.4
			c0.6,0.4,1.5,0.1,2.1,0.3c-0.6,0-0.7,0.1-0.1,0.4l0.3-0.1c0.4,0.1,1.2,0.1,1.2,0.3c0-0.1-0.1-0.1-0.5-0.2c1.1-0.1,3.1,0.1,5,0.4
			c-0.1,0.1-0.8,0.1-1.3,0.1s-0.8,0-0.1,0.2c0.8,0,1.5-0.3,2.8,0c-0.6,0.1,0.6,0.3,0.6,0.4c0,0,0.5-0.1,1-0.2c0.1,0,0.2-0.1,0.4-0.1
			h0.1l0,0l0,0l0,0h0.1c0.1,0,0.1,0,0.1,0c0.1-0.1,0.3-0.1,0.3-0.1c0.9,0.1,1.9,0.1,2.7-0.1c-0.3,0.1-0.6,0.1-1,0
			c1.3-0.4,2.3,0.1,3.9-0.1l-0.7,0.1c1.2,0.1,2.2-0.1,3.1-0.2v0.3c0.1-0.4,2.2-0.4,2.6-0.6c-2.9,0.2-2.5-0.3-5.3,0
			c1-0.4,1.8-0.4,3-0.8c0.4,0,0.6,0.1,0.7,0.1c0.4-0.1,0.4-0.4,1.2-0.4l0.2,0.1c1.9,0.1,1.7-0.6,3.6-0.5c0.4,0.4-1.6,0.4-2.8,0.7
			c0.9,0.3-1.9,0.1-0.8,0.6l0.5-0.2c0.6,0,0.5,0.2,0.1,0.2c0.7-0.1,0.6,0,0.9-0.1c2.9-0.1-0.3,0.4,2.5,0.6c-0.3,0.1-1.1,0.1-1,0.3
			l-1.6-0.1v0.3c1.9,0,3.1-0.3,4-0.7c-1.8,0.3-0.2-0.3-1.1-0.4c0.4-0.1,0.7-0.1,0.9,0c0.1-0.1,1-0.1,0.9-0.3
			c0.4,0.7,4.3,0.7,3.4,1.3c0.5,0.1,1.6,0.1,2.9,0c0.7-0.1,1.3-0.1,1.9-0.1h0.2l0,0l0,0c0.1,0-0.1,0-0.1,0h0.1h0.1
			c0.1,0,0.3,0,0.5,0c0.3,0,0.7,0,0.9,0l-0.7,0.1c0.7,0.1,1,0.2,1.3,0.2s0.5-0.1,0.7-0.1c0.4-0.1,0.7-0.4,1.4-0.4
			c-1.3,0.1,1,0.4,1.6,0.7c0.6-0.1,1.1-0.1,1.7-0.1c0.6-0.1,1.3-0.1,2.2-0.1c0.4,0.3,0.4,0.7,1.6,0.7l0.7-0.3l0,0l0,0h0.1h0.1h0.1
			c0.1,0,0.1,0,0.2,0s0.3-0.1,0.4-0.1c0.3-0.1,0.5-0.1,0.8-0.1c0.6-0.1,1.2-0.2,1.5-0.2l-0.1,0.1c1.2-0.1,1.1-0.5,0.2-0.4l1-0.4
			l0.1,0.1c1.4-0.5,2.5-1.3,4.7-1.8c-0.5,0.4,1.7,0.1-0.1,0.6c0.5-0.2-0.4-0.1-0.5-0.3c-0.7,0.1-1.3,0.5-1.6,0.7
			c0.3,0.1,0.1,0.5-0.1,0.8c0.7-0.4,2-0.7,3.1-1c0.3-0.1,0.6-0.1,0.8-0.2c0.1,0,0.2-0.1,0.4-0.1c0.1,0,0.1,0,0.1-0.1l0,0l0,0
			c0.1,0-0.1,0-0.1,0l0,0l0,0h0.1c0.4-0.1,0.7-0.3,0.8-0.4c0.2,0,0.4-0.1,0.7-0.1s0.4,0,0.7,0c0.2,0,0.4,0,0.7,0c0.2,0,0.5,0,0.7,0
			c0.5,0,1,0.1,1.6,0.1c0.5,0.1,1,0.1,1.5,0.2c-0.1-0.1-0.2-0.1-0.1-0.1c0,0,0.4,0.1,0.8,0.3c0.4,0.1,0.8,0.3,0.8,0.3h-0.4
			c0,0,0.3,0.1,0.5,0.2c0.3,0.1,0.5,0.2,0.5,0.2c0.1,0.1-0.4,0.1-0.8,0.1c-0.3,0-0.5-0.1-0.2-0.1c-1.3,0,1,0.3,0.1,0.4
			c-0.3-0.1-0.7-0.1-0.9-0.1c0.7,0.2,1.2,0.2,1.6,0.2c0.4,0.1,0.8,0.1,1.2,0.4c0.7-0.1,2.1-0.1,3.4,0.4c-0.5,0.1,1.4,0.2,0.7,0.4
			c0.5-0.1,1.7,0.4,1.9,0.2c-0.2,0.1-0.8-0.1-1.2-0.2c0.6,0,0.7-0.1,1.3,0c0.1,0.1,0,0.1,0,0.1c0.9,0,0.4-0.6,1.9-0.4
			c2.1,0.1,1.9,0.3,1.3,0.4c-0.3,0.1-0.7,0.1-1,0.2c-0.3,0.1-0.5,0.1-0.4,0.1c0.1-0.1,0.6-0.1,1.2-0.1c0.3,0,0.6,0.1,0.9,0.1
			s0.6,0.1,0.7,0.1l-0.2,0.1c0.4-0.1,1.1-0.1,1.6,0.1c0.3-0.3,0.8-0.5,1-0.7c0,0,0.1,0,0.3,0c0.1,0,0.4,0,0.7-0.1
			c0.4-0.1,1-0.1,1-0.1l-0.4,0.1c0.2-0.1,0.4-0.1,0.6-0.1s0.4-0.1,0.6-0.1c0.1,0.1,0,0.1-0.1,0.1s-0.2,0.1-0.3,0.1s-0.1,0-0.3,0.1
			c-0.1,0-0.1,0-0.2,0.1c0.1,0.1,0.1,0.1,0.3,0.1c0.1,0,0.1,0,0.1,0l0,0h0.1h0.1c0.1,0,0.4-0.1,0.5-0.2H203c0.2-0.1,0.7-0.2,1-0.4
			s0.4-0.2-0.3-0.1c1-0.4,1.4-0.1,2.1-0.3c0.1,0.1-0.5,0.3-0.1,0.4c0.7-0.1,1.1-0.2,1.6-0.4c-0.5,0.1,0.1-0.1-0.7-0.1
			c0.3-0.1,1.1-0.4,1-0.4c-0.2,0.1-0.4,0.2-0.9,0.2c0.9-0.3,1.8-0.5,2.7-0.6c0,0.1-0.1,0.1-0.2,0.1c0.5-0.3,1.3-0.5,1.9-0.7
			c0.7-0.2,1.3-0.4,1.6-0.6h-0.4c-0.2,0.1-0.8,0.2-1,0.2c0.8-0.2-0.7-0.1,0.2-0.5c0.6-0.1,1.2-0.2,1.7-0.3c0.3,0,0.5-0.1,0.7-0.1
			c0.1,0,0.1,0,0.1-0.1c0.1,0,0.1,0,0.1-0.1s0.1-0.1,0.3-0.1c-0.6,0.1-1.3,0.1-1.9,0.1c-0.6,0.1-1.1,0.1-1.3,0.3l0.7-0.1
			c0,0-0.4,0.2-0.8,0.4s-0.8,0.4-0.8,0.4c-0.1-0.1-1.5,0.4-1.6,0.2c0.6-0.2,1.1-0.3,1.6-0.4c-0.1-0.1-1.6,0.3-2.3,0.4l0.8-0.1
			c-0.7,0.3-1.5,0.5-2.3,0.7c-0.4,0.1-0.8,0.2-1.2,0.3c-0.4,0.1-0.8,0.2-1.2,0.3c0.6-0.2,0.2-0.2-0.2-0.1c-0.4,0-0.8,0-0.4-0.1
			c0.4-0.2,1-0.1,0.8-0.1c0.1-0.2-0.9,0.1-1.2,0c-0.1,0.1-0.4,0.2-0.7,0.3c-0.1,0-0.1,0.1-0.1,0.1c-0.1,0-0.1,0.1-0.1,0.1
			s0,0.1,0.1,0.1c0,0,0,0,0.1,0c0,0,0,0,0.1,0s0.1,0,0.1,0c-0.3,0-0.7,0-1,0.1c-0.4,0.1-0.8,0.1-1.2,0c0.2,0.3-1.3,0.1-1.5,0.3
			c-0.3,0-0.5-0.1-0.7-0.1c0.3,0,0.7-0.1,1-0.1c0.4-0.1,0.7-0.1,1.1-0.1l0,0c0.3,0.1,0.9,0,0.7-0.1V179c0.4-0.1,0.7-0.1,1.1-0.3
			c0.4-0.1,0.7-0.2,1-0.3c0.7-0.1,1.2-0.4,1.6-0.5l-0.4,0.2c0.3-0.1,0.5-0.2,0.8-0.3s0.6-0.1,0.8-0.2c0.6-0.1,1.1-0.2,1.7-0.5
			c0,0.1-0.1,0.1,0.1,0.1c1.4-0.3,1.9-0.9,3.1-1l-0.1,0.1c0.1-0.1,0.7-0.3,0.6-0.4c-1,0.2-1.1,0.4-2,0.5c0.3-0.2,1-0.5,1.6-0.7v-0.3
			c0.7-0.4,1.5-0.1,2.2-0.5c0,0-0.2,0-0.4,0s-0.4,0-0.4,0l0.1-0.1c-0.4,0.1-0.7,0.2-0.8,0.3c-0.7,0.2-1.2,0.2-1.6,0.2
			s-0.6-0.1-0.7-0.1c-0.6,0.1,0.1-0.4,0-0.5c-1,0.3-0.8,0.6-1.8,0.9c-0.3,0-0.1-0.1,0-0.1l-0.7,0.3c-0.1-0.1-1.6,0.2-0.7-0.1
			c0.1,0,0.4-0.1,0.6-0.1c-0.4,0.1-0.7,0.1-1.1,0.1s-0.8,0.1-1.1,0.1c-0.7,0-1.2,0-1.2-0.1c-0.4,0-0.5,0.1-0.7,0.1
			c-0.1,0-0.2,0.1-0.4,0.1c-0.1,0-0.1,0-0.3,0h-0.1l0,0l0,0c-0.1,0,0.1,0,0.1,0l0,0h-0.1c-0.1,0-0.1,0-0.1,0
			c-0.4,0.2,0.1,0.4-1.1,0.7l1,0.1c0.1,0,0.1-0.1,0.3-0.1c0.1,0,0.1,0,0.1-0.1h0.1l0,0l0,0c0.1,0-0.1,0-0.1,0l0,0l0,0l0,0l0,0h0.1
			c0,0,0,0-0.1,0l0,0l0,0l0,0h0.1l0,0l0,0H202c-0.1,0-0.2,0-0.3,0c-0.2,0-0.5,0.1-0.5,0.1c0.6-0.1,0.5-0.2,0.7-0.4
			c0.1,0,0.1,0,0.1,0h0.1l0,0c0,0,0.1,0-0.1,0l0,0l0,0l0,0c0.1,0,0.1,0,0.3,0s0.3,0,0.4,0c0.3,0,0.5,0,0.7,0.1c0.4,0,0.7,0.1,1,0.1
			c-0.4,0.2-1.2,0.4-0.9,0.5c-0.4-0.1-0.6,0-0.9,0.1c-0.1,0.1-0.2,0.1-0.4,0.1c-0.1,0-0.1,0-0.2,0h-0.1c0,0-0.1,0,0.1,0l0,0l0,0l0,0
			h-0.1c-0.1,0-0.1,0-0.1,0l0.1-0.1c-0.7,0.2-0.8,0-1.4,0.2c0.1-0.1-0.1-0.1-0.1-0.1c-1.3,0.1,0.4,0.1-0.9,0.4
			c-1.2-0.1-0.4-0.4-0.7-0.6c1-0.1,1-0.3,1-0.4c0-0.1,0-0.1,0.1-0.1s0.4-0.1,0.9-0.2c0-0.1-0.2-0.2-0.5-0.3s-0.8-0.1-1.3,0
			c0.7,0.1-0.4,0.5,0.4,0.7c-0.4,0.1-0.7,0.1-1,0.1c-0.2,0.1-0.4,0.1-0.7,0.2c-0.4,0.1-0.9,0.1-1.8-0.1l0.1-0.1c0,0-0.2,0.1-0.4,0.1
			c-0.2,0.1-0.4,0.1-0.4,0.1l-1-0.3c0.7-0.3,1.6,0.1,2.1-0.1c-1.3-0.5-1.8,0.1-3.4-0.1c-1.2-0.7,1.6,0.1,1.6-0.3
			c-0.3,0.1-1.1-0.3-1-0.4c1.4,0.4,0.9-0.1,2.5,0.4c-0.7,0,0.1,0.1-0.1,0.3c0.2-0.1,1.7,0,2.7,0.1c0.2-0.2-0.9-0.2-1.5-0.4
			c-0.6,0.1-1.3-0.1-1.9-0.1c-0.6-0.1-1.1-0.3-1.6-0.2c-1.3-0.2-0.1-0.3-0.1-0.3c-1.2-0.3-0.6,0.1-1,0.1c-1.9-0.1-2-0.7-3.4-1
			c-1.2,0.1-4-0.6-6.1-0.8c0.3-0.1,0-0.2-0.1-0.4c-0.7,0.1-0.9,0.2-1.1,0.3c-0.2,0-0.5,0-1.3,0.1c0,0,0.3,0.1,0.7,0.1
			c0.1,0,0.3,0.1,0.4,0.1s0.2,0.1,0.2,0.1c-0.5,0-1,0.1-1.5,0.1c-0.2,0-0.4,0-0.7,0c-0.2,0-0.5,0-0.7-0.1c0.7,0.2,0.2,0.3-0.4,0.4
			c-0.1,0-0.4,0-0.6,0.1c-0.1,0-0.4,0.1-0.5,0.1c-0.4,0.1-0.7,0.1-0.8,0.1h-0.1l0,0h-0.1l0,0l0,0h0.3h-0.2c-0.1,0-0.3,0.1-0.4,0.1
			c-0.2,0.1-0.5,0.1-0.7,0.1c-0.4,0.1-0.8,0.2-1.1,0.1l0.1-0.1c0,0-0.4,0.1-0.7,0.1c-0.4,0.1-0.7,0.1-0.7,0.1l0.1-0.4
			c-1,0.1-2.2,0.7-1.8,0.7c-1,0.1-0.4-0.1-0.7-0.2c0.5-0.3,1.7-1,2.2-0.7c-0.1,0-0.3,0-0.4,0.1c1.4-0.2,1.6-0.4,1.6-0.6
			c0-0.1-0.1-0.4,0.5-0.5c-0.4,0.1-0.7,0.1-1,0.1c-0.3,0.1-0.7,0.1-1,0.2c-0.4,0.1-1.7,0.6-2.4,0.9c0.9-0.4,1.4-0.4,2.2-0.4
			c-0.7,0.1-0.7,0.4-1.3,0.4l0.1-0.1l-0.7,0.3c-0.1-0.2-1.9,0.4-0.9-0.1c-0.9,0.3-0.2,0.3-1,0.6c0,0,0.4-0.1,0.8-0.1
			c0.4-0.1,0.8-0.1,0.8-0.1v0.3c-0.6,0.3-0.7,0.1-1.4,0.3l0.1,0.3c0,0-0.3,0-0.6,0s-0.6,0-0.6,0c0.1,0.1-0.1,0.1-0.3,0.2
			c-0.1,0-0.2,0.1-0.4,0.1s-0.2,0-0.3,0.1c-0.4,0-0.4-0.1-0.6-0.2c-0.1-0.1-0.1-0.1-0.3-0.1c-0.1,0-0.1,0-0.2,0.1l0,0l0,0l0,0
			c0.1,0,0.1,0,0.1,0l0,0l0,0l0,0h-0.1c-0.1,0-0.1,0-0.1,0.1h0.1c-0.6,0.1-0.9,0.2-1.8,0.1c0.1-0.1,0.3-0.1,0.4-0.1
			c-0.3-0.1-0.7-0.1-1-0.1c-0.4,0-0.7,0-1.1,0c-0.7,0-1.4-0.1-1.7-0.4c0.1-0.2,0.7,0,0.7-0.3c1,0.3,1.3,0.1,1.7,0.1s0.8-0.2,1.9-0.1
			c0.1,0.3,0.5,0.2,1,0.1l0.1-0.1l0,0l0,0c-0.2,0-0.1,0-0.1,0l0,0l0,0h0.1h0.1c0.1,0,0.3-0.1,0.4-0.1c0.2,0,0.4,0,0.6,0.1
			c-0.2,0-0.5,0.1-0.7,0.1c-0.1,0-0.2,0.1-0.4,0.1l0,0l0,0l0,0h0.1l0,0h-0.1c-0.1,0-0.1,0-0.1,0.1c-0.4,0.1-0.6,0.2-0.5,0.2
			c0.2,0,0.4,0,0.6-0.1h0.1h0.1l0,0c-0.1,0-0.1,0-0.1,0h0.2c0.1,0,0.2,0,0.4-0.1c0.2,0,0.5-0.1,0.7-0.1s0.4-0.1,0.5-0.1
			c-0.5-0.1-0.4-0.4-0.1-0.7c-0.1,0.1-0.3,0.1-0.5,0.1s-0.4,0.1-0.7,0.1c-0.1,0-0.2,0-0.4,0h-0.2l0,0l0,0l0,0c0.2,0,0.1,0,0.1,0
			h-0.1h-0.1c-0.2,0-0.4,0-0.7,0c-0.9-0.1-1.9-0.2-2.8-0.3l0.1,0.4c-1.6,0.1,0.2-0.3-1-0.4l-0.6,0.2l-0.1-0.1c0,0-0.1,0-0.1,0.1
			c-0.1,0-0.2,0.1-0.4,0.1c-0.2,0.1-0.5,0.1-0.5,0.1c0.7,0.1,0.4-0.2,1.2,0c0.7,0.2-0.1,0.3-0.3,0.4c-0.4-0.1-2.2-0.3-1-0.4
			l-1.9,0.1c0-0.1,0.4-0.1,0.7-0.2c0,0-0.4,0-0.7-0.1c-0.4,0-0.7,0-0.7,0l0.1-0.1c-0.3,0-0.7,0-1,0s-0.6,0-1,0.1c-0.1,0-0.3,0-0.4,0
			h-0.1l0,0l0,0h-0.1l0,0h-0.1c-0.1,0-0.1,0-0.2,0c-0.3,0.1-0.5,0.1-0.7,0.1c1.9,0.3-0.9,0.3-0.7,0.5c-0.7,0-0.9-0.7,0.5-0.9
			c0.2,0.1,0.5,0.1,0.9,0.1h0.1h0.1l0,0l0,0h0.1h0.3c0.2,0,0.4,0,0.6,0c-0.2-0.1-0.4-0.1-0.6-0.1c-0.1,0-0.1,0-0.2,0h-0.1h-0.1h-0.1
			c-0.3,0-0.5,0.1-0.9,0.1c0.5-0.1-1-0.2-1-0.4c0.1-0.1,0.4-0.4,1.3-0.3c1.3,0,0.1,0.3,0.5,0.3l0.1,0.1l0,0l0,0l0,0h0.1l0,0l0,0l0,0
			h0.1c0.1,0,0.1,0.1,0.3,0.1c0.2,0,0.4,0,0.7,0c0.1,0,0.3,0,0.4,0s0.3,0,0.4,0c0.3,0,0.6,0,0.8,0.1c0.1,0.1-0.2,0.1-0.4,0.1
			c0.4,0,1,0.1,1.5,0.1s0.9,0,1-0.1h-1.9c-0.4-0.1,0.7-0.1,0-0.4c-0.4,0-1,0-1.6-0.1l0.1-0.1c-0.3-0.1-0.6-0.1-0.9-0.1
			c-0.1,0-0.3,0-0.5-0.1h-0.1h-0.2h-0.1h-0.3c-0.7,0-1.4,0.1-2.1,0.1c-0.3,0.5-1,0.8-1.5,1.4c-1.9,0-3.8,0-5.8-0.1
			c0.4-0.2,1.7-0.4,3.1-0.3l-0.6,0.1c1.1,0.1,1.5-0.1,2-0.2c-0.1,0.1,0,0.1,0.2,0.1c1-0.1,1.5-0.4,1-0.5l-0.3,0.1l-0.7-0.2
			c-0.3,0.5-2.2,0.2-3.4,0.4c0.7-0.2,1.4-0.7,2.4-0.4l-0.1-0.2c0.8-0.1,1.5,0.2,2,0l-1,0.1v-0.1c-0.7,0-1.6,0.2-2.2,0.1
			c-0.6,0.1-1.1,0.4-2.6,0.4l0.1-0.1c-1,0.4-2.8-0.3-3.7-0.1c-0.4,0.4,1.6,0.2,2.2,0.4c-0.7,0.1-1.3-0.1-0.7,0.2
			c-1.5,0.2-0.9-0.4-2.1-0.1l0.7,0.1c-0.5,0.2-1.5,0.1-2,0.3c-0.1,0.3,1,0,2,0.1L140,176l2.1-0.3c0.6-0.4,0.1-0.4,1.3-0.7
			c0.7,0.2,1,0.7,0.7,1c-0.6-0.1-1.6,0-1.6-0.3c-0.6,0.3-2.3,0.4-2,0.7c-0.1,0-0.1,0-0.2,0c-0.7-0.3-1.8-0.5-3.7-0.6
			c-0.4,0-0.4,0.1-0.4,0.4c-0.4-0.1-0.8-0.1-1.2-0.1c0.3-0.1,0.5-0.3,1-0.3l-3.1-0.1l0.2-0.1l-1.2,0.1c0.7-0.1,1.7,0,1.5,0.3
			c-1.3,0.2-2.1-0.1-3.3,0.3c0-0.5-0.4-0.6,0-0.8c0.1,0,0.1,0,0.1,0c0.4-0.3,1.3-0.5,2.1-0.6c-2.5-0.1-1.9,0-4.1-0.1
			c-0.1-0.3,2-0.3,1.5-0.5l2.1,0.1c-0.4,0-0.4,0.1-0.6,0.1c1.4-0.2,1.9,0.1,3-0.3c0.7,0.1-1,0.2-0.3,0.3c-0.6,0.1-1.3,0.4-1.6,0.6
			c1.6,0.1,0.9-0.4,2.3-0.4l1,0.2c0.6-0.1-0.2-0.1-0.2-0.2c0.7-0.1,1,0.1,1.6,0.1c-0.1-0.1-0.5-0.1-0.4-0.2c1,0.2,1.9,0.1,2.8,0.4
			c-0.5-0.2,0.6-0.5,1-0.5l-1.8-0.4c-2.3,0.1-3.7-0.1-6.3,0.1l0.1-0.1c-1.9-0.2-2.8-0.1-3.5,0.2c-0.4,0.1-0.7,0.3-1.2,0.4
			c-0.4,0.1-1,0.1-1.7,0.1c-0.1-0.4-1.4-0.1-1.3-0.4c1,0.1,0.7-0.1,0.5-0.2c-0.5,0.1-1,0.3-2,0.1c0.4-0.1-0.5-0.4,0.5-0.4
			c-0.7-0.1-1.3-0.2-1.7-0.2s-0.9,0-1.3,0.1c-1.2-0.1-1.4-0.1-1.6-0.3c-0.1-0.1-0.3-0.3-1.6-0.4l0.4-0.1l-1.6-0.2l0.4,0.3l-1.9-0.1
			c-1.2,0,0.4,0.3,0.2,0.4l0.4-0.2c0.7,0.2,1.9,0.1,1.9,0.4c-1.2-0.1-1,0.1-1.5,0.1l1.2,0.1l0.4,0.3c1.1,0.2,2,0.4,2.7,0.3
			c-0.4-0.1-0.8,0.1-1.2-0.1c0.6-0.2,2,0,3.3,0c0,0.1,0.4,0.1,0.2,0.2c0,0-0.3,0-0.4-0.1c0.1,0.1-0.7,0.1,0.5,0.4
			c-0.4,0.1-1.5,0.4-1.4,0.5c-0.7-0.1-1.8-0.2-2.4-0.4l0.1-0.1c-0.6-0.1-2.1-0.1-2.2-0.4c-0.4,0-1.6-0.1-0.4,0.2c0,0-0.4-0.1-1-0.1
			c-0.4-0.1-1-0.1-1-0.1c0.4-0.4-1.4-0.7,0.5-0.8c-0.1,0-0.7-0.1-1.9-0.1c0,0,0,0,0.1-0.1c0.1,0,0.1,0,0.1-0.1
			c0.2,0.1,0.4,0.1,0.4,0.1c0.7-0.2-0.2-0.4-1.3-0.6l-0.3,0.2c-0.4-0.1-0.8-0.2-1.2-0.4c-0.4-0.1-0.9-0.1-1.5-0.1
			c0,0-0.7,0.2-1.5,0.4c-0.7,0.2-1.6,0.5-1.6,0.5c-0.3,0-0.5,0.1-0.8,0.1c-0.1,0-0.2-0.1-0.4-0.1c-0.1,0-0.1,0-0.2,0s-0.1,0-0.1,0
			l0,0h-0.1h-0.1c-0.3,0-0.4,0-0.2-0.2c-0.1-0.1,0-0.1,0.1-0.1s0.1,0,0.1,0s0.1,0,0.2,0s0.2,0,0.4,0c0.1,0-0.1,0.1,0.1,0.1
			c0.1-0.1,0.2-0.4-0.4-0.5c0.7,0,0.7,0,1.2-0.1h-0.7c0.2,0,0.5-0.1,0.8-0.1c0.3-0.1,0.7-0.1,1-0.1c0.6-0.1,1-0.3,1-0.4
			c-0.3,0.3-1.1,0-1.7-0.1c0.4-0.1,1.5-0.2,0.7-0.3c-0.1,0-0.2,0.1-0.4,0.1c-0.2,0.1-0.4,0.1-0.6,0.1c-0.3,0.1-0.4,0.1,0.2,0.2
			c-0.3,0.1-0.6,0.1-0.9,0.2c-0.1,0-0.3,0.1-0.5,0.1c-0.1,0-0.2,0-0.4,0c-0.1,0-0.1,0-0.2,0c0.1-0.1,0.3-0.1,0.4-0.1l0,0l0,0l0,0
			l0,0l0,0h0.1l0,0l0,0c0,0,0,0,0-0.1s-0.1-0.1,0-0.2l0,0l0,0l0,0l0,0h-0.1l0,0h-0.1c0,0-0.1,0-0.1,0.1c-0.1,0-0.1,0.1-0.1,0.1
			c-0.1,0.1-0.1,0.1-0.1,0.1c-0.1,0.1-0.1,0.1-0.1,0.2c-1.9-0.1-2.7-0.6-4.7-0.1c-0.3,0.1,1.3-0.2,1,0c-1.5,0.5-2-0.2-3.3,0.1
			l0.4,0.3c-0.4,0.1-1.3,0.2-1.9,0.3c-0.1-0.1-1.6-0.2-0.5-0.4c-2.2,0-1.9,0.9-4.5,1c1.2,0,1.3-0.1,2.2-0.1c-1,0.3-0.1,0.1-0.2,0.4
			c-0.6-0.1-2.5,0.2-1.3-0.1c-0.8,0.1-2.4,0.2-2.8,0.4l0.7,0.1c-1.1,0.1-2.2,0.4-2.7,0.7c1.4-0.1,1.3-0.6,3.1-0.7
			c2,0.1-0.4,0.3,0.9,0.5l1.3-0.4H91c0.1-0.4,2.2-0.1,1.9-0.6c1.4,0.1,1.9-0.1,3.4,0.1c0.4-0.1-0.2-0.1-0.7-0.1
			c0.8-0.1,0.8-0.4,1.9-0.3c0.5,0,0.1-0.3-0.8-0.2c0.8-0.1,1.6-0.2,2.5-0.2l-0.9-0.1l0.9-0.1l-0.8-0.1c1.8-0.2,3.8-0.4,4.8-0.1
			c-1.5,0.4-4.1,0.5-4.9,1c0.4,0.1,1.2-0.4,1.7-0.1l0.4-0.3c0.5-0.1,1.8-0.4,1.9-0.1c-1.5,0.3-1.9,0.6-2.5,0.8
			c0,0.1-0.1,0.1-0.4,0.1l0,0l0,0c-0.4,0.1-1.2,0.1-1.6,0.2c-0.5,0-0.1-0.1-0.1-0.2c-1.8-0.1-3,0.8-4.9,0.7c-0.1-0.2-1.5-0.1-1-0.3
			c-1.1,0.1-1.6,0.4-2.4,0.6c-0.1-0.1-1.6,0.1-1.1-0.1l-1,0.4c-0.7-0.1-2.1,0.2-2.4,0.1c-0.7,0.1-0.1,0.4-1.3,0.4
			c0.1-0.1-0.1-0.1,0.1-0.1c-0.4-0.1-1.6,0.1-2.1,0.2c0.7,0,0.1,0.1,1,0c0,0.1-1,0.4-2,0.4c1.3-0.4-1.1-0.2-0.4-0.4
			c-2.2,0.1-3.4,0.7-5.2,1.2c-2.1,0.1-4.8,0.2-6.4,0.6h0.2l-1,0.2c-0.6,0,0-0.4-0.9-0.2c0.3-0.3,1.6-0.1,2.5-0.4
			c-1.6-0.2,1.4-0.4,0.4-0.6c-0.6,0.7-3.3,0.2-4.6,0.7c-1.3,0,0.6-0.3-0.1-0.3l-0.4,0.2c-0.5,0-0.7-0.1-0.7-0.2
			c-1.4-0.1-3,0.1-4.2,0.4c1.5-0.1-0.5,0.3,1,0.3c-0.4,0.1-1.4,0.2-2.4,0.2c0.9-0.1-1.2-0.4,0.8-0.4c-0.3-0.3-1,0.1-1.9,0.1
			c0.4-0.1,1.4-0.3,1.3-0.4c-0.3,0.1-0.7,0.1-1.3,0.1c-0.1,0-0.2,0-0.3,0s-0.2,0-0.4,0s-0.5,0-0.7,0c-1-0.1-1.9-0.1-2.2,0.1
			c-1,0.3-2.5,0.5-3.7,0.9c-1.2-0.1-2.5,0.1-3.8,0.1l0.2-0.1c-0.7,0-1.9,0.1-3,0.2l-0.2-0.2c-0.7,0.1-2.2,0.2-3.3,0.3
			c0,0.1,1,0.1,0.5,0.2c0.6,0,1-0.1,0.8-0.2c0.6,0,0.6,0.1,1,0.3l-2.2,0.3c-0.1,0-0.2,0-0.2-0.1l-0.1,0.2c-0.6,0-0.7,0-0.7-0.1
			c-0.6,0.1-1,0.2-1.5,0.3c-0.4,0.1-0.9,0.1-1.5,0.1c0.5-0.2,0.9-0.4,1.9-0.4l-1.5,0.1c0.4-0.1,1.2-0.2,1.9-0.3s1.2-0.2,1-0.4
			c-0.8,0.1-1.9,0.2-2.8,0.4c-1,0.1-1.9,0.3-2.7,0.4c-0.4-0.1-0.9-0.1-1.4-0.1c-0.1,0-0.1,0-0.2,0h-0.1l0,0c0.1,0,0,0,0,0l0,0l0,0
			H32c-0.1,0-0.3,0-0.4,0c-0.3,0-0.6,0-0.9-0.1c-0.1-0.1-0.5-0.1-0.3-0.3h0.4c-0.8-0.1-1.7,0-2.6,0c-0.9,0.1-1.7,0.1-2.5,0.2L25,179
			c-2.5-0.2,0.4,0.5-2.2,0.4c-0.6-0.3-3.2-0.3-3.3-0.5c-0.5,0-0.7,0-0.8,0.1c0.4,0.1,1.4,0,0.9,0.2c-0.9,0.1-1.3-0.1-2-0.1
			c0.1-0.1,0.6-0.1,0.3-0.1c-1.8,0-5-0.1-6.7,0.4c0.6,0,0.7-0.2,1.5-0.1c0,0.1-0.4,0.1-0.7,0.1c0.1,0.2,0.9-0.1,1.7,0.1l-1.5,0.3
			L13,180l-3.4,0.6c2.8,0.2,4-0.7,6.2-0.3c-0.4,0.1,0,0.1,0.1,0.2c0.7-0.1,1.6-0.1,2-0.2l1.1,0.1c0,0.1-0.4,0.4-1.6,0.4
			c2,0.1,3.8,0,5.6,0c1.8-0.1,3.6-0.1,5.6,0.1c0.1,0.1-0.5,0.1-0.2,0.1c0.5-0.1,1.4-0.1,1.4-0.2c-0.1,0.1-0.1,0.1-0.5,0.1
			c1-0.1,1.9,0.1,2.5,0.1c0.7,0.1,1.3,0.1,2,0c0.1,0.1-1,0.1-0.8,0.2c2.1,0.1,3.1-0.4,5.2-0.5c-0.7,0.3,0.4,0.2,1,0.3
			c1.7-0.3,5.4-0.6,7.9-1c-0.7,0.6,2.9-0.1,3.1,0.3c0.6-0.1,1.5-0.1,1.5-0.3c-0.3,0.1-1.1,0-1-0.1c0.8-0.1,2.1-0.1,2.2-0.4l1,0.2
			c0.1-0.1,0.4-0.4,1-0.4c1.3,0.4-0.1-0.3,1.7-0.1c-0.4,0.2-0.8,0.4-1,0.5c0.9,0,0.7-0.1,1.4-0.1c0.2,0.1-0.6,0.4-1.3,0.5l1.1,0.1
			c1.1-0.3,3-0.7,4.8-0.7c-0.3,0.1-0.9,0.1-0.4,0.4c0.7-0.1,1.8-0.4,2.8-0.3c-0.1,0-0.1,0.1-0.2,0.1c1.8-0.4,1.3,0,2.9,0
			c0,0,0,0.1-0.1,0.1l1-0.2c2-0.5,2.3,0.1,3.5,0.2l-0.3,0.1c0.8,0.2,3.2-0.2,4-0.1c-0.9-0.1-0.3-0.1-1-0.4c-0.7,0.1-0.5,0.4-1.8,0.4
			c0.1-0.3,1.7-0.5,2.1-0.7c0.7-0.1,1.2,0.4,1.3,0.5c1.8-0.2,2.8-0.1,4.9-0.4c0.7-0.3,1.3-1,3.1-0.7l-0.1,0.1
			c0.1-0.2,0.9-0.1,1.3-0.2c-0.7-0.2,0.7-0.3-0.1-0.5c1-0.1,1.3,0.3,1.4,0.5c0.7-0.5,2.1,0,3.7-0.4c-0.3,0.2-2,0.4-1.3,0.5l2-0.7
			l-0.9,0.1c1.6-0.4,2-0.1,3-0.1c0.2,0.1-0.4,0.2-0.8,0.2c0.5,0,1.3-0.1,1.9-0.3c0.4-0.1,2.1-0.5,2.8-0.8c0.1,0,0.1,0,0.3,0
			l-0.1,0.1c0.1,0,0.2-0.1,0.4-0.1c0.3,0,0.6,0,0.8,0l-0.1,0.1c0.1,0,0.2-0.1,0.3-0.1C99.9,175.6,100.2,175.6,100.5,175.6
			L100.5,175.6L100.5,175.6z"/>
	</g>
	<path id="exatlas_shoottips" inkscape:connector-curvature="0" class="st9" d="M332.5,93.3c-1.3-1.5-4-1.4-6.1-2
		c-1.2-0.4-2.7-0.6-2.7-2.2c0.6-2.3-0.3-3.8-3-4.4c-2.4-1.1-2.1-3.4-2.3-5.2c-0.5-3.2-2.6-4.8-5.8-5c-4.3-0.3-8.5-1-12.7-1.7
		c-2.9-0.5-4.3,0.7-4.5,3.3c-3.4,0.4-6.3,1.8-8.7,3.7c-1,0.7-1.6,1.9-2.9,2.2c-3.4,1.1-3.4,3.9-4.2,6.3c-0.4,1.3-1,2.4-2.8,2.5
		c-0.5,0.1-1.1,0.3-1,0.8c0,0.1,0,0.3,0,0.4C294.6,93.7,313.5,93.2,332.5,93.3L332.5,93.3z"/>
	<g id="g4778">
		<g id="g4780">
			<line id="line4782" class="st0" x1="331.1" y1="79.5" x2="307.1" y2="85.2"/>
			<g id="g4784">
				<path id="path4786" inkscape:connector-curvature="0" class="st1" d="M306,85.5c0.4-0.3,1-0.8,1.3-1.3l-0.1,1l0.5,0.8
					C307.3,85.8,306.6,85.6,306,85.5L306,85.5z"/>
			</g>
		</g>
	</g>
	<g id="g4788">
		<g id="g4790">
			<line id="line4792" class="st0" x1="349.7" y1="120.3" x2="313.7" y2="126.1"/>
			<g id="g4794">
				<path id="path4796" inkscape:connector-curvature="0" class="st1" d="M312.6,126.3c0.5-0.3,1.1-0.7,1.4-1.1l-0.1,0.9l0.4,0.8
					C313.9,126.7,313.1,126.4,312.6,126.3z"/>
			</g>
		</g>
	</g>
	<g id="g4798">
		<g id="g4800">
			<line id="line4802" class="st0" x1="215.3" y1="158.1" x2="230.3" y2="163"/>
			<g id="g4804">
				<path id="path4806" inkscape:connector-curvature="0" class="st1" d="M231.3,163.3c-0.6,0-1.3,0.1-1.8,0.4l0.6-0.7v-1
					C230.3,162.5,230.9,163,231.3,163.3L231.3,163.3z"/>
			</g>
		</g>
	</g>
</g>
<g id="g5261" transform="matrix(0.80352972,0,0,0.80352972,57.70836,-196.03004)">
	<g id="g4323" transform="translate(868.85215,269.22802)">
		<text transform="matrix(1.2445 0 0 1.2445 -96.2355 267.1675)" class="st10 st11">Phytopthora </text>
		<text transform="matrix(1.2445 0 0 1.2445 -4.9684 267.1675)" class="st10 st11">cinnamomi</text>
		<text transform="matrix(1.2445 0 0 1.2445 69.7678 267.1675)" class="st12 st11">  inoculated</text>
		<path id="path115" inkscape:connector-curvature="0" class="st13" d="M47.6,165.5c-0.3-9.2-0.3-18.4-0.3-27.7c0-6-0.1-12,0-17.9
			c0.1-4.5,0.6-9,0.9-13.4c0.1-1.8,0.3-3.6,0.4-5.4c0.2-4.3,1.2-8.5,1.9-12.8c1.5-8.9,2.6-17.9,4.2-26.8c1.4-7.4,3.4-14.7,5-22.1
			c0.8-3.6,1.2-7.3,1.8-11c0.1-0.5-0.1-1.5,0.7-1.4c0.7,0,0.9,0.9,0.8,1.6c-0.6,4.1-1.1,8.2-1.9,12.2c-1.5,7.1-4,14.1-5.1,21.3
			c-1.2,8.4-3.1,16.6-4,25c-0.5,4.8-1.9,9.4-2.2,14.2c-0.6,10.2-1.9,20.4-1.2,30.7c0.3,4.1,0,8.1,0,12.2c0.1,7.2,0.2,14.5,0.3,21.7
			c0.1,5.6,0.5,11.2,0.9,16.8c0.9,11.7,2,23.3,4.9,34.7c2.1,8.3,5.4,16.1,8.4,24.1c0.2,0.5,1,1.1,0.2,1.5c-0.9,0.5-1.2-0.5-1.5-1.1
			c-1.7-4.3-3.5-8.5-4.9-12.9c-1-3.1-2.4-6.1-3.3-9.3s-1.4-6.4-2-9.7c-1.7-9.1-2.4-18.4-3.1-27.6C48.1,176.8,47.7,171.1,47.6,165.5
			L47.6,165.5z"/>
		<path id="path117" inkscape:connector-curvature="0" class="st14" d="M12.2,23.3c0.5,2.3,0.8,4.7,0.9,7c0.1,3.7-0.7,7.3-1.1,10.9
			c-0.6,6.2-0.6,12.4-0.8,18.7c-0.3,7-0.6,14-1.5,21c-0.1,0.7-0.2,1.3-0.2,2c0,4.2,0,8.5-0.9,12.7c-0.9,4.3-0.9,8.7-1.2,13
			C7,113.8,6.7,119,6.2,124.2c-1.2,12.3-2.4,24.7-3.2,37c-0.3,5.4-0.5,10.9-0.4,16.3c0.2,8.4-0.6,16.7-1.3,25.1
			c-0.8,9.2-2.7,18.2-4.7,27.2c-0.9,3.9-2,7.8-3,11.7c-0.1,0.5-0.2,1.4-1,1.2c-0.9-0.2-0.5-1.1-0.3-1.7c1.7-6.2,3.6-12.4,4.9-18.8
			c1.6-8,2.8-16,3.5-24.2c0.5-6.5,1-13,1-19.6c0-6.5-0.1-13.1,0.5-19.5C3,150,3.3,141,4.6,132.1c0.8-5.4,0.9-11,1.4-16.5
			c0.8-8.1,0.9-16.2,2.3-24.3c0.7-4.2,0.6-8.6,0.9-12.9c0.5-7.1,1-14.2,1.4-21.3c0.2-3.6,0-7.2,0.2-10.8c0.3-5.7,1.6-11.4,1.3-17.2
			c-0.1-2-0.2-3.9-0.3-5.9C11.9,23.3,12.1,23.3,12.2,23.3z"/>
		<path id="InfBR" inkscape:connector-curvature="0" class="st15" d="M25.3,152.4c0.1-2.6-0.3-5.2-0.5-7.9c-0.3-3.6,0-7.2,0.3-10.9
			c0.1-1.1,0.1-2.3,0.2-3.4c0.1-1.1-0.2-1.9-1.4-2.1c-1.1-0.2-1.9-0.9-2.7-1.7c-2.6-2.5-4-5.8-5.3-9c-0.8-2.1-0.5-4.2,0.2-6.5
			c1-3.1,2.6-5.9,4.6-8.4c1.1-1.4,2.8-2.2,4.2-3.3c0.8-0.6,1.5-1.2,1.4-2.3c-0.3-5.3,0.9-10.4,1.9-15.5s1.4-10.3,1.6-15.5
			c0-1.3,0.7-2.5,0.5-3.9c-0.1-0.7,0.5-0.7,1-0.4c1,0.5,1.2,1.3,1.1,2.3c-0.2,6.2,0.8,12.4,0.6,18.7c-0.1,3.3,0.3,6.7,0.3,10
			c0,1.5-0.4,3-0.8,4.4c-0.5,1.8-0.2,2.9,1.3,4.3c4.5,4.3,6.7,9.7,5.6,16.1c-0.5,2.9-1,5.7-3.1,8.1c-1.4,1.6-2.8,3.1-4.9,3.7
			c-1.3,0.4-1.7,1.3-1.6,2.5c0.3,2.4-0.2,4.7-0.4,7c-0.4,6.3-2.1,12.4-1.4,18.8c0.1,1.1-1.2,1.3-1.3,2.4c0,0.3-1-0.4-1-1
			c-0.2-1.7-0.3-3.5-0.5-5.2C25.3,153.2,25.3,152.8,25.3,152.4L25.3,152.4z"/>
	</g>
	<g id="g4314" transform="translate(479.85215,267.22802)">
		<text transform="matrix(1.2445 0 0 1.2445 -90.6601 267.1676)" class="st10 st11">Phytopthora </text>
		<text transform="matrix(1.2445 0 0 1.2445 0.6065 267.1676)" class="st10 st11">cinnamomi</text>
		<text transform="matrix(1.2445 0 0 1.2445 75.3432 267.1676)" class="st12 st11">  mock inoculated</text>
		<text transform="matrix(1.2445 0 0 1.2445 -88.9325 284.1818)" class="st12 st11">Susceptible clone: </text>
		<text transform="matrix(1.2445 0 0 1.2445 40.2466 284.1818)" class="st10 st11">E</text>
		<text transform="matrix(1.2445 0 0 1.2445 47.9625 284.1818)" class="st12 st11"> . </text>
		<text transform="matrix(1.2445 0 0 1.2445 59.7852 284.1818)" class="st10 st11">nitens</text>
		<path id="ConBR" inkscape:connector-curvature="0" class="st16" d="M-1.4,109.2c-0.7,7.5,5.2,12.7,9.8,14.2c2.8,0.9,4.9-0.5,7-1.9
			c0.7-0.5,1.2-1.2,1.4-2.2c0.1-0.5,0.4-1,0.6-1.5c1.5-2.9,2.3-5.9,3.1-9c0.2-0.8,0.5-1.6,0.4-2.3c-0.3-3.2-1.8-5.9-3.9-8.3
			c-3.2-3.9-9.8-3.6-13.2-1.5c-2.3,1.4-4.1,3.4-4.5,6.1C-1.1,105-1.7,107.2-1.4,109.2z"/>
		<path id="path123" inkscape:connector-curvature="0" class="st13" d="M29.6,165c-0.3-9.2-0.3-18.4-0.3-27.7c0-6-0.1-12,0-17.9
			c0.1-4.5,0.6-9,0.9-13.4c0.1-1.8,0.3-3.6,0.4-5.4c0.2-4.3,1.2-8.5,1.9-12.8c1.5-8.9,2.6-17.9,4.2-26.8c1.4-7.4,3.4-14.7,5-22.1
			c0.8-3.6,1.2-7.3,1.8-11c0.1-0.5-0.1-1.5,0.7-1.4c0.7,0,0.9,0.9,0.8,1.6c-0.6,4.1-1.1,8.2-1.9,12.2c-1.5,7.1-4,14.1-5.1,21.3
			c-1.2,8.4-3.1,16.6-4,25c-0.5,4.8-1.9,9.4-2.2,14.2c-0.6,10.2-1.9,20.4-1.2,30.7c0.3,4.1,0,8.1,0,12.2c0.1,7.2,0.2,14.5,0.3,21.7
			c0.1,5.6,0.5,11.2,0.9,16.8c0.9,11.7,2,23.3,4.9,34.7c2.1,8.3,5.4,16.1,8.4,24.1c0.2,0.5,1,1.1,0.2,1.5c-0.9,0.5-1.2-0.5-1.5-1.1
			c-1.7-4.3-3.5-8.5-4.9-12.9c-1-3.1-2.4-6.1-3.3-9.3c-0.9-3.2-1.4-6.4-2-9.7c-1.7-9.1-2.4-18.4-3.1-27.6
			C30.1,176.3,29.7,170.6,29.6,165L29.6,165z"/>
		<path id="path125" inkscape:connector-curvature="0" class="st14" d="M-5.8,22.8c0.5,2.3,0.8,4.7,0.9,7c0.1,3.7-0.7,7.3-1.1,10.9
			c-0.6,6.2-0.6,12.4-0.8,18.7c-0.3,7-0.6,14-1.5,21c-0.1,0.7-0.2,1.3-0.2,2c0,4.2,0,8.5-0.9,12.7c-0.9,4.3-0.9,8.7-1.2,13
			c-0.4,5.2-0.7,10.4-1.2,15.6c-1.2,12.3-2.4,24.7-3.2,37c-0.3,5.4-0.5,10.9-0.4,16.3c0.2,8.4-0.6,16.7-1.3,25.1
			c-0.8,9.2-2.7,18.2-4.7,27.2c-0.9,3.9-2,7.8-3,11.7c-0.1,0.5-0.2,1.4-1,1.2c-0.9-0.2-0.5-1.1-0.3-1.7c1.7-6.2,3.6-12.4,4.9-18.8
			c1.6-8,2.8-16,3.5-24.2c0.5-6.5,1-13,1-19.6c0-6.5-0.1-13.1,0.5-19.5c0.8-8.9,1.1-17.9,2.4-26.8c0.8-5.4,0.9-11,1.4-16.5
			c0.8-8.1,0.9-16.2,2.3-24.3c0.7-4.2,0.6-8.6,0.9-12.9c0.5-7.1,1-14.2,1.4-21.3c0.2-3.6,0-7.2,0.2-10.8c0.3-5.7,1.6-11.4,1.3-17.2
			c-0.1-2-0.2-3.9-0.3-5.9C-6.2,22.8-6,22.8-5.8,22.8z"/>
	</g>
</g>
<g id="g64" transform="matrix(1.2487346,0,0,1.2487346,-160.75716,19.4363)">
	<g id="g4259" transform="matrix(0.70015316,0,0,0.70015316,693.19624,207.78027)">
		<path id="l_invasa_s_infested" inkscape:connector-curvature="0" class="st4" d="M-12.9,98.7c0,0,2.2,1.5,4.2-1.6
			S-0.1,81.9,9,76.4c9.1-5.5,25.6,1.2,53.5-6.8s47-19.6,70.4-26.1s28.3-5,28.2-5.7C161,37.2,107.2,23.7,59.9,33
			C12.5,42.3,11.2,70.8,9.4,72.4S-11.6,90.9-12.9,98.7z"/>
		<path id="path19" inkscape:connector-curvature="0" class="st17" d="M-12.9,98.7c0,0,2.2,1.5,4.2-1.6S-0.1,81.9,9,76.4
			c9.1-5.5,25.6,1.2,53.5-6.8s47-19.6,70.4-26.1s28.3-5,28.2-5.7C161,37.2,107.2,23.7,59.9,33C12.5,42.3,11.2,70.8,9.4,72.4
			S-11.6,90.9-12.9,98.7z"/>
		<text transform="matrix(1.1438 0 0 1.1438 -19.445 118.1564)" class="st10 st18">Leptocybe invasa </text>
		<text transform="matrix(1.1438 0 0 1.1438 97.3363 118.1564)" class="st12 st18">infested</text>
		<path id="path39" inkscape:connector-curvature="0" class="st17" d="M16.2,69.8c0,0,34.9-18.2,70.8-24.7s46.4-6.5,46.4-6.5"/>
		<g id="g73">
			<path id="path75" inkscape:connector-curvature="0" class="st19" d="M42.7,62.7c-0.2,0.9-0.8,1.4-1.7,1.4c-0.8,0-1.4-0.3-1.3-1.2
				c0.1-0.9,0.8-1.2,1.6-1.3C42,61.5,42.6,61.8,42.7,62.7z"/>
			<path id="path77" inkscape:connector-curvature="0" class="st19" d="M50,59.5c-0.1,1-0.8,1.4-1.7,1.4c-0.8,0-1.4-0.2-1.4-1.2
				c0-0.9,0.7-1.3,1.5-1.3S49.9,58.6,50,59.5z"/>
			<path id="path79" inkscape:connector-curvature="0" class="st19" d="M57.6,57.2c-0.2,0.9-0.8,1.3-1.7,1.3c-0.8,0-1.4-0.3-1.3-1.2
				c0.1-1,0.9-1.3,1.8-1.2C57.1,56.1,57.6,56.4,57.6,57.2z"/>
			<path id="path81" inkscape:connector-curvature="0" class="st19" d="M39.9,55.8c-0.2,0.9-0.8,1.3-1.7,1.3c-0.8,0-1.4-0.3-1.3-1.2
				c0.1-1,0.9-1.3,1.8-1.2C39.4,54.7,39.9,55,39.9,55.8z"/>
			<path id="path83" inkscape:connector-curvature="0" class="st19" d="M63.1,53.9c0.8,0.1,1.5,0.3,1.4,1.2s-0.7,1.3-1.6,1.3
				c-0.8,0-1.4-0.2-1.4-1.1C61.5,54.3,62.3,54.1,63.1,53.9z"/>
			<path id="path85" inkscape:connector-curvature="0" class="st19" d="M69.6,54.4c-0.9-0.1-1.6-0.3-1.5-1.2c0.1-1,0.9-1.3,1.8-1.3
				c0.7,0,1.3,0.3,1.3,1.1C71.1,54,70.3,54.3,69.6,54.4z"/>
			<path id="path87" inkscape:connector-curvature="0" class="st19" d="M45.8,51.8c0.7,0.1,1.5,0.2,1.4,1.2
				c-0.1,0.9-0.7,1.3-1.5,1.3c-0.7,0-1.4-0.1-1.5-1.1C44.1,52.2,44.9,52,45.8,51.8z"/>
			<path id="path89" inkscape:connector-curvature="0" class="st19" d="M78.1,51.3c-0.2,0.9-0.8,1.3-1.8,1.3c-0.8,0-1.4-0.4-1.3-1.3
				c0.1-1,0.9-1.3,1.8-1.2C77.5,50.2,78.1,50.5,78.1,51.3z"/>
			<path id="path91" inkscape:connector-curvature="0" class="st19" d="M53.8,50.4c-0.2,1-0.8,1.5-1.7,1.5c-0.8,0-1.4-0.3-1.4-1.2
				c0.1-0.9,0.8-1.2,1.6-1.3C53.1,49.4,53.7,49.7,53.8,50.4z"/>
			<path id="path93" inkscape:connector-curvature="0" class="st19" d="M83.6,48.4c0.7,0.1,1.5,0.2,1.4,1.2
				c-0.1,0.9-0.7,1.3-1.5,1.3c-0.7,0-1.4-0.1-1.5-1.1C82,48.8,82.8,48.5,83.6,48.4z"/>
			<path id="path95" inkscape:connector-curvature="0" class="st19" d="M59,47.7c0.7,0.1,1.4,0.2,1.4,1c0,1-0.7,1.4-1.6,1.5
				c-0.8,0-1.4-0.2-1.4-1.1C57.4,48,58.2,47.8,59,47.7z"/>
			<path id="path97" inkscape:connector-curvature="0" class="st19" d="M90.1,49.5c-0.9,0-1.6-0.2-1.5-1.2s0.8-1.3,1.7-1.3
				c0.7,0,1.3,0.2,1.3,1C91.6,49.1,90.8,49.4,90.1,49.5z"/>
			<path id="path99" inkscape:connector-curvature="0" class="st19" d="M65.7,48.5c-0.8,0-1.5-0.3-1.4-1.2c0.1-1,0.9-1.3,1.7-1.3
				c0.7,0,1.3,0.3,1.3,1.1C67.2,48.1,66.5,48.4,65.7,48.5z"/>
			<path id="path101" inkscape:connector-curvature="0" class="st19" d="M99.3,46.8c-0.2,0.9-0.8,1.3-1.7,1.3
				c-0.8,0-1.4-0.3-1.3-1.2c0.1-1,0.9-1.3,1.8-1.2C98.7,45.6,99.2,45.9,99.3,46.8z"/>
			<path id="path103" inkscape:connector-curvature="0" class="st19" d="M74.6,45.4c-0.2,0.9-0.8,1.3-1.7,1.3
				c-0.8,0-1.4-0.3-1.3-1.2c0.1-1,0.9-1.3,1.8-1.3C74,44.2,74.6,44.5,74.6,45.4z"/>
			<path id="path105" inkscape:connector-curvature="0" class="st19" d="M79.8,42.8c0.7,0.1,1.4,0.2,1.4,1c0,1-0.7,1.4-1.6,1.5
				c-0.8,0-1.4-0.2-1.4-1.1C78.2,43.2,79,42.9,79.8,42.8z"/>
			<path id="path107" inkscape:connector-curvature="0" class="st19" d="M87.1,42.8c-0.2,1-0.8,1.5-1.7,1.5c-0.8,0-1.4-0.3-1.4-1.2
				c0.1-0.9,0.8-1.2,1.6-1.3C86.4,41.7,87,42,87.1,42.8z"/>
			<path id="path109" inkscape:connector-curvature="0" class="st19" d="M94.4,41.5c-0.1,1-0.7,1.4-1.6,1.4c-0.8,0-1.4-0.2-1.4-1.1
				c0-0.9,0.7-1.3,1.5-1.3C93.6,40.3,94.3,40.6,94.4,41.5z"/>
		</g>
		<text transform="matrix(1.1438 0 0 1.1438 -19.445 255.4077)" class="st10 st18">Leptocybe invasa </text>
		<text transform="matrix(1.1438 0 0 1.1438 97.3363 255.4077)" class="st12 st18">infested</text>
		<text transform="matrix(1.1438 0 0 1.1438 -374.0127 255.4077)" class="st10 st18">Leptocybe invasa </text>
		<text transform="matrix(1.1438 0 0 1.1438 -257.2308 255.4077)" class="st12 st18">infested</text>
		<text transform="matrix(1.1438 0 0 1.1438 -372.8689 115.8689)" class="st10 st18">Leptocybe invasa </text>
		<text transform="matrix(1.1438 0 0 1.1438 -256.0865 115.8689)" class="st12 st18">infested</text>
	</g>
	<g id="g92" transform="matrix(0.70015316,0,0,0.70015316,482.45015,207.08012)">
		<path id="l_invasa_s_uninfested" inkscape:connector-curvature="0" class="st20" d="M-59.9,98.3c0,0,2.2,1.5,4.2-1.6
			S-47.1,81.5-38,76s25.6,1.2,53.5-6.8s47-19.6,70.4-26.1s28.3-5,28.2-5.7c-0.1-0.6-53.9-14.1-101.2-4.8
			C-34.5,41.9-35.8,70.4-37.6,72C-39.5,73.7-58.7,90.5-59.9,98.3z"/>
		<path id="path13" inkscape:connector-curvature="0" class="st17" d="M-59.9,98.3c0,0,2.2,1.5,4.2-1.6S-47.1,81.5-38,76
			s25.6,1.2,53.5-6.8s47-19.6,70.4-26.1s28.3-5,28.2-5.7c-0.1-0.6-53.9-14.1-101.2-4.8C-34.5,41.9-35.8,70.4-37.6,72
			C-39.5,73.7-58.7,90.5-59.9,98.3z"/>
		<path id="path15" inkscape:connector-curvature="0" class="st17" d="M-30.8,69.5c0,0,34.9-18.2,70.8-24.7s46.4-6.5,46.4-6.5"/>
	</g>
	<g id="g100" transform="matrix(0.70015316,0,0,0.70015316,691.09578,303.60998)">
		<path id="l_invasa_r_infested" inkscape:connector-curvature="0" class="st4" d="M-12.9,98.7c0,0,2.2,1.5,4.2-1.6
			S-0.1,81.9,9,76.4c9.1-5.5,25.6,1.2,53.5-6.8s47-19.6,70.4-26.1s28.3-5,28.2-5.7C161,37.2,107.2,23.7,59.9,33
			C12.5,42.3,11.2,70.8,9.4,72.4S-11.6,90.9-12.9,98.7z"/>
		<path id="path48" inkscape:connector-curvature="0" class="st17" d="M-12.9,98.7c0,0,2.2,1.5,4.2-1.6S-0.1,81.9,9,76.4
			c9.1-5.5,25.6,1.2,53.5-6.8s47-19.6,70.4-26.1s28.3-5,28.2-5.7C161,37.2,107.2,23.7,59.9,33C12.5,42.3,11.2,70.8,9.4,72.4
			S-11.6,90.9-12.9,98.7z"/>
		<path id="path56" inkscape:connector-curvature="0" class="st17" d="M16.2,69.8c0,0,34.9-18.2,70.8-24.7s46.4-6.5,46.4-6.5"/>
		<g id="g58">
			<path id="path60" inkscape:connector-curvature="0" class="st19" d="M42.7,62.7c-0.2,0.9-0.8,1.4-1.7,1.4c-0.8,0-1.4-0.3-1.3-1.2
				c0.1-0.9,0.8-1.2,1.6-1.3C42,61.5,42.6,61.8,42.7,62.7z"/>
			<path id="path62" inkscape:connector-curvature="0" class="st19" d="M50,59.5c-0.1,1-0.8,1.4-1.7,1.4c-0.8,0-1.4-0.2-1.4-1.2
				c0-0.9,0.7-1.3,1.5-1.3S49.9,58.6,50,59.5z"/>
			<path id="path64" inkscape:connector-curvature="0" class="st19" d="M57.6,57.2c-0.2,0.9-0.8,1.3-1.7,1.3c-0.8,0-1.4-0.3-1.3-1.2
				c0.1-1,0.9-1.3,1.8-1.2C57.1,56.1,57.6,56.4,57.6,57.2z"/>
			<path id="path66" inkscape:connector-curvature="0" class="st19" d="M39.9,55.8c-0.2,0.9-0.8,1.3-1.7,1.3c-0.8,0-1.4-0.3-1.3-1.2
				c0.1-1,0.9-1.3,1.8-1.2C39.4,54.7,39.9,55,39.9,55.8z"/>
			<path id="path68" inkscape:connector-curvature="0" class="st19" d="M63.1,53.9c0.8,0.1,1.5,0.3,1.4,1.2s-0.7,1.3-1.6,1.3
				c-0.8,0-1.4-0.2-1.4-1.1C61.5,54.3,62.3,54.1,63.1,53.9z"/>
			<path id="path70" inkscape:connector-curvature="0" class="st19" d="M69.6,54.4c-0.9-0.1-1.6-0.3-1.5-1.2c0.1-1,0.9-1.3,1.8-1.3
				c0.7,0,1.3,0.3,1.3,1.1C71.1,54,70.3,54.3,69.6,54.4z"/>
			<path id="path72" inkscape:connector-curvature="0" class="st19" d="M45.8,51.8c0.7,0.1,1.5,0.2,1.4,1.2
				c-0.1,0.9-0.7,1.3-1.5,1.3c-0.7,0-1.4-0.1-1.5-1.1C44.1,52.2,44.9,52,45.8,51.8z"/>
			<path id="path74" inkscape:connector-curvature="0" class="st19" d="M78.1,51.3c-0.2,0.9-0.8,1.3-1.8,1.3c-0.8,0-1.4-0.4-1.3-1.3
				c0.1-1,0.9-1.3,1.8-1.2C77.5,50.2,78.1,50.5,78.1,51.3z"/>
			<path id="path76" inkscape:connector-curvature="0" class="st19" d="M53.8,50.4c-0.2,1-0.8,1.5-1.7,1.5c-0.8,0-1.4-0.3-1.4-1.2
				c0.1-0.9,0.8-1.2,1.6-1.3C53.1,49.4,53.7,49.7,53.8,50.4z"/>
			<path id="path78" inkscape:connector-curvature="0" class="st19" d="M83.6,48.4c0.7,0.1,1.5,0.2,1.4,1.2
				c-0.1,0.9-0.7,1.3-1.5,1.3c-0.7,0-1.4-0.1-1.5-1.1C82,48.8,82.8,48.5,83.6,48.4z"/>
			<path id="path80" inkscape:connector-curvature="0" class="st19" d="M59,47.7c0.7,0.1,1.4,0.2,1.4,1c0,1-0.7,1.4-1.6,1.5
				c-0.8,0-1.4-0.2-1.4-1.1C57.4,48,58.2,47.8,59,47.7z"/>
			<path id="path82" inkscape:connector-curvature="0" class="st19" d="M90.1,49.5c-0.9,0-1.6-0.2-1.5-1.2s0.8-1.3,1.7-1.3
				c0.7,0,1.3,0.2,1.3,1C91.6,49.1,90.8,49.4,90.1,49.5z"/>
			<path id="path84" inkscape:connector-curvature="0" class="st19" d="M65.7,48.5c-0.8,0-1.5-0.3-1.4-1.2c0.1-1,0.9-1.3,1.7-1.3
				c0.7,0,1.3,0.3,1.3,1.1C67.2,48.1,66.5,48.4,65.7,48.5z"/>
			<path id="path86" inkscape:connector-curvature="0" class="st19" d="M99.3,46.8c-0.2,0.9-0.8,1.3-1.7,1.3c-0.8,0-1.4-0.3-1.3-1.2
				c0.1-1,0.9-1.3,1.8-1.2C98.7,45.6,99.2,45.9,99.3,46.8z"/>
			<path id="path88" inkscape:connector-curvature="0" class="st19" d="M74.6,45.4c-0.2,0.9-0.8,1.3-1.7,1.3c-0.8,0-1.4-0.3-1.3-1.2
				c0.1-1,0.9-1.3,1.8-1.3C74,44.2,74.6,44.5,74.6,45.4z"/>
			<path id="path90" inkscape:connector-curvature="0" class="st19" d="M79.8,42.8c0.7,0.1,1.4,0.2,1.4,1c0,1-0.7,1.4-1.6,1.5
				c-0.8,0-1.4-0.2-1.4-1.1C78.2,43.2,79,42.9,79.8,42.8z"/>
			<path id="path92" inkscape:connector-curvature="0" class="st19" d="M87.1,42.8c-0.2,1-0.8,1.5-1.7,1.5c-0.8,0-1.4-0.3-1.4-1.2
				c0.1-0.9,0.8-1.2,1.6-1.3C86.4,41.7,87,42,87.1,42.8z"/>
			<path id="path94" inkscape:connector-curvature="0" class="st19" d="M94.4,41.5c-0.1,1-0.7,1.4-1.6,1.4c-0.8,0-1.4-0.2-1.4-1.1
				c0-0.9,0.7-1.3,1.5-1.3C93.6,40.3,94.3,40.6,94.4,41.5z"/>
		</g>
	</g>
	<g id="g127" transform="matrix(0.70015316,0,0,0.70015316,481.04984,305.01029)">
		<path id="l_invasa_r_uninfested" inkscape:connector-curvature="0" class="st20" d="M-59.9,98.3c0,0,2.2,1.5,4.2-1.6
			c2-3.1,8.6-15.2,17.7-20.7s25.6,1.2,53.5-6.8s47-19.6,70.4-26.1s28.3-5,28.2-5.7c-0.1-0.6-53.9-14.1-101.2-4.8
			C-34.5,41.9-35.8,70.4-37.6,72C-39.5,73.7-58.7,90.5-59.9,98.3z"/>
		<path id="path98" inkscape:connector-curvature="0" class="st17" d="M-59.9,98.3c0,0,2.2,1.5,4.2-1.6c2-3.1,8.6-15.2,17.7-20.7
			s25.6,1.2,53.5-6.8s47-19.6,70.4-26.1s28.3-5,28.2-5.7c-0.1-0.6-53.9-14.1-101.2-4.8C-34.5,41.9-35.8,70.4-37.6,72
			C-39.5,73.7-58.7,90.5-59.9,98.3z"/>
		<path id="path100" inkscape:connector-curvature="0" class="st17" d="M-30.8,69.5c0,0,34.9-18.2,70.8-24.7s46.4-6.5,46.4-6.5"/>
	</g>
</g>
<g id="g6373" transform="matrix(1.2493369,0,0,1.2493369,-186.86232,40.720531)">
	<g id="g4296" transform="matrix(0.60327251,0,0,0.60327251,668.23532,400.01761)">
		<path id="path5" inkscape:connector-curvature="0" class="st21" d="M175.1,166.7c-0.3-9.2-0.3-18.4-0.3-27.7c0-6-0.1-12,0-17.9
			c0.1-4.5,0.6-9,0.9-13.4c0.1-1.8,0.3-3.6,0.4-5.4c0.2-4.3,1.2-8.5,1.9-12.8c1.5-8.9,2.6-17.9,4.2-26.8c1.4-7.4,3.4-14.7,5-22.1
			c0.8-3.6,1.2-7.3,1.8-11c0.1-0.5-0.1-1.5,0.7-1.4c0.7,0,0.9,0.9,0.8,1.6c-0.6,4.1-1.1,8.2-1.9,12.2c-1.5,7.1-4,14.1-5.1,21.3
			c-1.2,8.4-3.1,16.6-4,25c-0.5,4.8-1.9,9.4-2.2,14.2c-0.6,10.2-1.9,20.4-1.2,30.7c0.3,4.1,0,8.1,0,12.2c0.1,7.2,0.2,14.5,0.3,21.7
			c0.1,5.6,0.5,11.2,0.9,16.8c0.9,11.7,2,23.3,4.9,34.7c2.1,8.3,5.4,16.1,8.4,24.1c0.2,0.5,1,1.1,0.2,1.5c-0.9,0.5-1.2-0.5-1.5-1.1
			c-1.7-4.3-3.5-8.5-4.9-12.9c-1-3.1-2.4-6.1-3.3-9.3s-1.4-6.4-2-9.7c-1.7-9.1-2.4-18.4-3.1-27.6C175.6,178,175.2,172.4,175.1,166.7
			L175.1,166.7z"/>
		<path id="path7" inkscape:connector-curvature="0" class="st22" d="M139.7,24.5c0.5,2.3,0.8,4.7,0.9,7c0.1,3.7-0.7,7.3-1.1,10.9
			c-0.6,6.2-0.6,12.4-0.8,18.7c-0.3,7-0.6,14-1.5,21c-0.1,0.7-0.2,1.3-0.2,2c0,4.2,0,8.5-0.9,12.7c-0.9,4.3-0.9,8.7-1.2,13
			c-0.4,5.2-0.7,10.4-1.2,15.6c-1.2,12.3-2.4,24.7-3.2,37c-0.3,5.4-0.5,10.9-0.4,16.3c0.2,8.4-0.6,16.7-1.3,25.1
			c-0.8,9.2-2.7,18.2-4.7,27.2c-0.9,3.9-2,7.8-3,11.7c-0.1,0.5-0.2,1.4-1,1.2c-0.9-0.2-0.5-1.1-0.3-1.7c1.7-6.2,3.6-12.4,4.9-18.8
			c1.6-8,2.8-16,3.5-24.2c0.5-6.5,1-13,1-19.6c0-6.5-0.1-13.1,0.5-19.5c0.8-8.9,1.1-17.9,2.4-26.8c0.8-5.4,0.9-11,1.4-16.5
			c0.8-8.1,0.9-16.2,2.3-24.3c0.7-4.2,0.6-8.6,0.9-12.9c0.5-7.1,1-14.2,1.4-21.3c0.2-3.6,0-7.2,0.2-10.8c0.3-5.7,1.6-11.4,1.3-17.2
			c-0.1-2-0.2-3.9-0.3-5.9C139.4,24.6,139.5,24.5,139.7,24.5L139.7,24.5z"/>
		<path id="ZG14InfectedBR" inkscape:connector-curvature="0" class="st16" d="M152.8,153.6c0.1-2.6-0.3-5.2-0.5-7.9
			c-0.3-3.6,0-7.2,0.3-10.9c0.1-1.1,0.1-2.3,0.2-3.4c0.1-1.1-0.2-1.9-1.4-2.1c-1.1-0.2-1.9-0.9-2.7-1.7c-2.6-2.5-4-5.8-5.3-9
			c-0.8-2.1-0.5-4.2,0.2-6.5c1-3.1,2.6-5.9,4.6-8.4c1.1-1.4,2.8-2.2,4.2-3.3c0.8-0.6,1.5-1.2,1.4-2.3c-0.3-5.3,0.9-10.4,1.9-15.5
			c1-5.1,1.4-10.3,1.6-15.5c0-1.3,0.7-2.5,0.5-3.9c-0.1-0.7,0.5-0.7,1-0.4c1,0.5,1.2,1.3,1.1,2.3c-0.2,6.2,0.8,12.4,0.6,18.7
			c-0.1,3.3,0.3,6.7,0.3,10c0,1.5-0.4,3-0.8,4.4c-0.5,1.8-0.2,2.9,1.3,4.3c4.5,4.3,6.7,9.7,5.6,16.1c-0.5,2.9-1,5.7-3.1,8.1
			c-1.4,1.6-2.8,3.1-4.9,3.7c-1.3,0.4-1.7,1.3-1.6,2.5c0.3,2.4-0.2,4.7-0.4,7c-0.4,6.3-2.1,12.4-1.4,18.8c0.1,1.1-1.2,1.3-1.3,2.4
			c0,0.3-1-0.4-1-1c-0.2-1.7-0.3-3.5-0.5-5.2C152.8,154.4,152.8,154,152.8,153.6L152.8,153.6z"/>
		<text transform="matrix(1.3268 0 0 1.3268 33.517 270.4019)" class="st12 st23">Chrysoporthe </text>
		<text transform="matrix(1.3268 0 0 1.3268 133.2722 270.4019)" class="st10 st23">austroafricana</text>
		<text transform="matrix(1.3268 0 0 1.3268 231.3225 270.4019)" class="st12 st23"> inoculated</text>
	</g>
	<g id="g4305" transform="matrix(0.60327251,0,0,0.60327251,478.80775,401.82743)">
		<path id="ZG14ControlBR" inkscape:connector-curvature="0" class="st16" d="M79.9,108.5c-0.7,7.5,5.2,12.7,9.8,14.2
			c2.8,0.9,4.9-0.5,7-1.9c0.7-0.5,1.2-1.2,1.4-2.2c0.1-0.5,0.4-1,0.6-1.5c1.5-2.9,2.3-5.9,3.1-9c0.2-0.8,0.5-1.6,0.4-2.3
			c-0.3-3.2-1.8-5.9-3.9-8.3c-3.2-3.9-9.8-3.6-13.2-1.5c-2.3,1.4-4.1,3.4-4.5,6.1C80.2,104.3,79.6,106.4,79.9,108.5L79.9,108.5z"/>
		<text transform="matrix(1.3268 0 0 1.3268 -48.5188 268.4021)" class="st12 st23">Chrysoporthe </text>
		<text transform="matrix(1.3268 0 0 1.3268 51.2379 268.4021)" class="st10 st23">austroafricana</text>
		<text transform="matrix(1.3268 0 0 1.3268 149.2869 268.4021)" class="st12 st23">  mock inoculated</text>
		<path id="path111" inkscape:connector-curvature="0" class="st13" d="M110.9,164.2c-0.3-9.2-0.3-18.4-0.3-27.7c0-6-0.1-12,0-17.9
			c0.1-4.5,0.6-9,0.9-13.4c0.1-1.8,0.3-3.6,0.4-5.4c0.2-4.3,1.2-8.5,1.9-12.8c1.5-8.9,2.6-17.9,4.2-26.8c1.4-7.4,3.4-14.7,5-22.1
			c0.8-3.6,1.2-7.3,1.8-11c0.1-0.5-0.1-1.5,0.7-1.4c0.7,0,0.9,0.9,0.8,1.6c-0.6,4.1-1.1,8.2-1.9,12.2c-1.5,7.1-4,14.1-5.1,21.3
			c-1.2,8.4-3.1,16.6-4,25c-0.5,4.8-1.9,9.4-2.2,14.2c-0.6,10.2-1.9,20.4-1.2,30.7c0.3,4.1,0,8.1,0,12.2c0.1,7.2,0.2,14.5,0.3,21.7
			c0.1,5.6,0.5,11.2,0.9,16.8c0.9,11.7,2,23.3,4.9,34.7c2.1,8.3,5.4,16.1,8.4,24.1c0.2,0.5,1,1.1,0.2,1.5c-0.9,0.5-1.2-0.5-1.5-1.1
			c-1.7-4.3-3.5-8.5-4.9-12.9c-1-3.1-2.4-6.1-3.3-9.3c-0.9-3.2-1.4-6.4-2-9.7c-1.7-9.1-2.4-18.4-3.1-27.6
			C111.4,175.5,111,169.9,110.9,164.2L110.9,164.2z"/>
		<path id="path113" inkscape:connector-curvature="0" class="st14" d="M75.5,22c0.5,2.3,0.8,4.7,0.9,7c0.1,3.7-0.7,7.3-1.1,10.9
			c-0.6,6.2-0.6,12.4-0.8,18.7c-0.3,7-0.6,14-1.5,21c-0.1,0.7-0.2,1.3-0.2,2c0,4.2,0,8.5-0.9,12.7c-0.9,4.3-0.9,8.7-1.2,13
			c-0.4,5.2-0.7,10.4-1.2,15.6c-1.2,12.3-2.4,24.7-3.2,37c-0.3,5.4-0.5,10.9-0.4,16.3c0.2,8.4-0.6,16.7-1.3,25.1
			c-0.8,9.2-2.7,18.2-4.7,27.2c-0.9,3.9-2,7.8-3,11.7c-0.1,0.5-0.2,1.4-1,1.2c-0.9-0.2-0.5-1.1-0.3-1.7c1.7-6.2,3.6-12.4,4.9-18.8
			c1.6-8,2.8-16,3.5-24.2c0.5-6.5,1-13,1-19.6c0-6.5-0.1-13.1,0.5-19.5c0.8-8.9,1.1-17.9,2.4-26.8c0.8-5.4,0.9-11,1.4-16.5
			c0.8-8.1,0.9-16.2,2.3-24.3c0.7-4.2,0.6-8.6,0.9-12.9c0.5-7.1,1-14.2,1.4-21.3c0.2-3.6,0-7.2,0.2-10.8c0.3-5.7,1.6-11.4,1.3-17.2
			c-0.1-2-0.2-3.9-0.3-5.9C75.1,22,75.3,22,75.5,22L75.5,22z"/>
	</g>
	<path id="path28" inkscape:connector-curvature="0" class="st21" d="M770.1,670.1c-0.2-5.6-0.2-11.1-0.2-16.7c0-3.6-0.1-7.2,0-10.8
		c0.1-2.7,0.4-5.4,0.5-8.1c0.1-1.1,0.2-2.2,0.2-3.3c0.1-2.6,0.7-5.1,1.1-7.7c0.9-5.4,1.6-10.8,2.5-16.2c0.8-4.5,2.1-8.9,3-13.3
		c0.5-2.2,0.7-4.4,1.1-6.6c0.1-0.3-0.1-0.9,0.4-0.8c0.4,0,0.5,0.5,0.5,1c-0.4,2.5-0.7,4.9-1.1,7.4c-0.9,4.3-2.4,8.5-3.1,12.8
		c-0.7,5.1-1.9,10-2.4,15.1c-0.3,2.9-1.1,5.7-1.3,8.6c-0.4,6.2-1.1,12.3-0.7,18.5c0.2,2.5,0,4.9,0,7.4c0.1,4.3,0.1,8.7,0.2,13.1
		c0.1,3.4,0.3,6.8,0.5,10.1c0.5,7.1,1.2,14.1,3,20.9c1.3,5,3.3,9.7,5.1,14.5c0.1,0.3,0.6,0.7,0.1,0.9c-0.5,0.3-0.7-0.3-0.9-0.7
		c-1-2.6-2.1-5.1-3-7.8c-0.6-1.9-1.4-3.7-2-5.6c-0.5-1.9-0.8-3.9-1.2-5.9c-1-5.5-1.4-11.1-1.9-16.7
		C770.4,676.9,770.1,673.5,770.1,670.1L770.1,670.1z"/>
	<path id="path30" inkscape:connector-curvature="0" class="st22" d="M748.7,584.3c0.3,1.4,0.5,2.8,0.5,4.2c0.1,2.2-0.4,4.4-0.7,6.6
		c-0.4,3.7-0.4,7.5-0.5,11.3c-0.2,4.2-0.4,8.4-0.9,12.7c-0.1,0.4-0.1,0.8-0.1,1.2c0,2.5,0,5.1-0.5,7.7c-0.5,2.6-0.5,5.2-0.7,7.8
		c-0.2,3.1-0.4,6.3-0.7,9.4c-0.7,7.4-1.4,14.9-1.9,22.3c-0.2,3.3-0.3,6.6-0.2,9.8c0.1,5.1-0.4,10.1-0.8,15.1
		c-0.5,5.6-1.6,11-2.8,16.4c-0.5,2.4-1.2,4.7-1.8,7.1c-0.1,0.3-0.1,0.8-0.6,0.7s-0.3-0.7-0.2-1c1-3.7,2.2-7.5,3-11.3
		c1-4.8,1.7-9.7,2.1-14.6c0.3-3.9,0.6-7.8,0.6-11.8c0-3.9-0.1-7.9,0.3-11.8c0.5-5.4,0.7-10.8,1.4-16.2c0.5-3.3,0.5-6.6,0.8-10
		c0.5-4.9,0.5-9.8,1.4-14.7c0.4-2.5,0.4-5.2,0.5-7.8c0.3-4.3,0.6-8.6,0.8-12.8c0.1-2.2,0-4.3,0.1-6.5c0.2-3.4,1-6.9,0.8-10.4
		c-0.1-1.2-0.1-2.4-0.2-3.6C748.5,584.4,748.6,584.3,748.7,584.3L748.7,584.3z"/>
	<path id="TAG5InfectedBR" inkscape:connector-curvature="0" class="st16" d="M756.6,662.2c0.1-1.6-0.2-3.1-0.3-4.8
		c-0.2-2.2,0-4.3,0.2-6.6c0.1-0.7,0.1-1.4,0.1-2.1c0.1-0.7-0.1-1.1-0.8-1.3c-0.7-0.1-1.1-0.5-1.6-1c-1.6-1.5-2.4-3.5-3.2-5.4
		c-0.5-1.3-0.3-2.5,0.1-3.9c0.6-1.9,1.6-3.6,2.8-5.1c0.7-0.8,1.7-1.3,2.5-2c0.5-0.4,0.9-0.7,0.8-1.4c-0.2-3.2,0.5-6.3,1.1-9.4
		c0.6-3.1,0.8-6.2,1-9.4c0-0.8,0.4-1.5,0.3-2.4c-0.1-0.4,0.3-0.4,0.6-0.2c0.6,0.3,0.7,0.8,0.7,1.4c-0.1,3.7,0.5,7.5,0.4,11.3
		c-0.1,2,0.2,4,0.2,6c0,0.9-0.2,1.8-0.5,2.7c-0.3,1.1-0.1,1.7,0.8,2.6c2.7,2.6,4,5.9,3.4,9.7c-0.3,1.7-0.6,3.4-1.9,4.9
		c-0.8,1-1.7,1.9-3,2.2c-0.8,0.2-1,0.8-1,1.5c0.2,1.4-0.1,2.8-0.2,4.2c-0.2,3.8-1.3,7.5-0.8,11.3c0.1,0.7-0.7,0.8-0.8,1.4
		c0,0.2-0.6-0.2-0.6-0.6c-0.1-1-0.2-2.1-0.3-3.1C756.6,662.7,756.6,662.4,756.6,662.2L756.6,662.2z"/>
	<text transform="matrix(0.8004 0 0 0.8004 684.6616 732.6622)" class="st12 st24">Chrysoporthe </text>
	<text transform="matrix(0.8004 0 0 0.8004 744.842 732.6622)" class="st10 st24">austroafricana</text>
	<text transform="matrix(0.8004 0 0 0.8004 803.9921 732.6622)" class="st12 st24"> inoculated</text>
	<g id="g43055" transform="matrix(0.60327251,0,0,0.60327251,472.17176,570.74373)">
		<path id="TAG5ControlBR" inkscape:connector-curvature="0" class="st16" d="M79.9,108.5c-0.7,7.5,5.2,12.7,9.8,14.2
			c2.8,0.9,4.9-0.5,7-1.9c0.7-0.5,1.2-1.2,1.4-2.2c0.1-0.5,0.4-1,0.6-1.5c1.5-2.9,2.3-5.9,3.1-9c0.2-0.8,0.5-1.6,0.4-2.3
			c-0.3-3.2-1.8-5.9-3.9-8.3c-3.2-3.9-9.8-3.6-13.2-1.5c-2.3,1.4-4.1,3.4-4.5,6.1C80.2,104.3,79.6,106.4,79.9,108.5L79.9,108.5z"/>
		<text transform="matrix(1.3268 0 0 1.3268 -48.5187 268.4019)" class="st12 st23">Chrysoporthe </text>
		<text transform="matrix(1.3268 0 0 1.3268 51.2374 268.4019)" class="st10 st23">austroafricana</text>
		<text transform="matrix(1.3268 0 0 1.3268 149.287 268.4019)" class="st12 st23">  mock inoculated</text>
		<path id="path48-2" inkscape:connector-curvature="0" class="st13" d="M110.9,164.2c-0.3-9.2-0.3-18.4-0.3-27.7c0-6-0.1-12,0-17.9
			c0.1-4.5,0.6-9,0.9-13.4c0.1-1.8,0.3-3.6,0.4-5.4c0.2-4.3,1.2-8.5,1.9-12.8c1.5-8.9,2.6-17.9,4.2-26.8c1.4-7.4,3.4-14.7,5-22.1
			c0.8-3.6,1.2-7.3,1.8-11c0.1-0.5-0.1-1.5,0.7-1.4c0.7,0,0.9,0.9,0.8,1.6c-0.6,4.1-1.1,8.2-1.9,12.2c-1.5,7.1-4,14.1-5.1,21.3
			c-1.2,8.4-3.1,16.6-4,25c-0.5,4.8-1.9,9.4-2.2,14.2c-0.6,10.2-1.9,20.4-1.2,30.7c0.3,4.1,0,8.1,0,12.2c0.1,7.2,0.2,14.5,0.3,21.7
			c0.1,5.6,0.5,11.2,0.9,16.8c0.9,11.7,2,23.3,4.9,34.7c2.1,8.3,5.4,16.1,8.4,24.1c0.2,0.5,1,1.1,0.2,1.5c-0.9,0.5-1.2-0.5-1.5-1.1
			c-1.7-4.3-3.5-8.5-4.9-12.9c-1-3.1-2.4-6.1-3.3-9.3c-0.9-3.2-1.4-6.4-2-9.7c-1.7-9.1-2.4-18.4-3.1-27.6
			C111.4,175.5,111,169.9,110.9,164.2L110.9,164.2z"/>
		<path id="path50" inkscape:connector-curvature="0" class="st14" d="M75.5,22c0.5,2.3,0.8,4.7,0.9,7c0.1,3.7-0.7,7.3-1.1,10.9
			c-0.6,6.2-0.6,12.4-0.8,18.7c-0.3,7-0.6,14-1.5,21c-0.1,0.7-0.2,1.3-0.2,2c0,4.2,0,8.5-0.9,12.7c-0.9,4.3-0.9,8.7-1.2,13
			c-0.4,5.2-0.7,10.4-1.2,15.6c-1.2,12.3-2.4,24.7-3.2,37c-0.3,5.4-0.5,10.9-0.4,16.3c0.2,8.4-0.6,16.7-1.3,25.1
			c-0.8,9.2-2.7,18.2-4.7,27.2c-0.9,3.9-2,7.8-3,11.7c-0.1,0.5-0.2,1.4-1,1.2c-0.9-0.2-0.5-1.1-0.3-1.7c1.7-6.2,3.6-12.4,4.9-18.8
			c1.6-8,2.8-16,3.5-24.2c0.5-6.5,1-13,1-19.6c0-6.5-0.1-13.1,0.5-19.5c0.8-8.9,1.1-17.9,2.4-26.8c0.8-5.4,0.9-11,1.4-16.5
			c0.8-8.1,0.9-16.2,2.3-24.3c0.7-4.2,0.6-8.6,0.9-12.9c0.5-7.1,1-14.2,1.4-21.3c0.2-3.6,0-7.2,0.2-10.8c0.3-5.7,1.6-11.4,1.3-17.2
			c-0.1-2-0.2-3.9-0.3-5.9C75.1,22,75.3,22,75.5,22L75.5,22z"/>
	</g>
</g>
<g>
	<path class="st25" d="M988.1,986H370.6c-6.6,0-12-5.4-12-12V555.7c0-6.6,5.4-12,12-12h617.6c6.6,0,12,5.4,12,12V974
		C1000.1,980.6,994.7,986,988.1,986z"/>
</g>
<g>
	<path class="st26" d="M988.1,527.3H374c-6.6,0-12-5.4-12-12V298.5c0-6.6,5.4-12,12-12h614.1c6.6,0,12,5.4,12,12v216.8
		C1000.1,521.9,994.7,527.3,988.1,527.3z"/>
</g>
<g>
	<path class="st26" d="M988.1,265.4H374c-6.6,0-12-5.4-12-12V36.6c0-6.6,5.4-12,12-12h614.1c6.6,0,12,5.4,12,12v216.8
		C1000.1,260,994.7,265.4,988.1,265.4z"/>
</g>
<text transform="matrix(1 0 0 1 678.5107 249.9007)" class="st12 st11">Susceptible clone: </text>
<text transform="matrix(1 0 0 1 782.3107 249.9007)" class="st10 st11">E</text>
<text transform="matrix(1 0 0 1 788.5107 249.9007)" class="st12 st11"> . </text>
<text transform="matrix(1 0 0 1 798.0107 249.9007)" class="st10 st11">nitens</text>
<text transform="matrix(1 0 0 1 687.2383 396.0166)" class="st12 st11">Susceptible clone: </text>
<text transform="matrix(1 0 0 1 791.0383 396.0166)" class="st10 st11">E</text>
<text transform="matrix(1 0 0 1 797.2383 396.0166)" class="st12 st11"> . </text>
<text transform="matrix(1 0 0 1 806.7383 396.0166)" class="st10 st11">grandis </text>
<text transform="matrix(1 0 0 1 849.6383 396.0166)" class="st12 st11">ZG14</text>
<text transform="matrix(1 0 0 1 380.2383 393.0166)" class="st12 st11">Susceptible clone: </text>
<text transform="matrix(1 0 0 1 484.0383 393.0166)" class="st10 st11">E</text>
<text transform="matrix(1 0 0 1 490.2383 393.0166)" class="st12 st11"> . </text>
<text transform="matrix(1 0 0 1 499.7383 393.0166)" class="st10 st11">grandis</text>
<text transform="matrix(1 0 0 1 539.4383 393.0166)" class="st12 st11"> ZG14</text>
<text transform="matrix(1 0 0 1 379.2383 514.0166)" class="st12 st11">Resistant clone: </text>
<text transform="matrix(1 0 0 1 470.3383 514.0166)" class="st10 st11">E</text>
<text transform="matrix(1 0 0 1 476.4383 514.0166)" class="st12 st11"> . </text>
<text transform="matrix(1 0 0 1 485.9383 514.0166)" class="st10 st11">grandis </text>
<text transform="matrix(1 0 0 1 528.8383 514.0166)" class="st12 st11"> TAG5</text>
<text transform="matrix(1 0 0 1 686.2383 516.0166)" class="st12 st11">Resistant clone: </text>
<text transform="matrix(1 0 0 1 777.3383 516.0166)" class="st10 st11">E</text>
<text transform="matrix(1 0 0 1 783.4382 516.0166)" class="st12 st11"> . </text>
<text transform="matrix(1 0 0 1 792.9382 516.0166)" class="st10 st11">granids</text>
<text transform="matrix(1 0 0 1 832.7383 516.0166)" class="st12 st11"> TAG5</text>
<text transform="matrix(1 0 0 1 669.25 971.0166)" class="st12 st11">Resistant clone: </text>
<text transform="matrix(1 0 0 1 760.35 971.0166)" class="st10 st11">E</text>
<text transform="matrix(1 0 0 1 766.45 971.0166)" class="st12 st11"> . </text>
<text transform="matrix(1 0 0 1 775.95 971.0166)" class="st10 st11">granids</text>
<text transform="matrix(1 0 0 1 815.75 971.0166)" class="st12 st11"> TAG5</text>
<text transform="matrix(1 0 0 1 369.25 971.0166)" class="st12 st11">Resistant clone: </text>
<text transform="matrix(1 0 0 1 460.35 971.0166)" class="st10 st11">E</text>
<text transform="matrix(1 0 0 1 466.45 971.0166)" class="st12 st11"> . </text>
<text transform="matrix(1 0 0 1 475.95 971.0166)" class="st10 st11">granids</text>
<text transform="matrix(1 0 0 1 515.75 971.0166)" class="st12 st11"> TAG5</text>
<text transform="matrix(1 0 0 1 373.8242 759.6559)" class="st12 st11">Susceptible clone: </text>
<text transform="matrix(1 0 0 1 477.6242 759.6559)" class="st10 st11">E</text>
<text transform="matrix(1 0 0 1 483.8242 759.6559)" class="st12 st11"> . </text>
<text transform="matrix(1 0 0 1 493.3242 759.6559)" class="st10 st11">grandis </text>
<text transform="matrix(1 0 0 1 533.0242 759.6559)" class="st12 st11"> GC540</text>
<text transform="matrix(1 0 0 1 675.8242 759.6559)" class="st12 st11">Susceptible clone: </text>
<text transform="matrix(1 0 0 1 779.6243 759.6559)" class="st10 st11">E</text>
<text transform="matrix(1 0 0 1 785.8242 759.6559)" class="st12 st11"> . </text>
<text transform="matrix(1 0 0 1 795.3242 759.6559)" class="st10 st11">grandis</text>
<text transform="matrix(1 0 0 1 835.0242 759.6559)" class="st12 st11"> GC540</text>
<g>
	<path class="st27" d="M320,555H57c-6.6,0-12-5.4-12-12V33.8c0-6.6,5.4-12,12-12h263c6.6,0,12,5.4,12,12V543
		C332,549.6,326.6,555,320,555z"/>
</g>
<use xlink:href="#Info"  width="63.9" height="64" x="-32" y="-32" transform="matrix(0.2732 0 0 -0.2732 317.7437 539.2565)" style="overflow:visible;"/>
<use xlink:href="#Info"  width="63.9" height="64" id="XMLID_1_" x="-32" y="-32" transform="matrix(0.2732 0 0 -0.2732 984.377 250.0444)" style="overflow:visible;enable-background:new    ;"/>
<use xlink:href="#Info"  width="63.9" height="64" x="-32" y="-32" transform="matrix(0.2732 0 0 -0.2732 983.0991 511.0166)" style="overflow:visible;enable-background:new    ;"/>
<use xlink:href="#Info"  width="63.9" height="64" x="-32" y="-32" transform="matrix(0.2732 0 0 -0.2732 985.1671 970.5969)" style="overflow:visible;enable-background:new    ;"/>
<text transform="matrix(1 0 0 1 870 50)" class="st28 st12 st29">Meyer </text>
<text transform="matrix(1 0 0 1 908.4 50)" class="st28 st10 st29">et al.</text>
<text transform="matrix(1 0 0 1 934.1 50)" class="st28 st12 st29"> (2016)</text>
<text transform="matrix(1 0 0 1 850 305.5085)" class="st28 st12 st29">Mangwanda et al.</text>
<text transform="matrix(1 0 0 1 950.7 305.5085)" class="st28 st12 st29">  (2015)</text>
<text transform="matrix(1 0 0 1 892 567)" class="st28 st12 st29">Oates</text>
<text transform="matrix(1 0 0 1 924.7 567)" class="st28 st10 st29">et al.</text>
<text transform="matrix(1 0 0 1 950.6 567)" class="st28 st12 st29"> (2015)</text>
<text transform="matrix(1 0 0 1 114.6044 42.0002)" class="st28 st30 st31">E. grandis </text>
<text transform="matrix(1 0 0 1 182.8044 42.0002)" class="st28 st32 st31">Tissue exAtlas</text>
</svg>
